<svg width="16" height="14" viewBox="0 0 16 14" fill="none" xmlns="http://www.w3.org/2000/svg">
<path d="M15.2812 11.9125H14.8281V8.38437C14.8281 8.25625 14.7219 8.15 14.5938 8.15C14.4656 8.15 14.3594 8.25625 14.3594 8.38437V11.9125H6.17188V8.44375C6.17188 8.31563 6.06562 8.20938 5.9375 8.20938H2.85C2.71875 8.20938 2.61562 8.31563 2.61562 8.44375V11.9125H1.50312V7.29688L14.3594 3.9875V7.44688C14.3594 7.575 14.4656 7.68125 14.5938 7.68125C14.7219 7.68125 14.8281 7.575 14.8281 7.44688V3.68438C14.8281 3.6125 14.7938 3.54375 14.7375 3.5C14.6813 3.45625 14.6063 3.44062 14.5344 3.45937L13.3844 3.75625L13.1656 1.33438L13.0656 0.215625C13.0563 0.09375 12.9563 0 12.8344 0H11.2844C11.1625 0 11.0625 0.09375 11.05 0.2125L10.95 1.33125L10.6687 4.45312L9.33438 4.79688L9.1 2.19375L9 1.075C8.99062 0.953125 8.8875 0.8625 8.76562 0.8625H7.21562C7.09375 0.8625 6.99375 0.95625 6.98125 1.075L6.88125 2.19375L6.58125 5.50625L5.28125 5.84062L5.03125 3.05312L4.93125 1.93438C4.92188 1.8125 4.81875 1.72187 4.69688 1.72187H3.14687C3.025 1.72187 2.925 1.81563 2.9125 1.93438L2.69688 4.32812C2.68438 4.45625 2.78125 4.57187 2.90937 4.58437C3.0375 4.59687 3.15313 4.5 3.16563 4.37187L3.2625 3.3125H4.58437L4.82188 5.95937L2.97813 6.43437L3.08125 5.30937C3.09375 5.18125 2.99688 5.06562 2.86875 5.05312C2.74063 5.04062 2.625 5.1375 2.6125 5.26562L2.49688 6.55937L1.21563 6.89062C1.1125 6.91875 1.04062 7.00938 1.04062 7.11875V11.9156H0.71875C0.321875 11.9156 0 12.2375 0 12.6344C0 13.0312 0.321875 13.3531 0.71875 13.3531H7.61875C7.75 13.3531 7.85313 13.2469 7.85313 13.1187C7.85313 12.9906 7.74688 12.8844 7.61875 12.8844H0.71875C0.58125 12.8844 0.46875 12.7719 0.46875 12.6344C0.46875 12.4969 0.58125 12.3844 0.71875 12.3844H15.2812C15.4156 12.3844 15.5312 12.4969 15.5312 12.6344C15.5312 12.7719 15.4188 12.8844 15.2812 12.8844H8.55625C8.425 12.8844 8.32187 12.9906 8.32187 13.1187C8.32187 13.2469 8.42812 13.3531 8.55625 13.3531H15.2812C15.6781 13.3531 16 13.0312 16 12.6344C16 12.2375 15.6781 11.9125 15.2812 11.9125ZM3.29688 2.84063L3.35625 2.19062H4.47813L4.5375 2.84063H3.29688ZM12.6187 0.46875L12.6781 1.11875H11.4406L11.5 0.46875H12.6187V0.46875ZM11.3969 1.59063H12.7188L12.925 3.87188L11.15 4.32812L11.3969 1.59063ZM8.55 1.33125L8.60938 1.98125H7.37187L7.43125 1.33125H8.55V1.33125ZM7.325 2.45H8.64688L8.86875 4.91563L7.0625 5.38125L7.325 2.45ZM3.08437 8.68125H5.7V11.9156H3.08437V8.68125Z" fill="#32297C"/>
<path d="M8.89095 7.13128C8.89095 7.00313 8.78468 6.89685 8.65652 6.89685H7.7188C7.58752 6.89685 7.48438 7.00313 7.48438 7.13128V8.30342C7.48438 8.43158 7.59065 8.53785 7.7188 8.53785H8.65652C8.7878 8.53785 8.89095 8.43158 8.89095 8.30342V7.13128ZM8.42209 8.069H7.95323V7.36883H8.42209V8.069Z" fill="#32297C"/>
<path d="M8.65652 9.2937H7.7188C7.58752 9.2937 7.48438 9.39998 7.48438 9.52813V10.7003C7.48438 10.8284 7.59065 10.9347 7.7188 10.9347H8.65652C8.7878 10.9347 8.89095 10.8284 8.89095 10.7003V9.52813C8.89095 9.39998 8.7878 9.2937 8.65652 9.2937ZM8.42209 10.4658H7.95323V9.76569H8.42209V10.4658Z" fill="#32297C"/>
<path d="M11.2689 7.13128C11.2689 7.00313 11.1626 6.89685 11.0345 6.89685H10.0967C9.96545 6.89685 9.8623 7.00313 9.8623 7.13128V8.30342C9.8623 8.43158 9.96858 8.53785 10.0967 8.53785H11.0345C11.1657 8.53785 11.2689 8.43158 11.2689 8.30342V7.13128ZM10.8 8.069H10.3312V7.36883H10.8V8.069Z" fill="#32297C"/>
<path d="M11.0345 9.2937H10.0967C9.96545 9.2937 9.8623 9.39998 9.8623 9.52813V10.7003C9.8623 10.8284 9.96858 10.9347 10.0967 10.9347H11.0345C11.1657 10.9347 11.2689 10.8284 11.2689 10.7003V9.52813C11.2689 9.39998 11.1657 9.2937 11.0345 9.2937ZM10.8 10.4658H10.3312V9.76569H10.8V10.4658Z" fill="#32297C"/>
<path d="M13.6473 7.13128C13.6473 7.00313 13.541 6.89685 13.4129 6.89685H12.4752C12.3439 6.89685 12.2407 7.00313 12.2407 7.13128V8.30342C12.2407 8.43158 12.347 8.53785 12.4752 8.53785H13.4129C13.5442 8.53785 13.6473 8.43158 13.6473 8.30342V7.13128ZM13.1784 8.069H12.7096V7.36883H13.1784V8.069Z" fill="#32297C"/>
<path d="M13.4129 9.2937H12.4752C12.3439 9.2937 12.2407 9.39998 12.2407 9.52813V10.7003C12.2407 10.8284 12.347 10.9347 12.4752 10.9347H13.4129C13.5442 10.9347 13.6473 10.8284 13.6473 10.7003V9.52813C13.6473 9.39998 13.541 9.2937 13.4129 9.2937ZM13.1784 10.4658H12.7096V9.76569H13.1784V10.4658Z" fill="#32297C"/>
</svg>
