<svg width="16" height="4" viewBox="0 0 16 4" fill="none" xmlns="http://www.w3.org/2000/svg">
<path d="M2 4C0.896875 4 0 3.10312 0 2C0 0.896875 0.896875 0 2 0C3.10312 0 4 0.896875 4 2C4 3.10312 3.10312 4 2 4ZM2 0.665625C1.26562 0.665625 0.665625 1.2625 0.665625 2C0.665625 2.7375 1.2625 3.33437 2 3.33437C2.7375 3.33437 3.33437 2.7375 3.33437 2C3.33437 1.2625 2.73438 0.665625 2 0.665625Z" fill="#32297C"/>
<path d="M8 4C6.89688 4 6 3.10312 6 2C6 0.896875 6.89688 0 8 0C9.10312 0 10 0.896875 10 2C10 3.10312 9.10312 4 8 4ZM8 0.665625C7.26562 0.665625 6.66563 1.2625 6.66563 2C6.66563 2.7375 7.2625 3.33437 8 3.33437C8.7375 3.33437 9.33438 2.7375 9.33438 2C9.33438 1.2625 8.73438 0.665625 8 0.665625Z" fill="#32297C"/>
<path d="M14 4C12.8969 4 12 3.10312 12 2C12 0.896875 12.8969 0 14 0C15.1031 0 16 0.896875 16 2C16 3.10312 15.1031 4 14 4ZM14 0.665625C13.2656 0.665625 12.6656 1.2625 12.6656 2C12.6656 2.7375 13.2625 3.33437 14 3.33437C14.7344 3.33437 15.3344 2.7375 15.3344 2C15.3344 1.2625 14.7344 0.665625 14 0.665625Z" fill="#32297C"/>
</svg>
