<svg width="16" height="16" viewBox="0 0 16 16" fill="none" xmlns="http://www.w3.org/2000/svg">
<path d="M15.7656 15.2261H15.3625L14.4219 6.7871H14.5625C14.6906 6.7871 14.7969 6.68012 14.7969 6.55111C14.7969 6.4221 14.6906 6.31512 14.5625 6.31512L14.1344 6.31826V5.4687H14.4187C14.5469 5.4687 14.6531 5.36171 14.6531 5.2327C14.6531 5.1037 14.5469 4.99671 14.4187 4.99671H14.1344V4.67891H14.1375C14.2656 4.67891 14.3719 4.57193 14.3719 4.44292C14.3719 4.31391 14.2656 4.20693 14.1375 4.20693H14.1344V4.13456C14.1344 4.00555 14.0281 3.89857 13.9 3.89857C13.7719 3.89857 13.6656 4.00555 13.6656 4.13456V4.20693H13.6625C13.5344 4.20693 13.4281 4.31391 13.4281 4.44292C13.4281 4.57193 13.5344 4.67891 13.6625 4.67891H13.6656V4.99671H13.3813C13.2531 4.99671 13.1469 5.1037 13.1469 5.2327C13.1469 5.36171 13.2531 5.4687 13.3813 5.4687H13.6656V6.32141L12.2875 6.3277V5.4687H12.5719C12.7 5.4687 12.8062 5.36171 12.8062 5.2327C12.8062 5.1037 12.7 4.99671 12.5719 4.99671H12.2875V4.67891H12.2906C12.4187 4.67891 12.525 4.57193 12.525 4.44292C12.525 4.31391 12.4187 4.20693 12.2906 4.20693H12.2875V4.13456C12.2875 4.00555 12.1813 3.89857 12.0531 3.89857C11.925 3.89857 11.8188 4.00555 11.8188 4.13456V4.20693H11.8156C11.6875 4.20693 11.5813 4.31391 11.5813 4.44292C11.5813 4.57193 11.6875 4.67891 11.8156 4.67891H11.8188V4.99671H11.5344C11.4063 4.99671 11.3 5.1037 11.3 5.2327C11.3 5.36171 11.4063 5.4687 11.5344 5.4687H11.8188V6.33085L11.3875 6.334C11.2594 6.334 11.1531 6.44098 11.1531 6.56999C11.1531 6.69899 11.2594 6.80598 11.3875 6.80598H11.525L11.3813 8.09291C11.1469 8.00481 10.8094 7.95761 10.4281 8.13697C10.0813 8.30059 9.93125 8.6058 9.82187 8.82921C9.7875 8.89843 9.75938 8.95192 9.73438 8.99283V3.08047C9.73438 2.95146 9.62812 2.84448 9.5 2.84448H8.65625V0.235991C8.65625 0.106983 8.55 0 8.42188 0H7.37813C7.25 0 7.14375 0.106983 7.14375 0.235991C7.14375 0.364999 7.25 0.471982 7.37813 0.471982H8.1875V2.84448H2.28437V0.471982H6.44688C6.575 0.471982 6.68125 0.364999 6.68125 0.235991C6.68125 0.106983 6.57813 0 6.44688 0H2.05C1.92187 0 1.81562 0.106983 1.81562 0.235991V2.84448H0.971875C0.84375 2.84448 0.7375 2.95146 0.7375 3.08047V10.1004H0.55C0.35625 10.1004 0.196875 10.2609 0.196875 10.456V11.0475C0.196875 11.2426 0.35625 11.4031 0.55 11.4031H0.7375V15.2261H0.234375C0.10625 15.2261 0 15.3331 0 15.4621C0 15.5911 0.10625 15.6981 0.234375 15.6981H15.7656C15.8937 15.6981 16 15.5911 16 15.4621C16 15.3331 15.8937 15.2261 15.7656 15.2261ZM11.0625 15.2261L11.2844 13.2249L14.3406 14.2255L12.175 15.223H11.0625V15.2261ZM11.8125 8.48623L11.8469 8.18416L13.85 9.09666L11.6406 10.0186L11.8125 8.48623ZM14.7375 13.8605L11.8406 12.9103L14.5281 11.9663L14.7375 13.8605ZM14.4531 11.293L12.0281 10.3679L14.2469 9.44278L14.4531 11.293ZM11.5656 10.6983L14.0406 11.6422L11.3562 12.5862L11.5656 10.6983ZM14.8125 14.5307L14.8906 15.2261H13.3031L14.8125 14.5307ZM14.1656 8.72537L12.1531 7.80658L13.8125 6.79024H13.9531L14.1656 8.72537ZM12.9031 6.79654L11.9375 7.38809L12.0031 6.79968L12.9031 6.79654ZM1.20625 3.31646H9.27188V10.1004H1.20625V3.31646ZM0.665625 10.5724H9.81563V10.9311H0.665625V10.5724ZM3.55312 13.4609H5.00625V15.2261H3.55312V13.4609V13.4609ZM5.475 15.2261V13.4609H6.92812V15.2261H5.475ZM7.39375 15.2261V13.4609H7.42188C7.55 13.4609 7.65625 13.3539 7.65625 13.2249C7.65625 13.0959 7.55 12.9889 7.42188 12.9889H3.05625C2.92813 12.9889 2.82188 13.0959 2.82188 13.2249C2.82188 13.3539 2.92813 13.4609 3.05625 13.4609H3.08437V15.2261H1.20625V11.4031H9.27188V12.7529C9.27188 12.882 9.37813 12.9889 9.50625 12.9889C9.63438 12.9889 9.74063 12.882 9.74063 12.7529V11.4031H9.92813C10.1219 11.4031 10.2812 11.2426 10.2812 11.0475V10.456C10.2812 10.2609 10.1219 10.1004 9.92813 10.1004H9.74063V9.56864C10.0188 9.49942 10.1469 9.23826 10.2469 9.03688C10.3437 8.84179 10.4344 8.65615 10.6313 8.56175C10.9344 8.41701 11.1938 8.50826 11.3313 8.58063L10.5906 15.2261H9.74063V13.6969C9.74063 13.5679 9.63438 13.4609 9.50625 13.4609C9.37813 13.4609 9.27188 13.5679 9.27188 13.6969V15.2261H7.39375Z" fill="#32297C"/>
<path d="M3.12191 2.5487C3.16254 2.57702 3.20941 2.59275 3.25629 2.59275C3.33129 2.59275 3.40316 2.55814 3.44691 2.49206L4.03129 1.65508C4.08129 1.58271 4.08754 1.48831 4.04691 1.40965C4.00629 1.33098 3.92504 1.28379 3.83754 1.28379H3.57504L3.70941 1.10129C3.78754 0.99745 3.76254 0.849562 3.65941 0.770899C3.55629 0.692235 3.40941 0.717407 3.33129 0.821243L2.92504 1.37818C2.87191 1.45055 2.86566 1.54495 2.90629 1.62361C2.94691 1.70228 3.02816 1.75262 3.11566 1.75262H3.38754L3.06566 2.22146C2.99066 2.32844 3.01566 2.47318 3.12191 2.5487Z" fill="#32297C"/>
<path d="M7.16865 0.928223H4.80615C4.67803 0.928223 4.57178 1.03521 4.57178 1.16421C4.57178 1.29322 4.67803 1.4002 4.80615 1.4002H7.16865C7.29678 1.4002 7.40303 1.29322 7.40303 1.16421C7.40303 1.03521 7.29678 0.928223 7.16865 0.928223Z" fill="#32297C"/>
<path d="M7.16865 1.91943H4.80615C4.67803 1.91943 4.57178 2.02642 4.57178 2.15542C4.57178 2.28443 4.67803 2.39142 4.80615 2.39142H7.16865C7.29678 2.39142 7.40303 2.28443 7.40303 2.15542C7.40303 2.02642 7.29678 1.91943 7.16865 1.91943Z" fill="#32297C"/>
<path d="M3.24082 7.11755H2.2627C2.09082 7.11755 1.9502 7.25915 1.9502 7.43221V9.2635C1.9502 9.43656 2.09082 9.57815 2.2627 9.57815H3.24082C3.4127 9.57815 3.55332 9.43656 3.55332 9.2635V7.43221C3.55332 7.25915 3.4127 7.11755 3.24082 7.11755ZM3.08457 9.10617H2.41895V7.59268H3.08457V9.10617Z" fill="#32297C"/>
<path d="M8.21543 7.11755H7.2373C7.06543 7.11755 6.9248 7.25915 6.9248 7.43221V9.2635C6.9248 9.43656 7.06543 9.57815 7.2373 9.57815H8.21543C8.3873 9.57815 8.52793 9.43656 8.52793 9.2635V7.43221C8.52793 7.25915 8.3873 7.11755 8.21543 7.11755ZM8.05918 9.10617H7.39355V7.59268H8.05918V9.10617Z" fill="#32297C"/>
<path d="M3.24082 3.84192H2.2627C2.09082 3.84192 1.9502 3.98351 1.9502 4.15657V5.98786C1.9502 6.16092 2.09082 6.30252 2.2627 6.30252H3.24082C3.4127 6.30252 3.55332 6.16092 3.55332 5.98786V4.15343C3.55332 3.98037 3.4127 3.84192 3.24082 3.84192ZM3.08457 5.82739H2.41895V4.3139H3.08457V5.82739Z" fill="#32297C"/>
<path d="M5.72813 3.84192H4.75C4.57812 3.84192 4.4375 3.98351 4.4375 4.15657V5.98786C4.4375 6.16092 4.57812 6.30252 4.75 6.30252H5.72813C5.9 6.30252 6.04062 6.16092 6.04062 5.98786V4.15343C6.04062 3.98037 5.9 3.84192 5.72813 3.84192ZM5.57188 5.82739H4.90625V4.3139H5.57188V5.82739Z" fill="#32297C"/>
<path d="M8.21543 3.84192H7.2373C7.06543 3.84192 6.9248 3.98351 6.9248 4.15657V5.98786C6.9248 6.16092 7.06543 6.30252 7.2373 6.30252H8.21543C8.3873 6.30252 8.52793 6.16092 8.52793 5.98786V4.15343C8.52793 3.98037 8.3873 3.84192 8.21543 3.84192ZM8.05918 5.82739H7.39355V4.3139H8.05918V5.82739Z" fill="#32297C"/>
<path d="M5.72813 7.11755H4.75C4.57812 7.11755 4.4375 7.25915 4.4375 7.43221V8.00488C4.4375 8.13389 4.54375 8.24087 4.67187 8.24087C4.8 8.24087 4.90625 8.13389 4.90625 8.00488V7.58954H5.57188V9.10302H4.90625V8.94884C4.90625 8.81983 4.8 8.71285 4.67187 8.71285C4.54375 8.71285 4.4375 8.81983 4.4375 8.94884V9.26035C4.4375 9.43341 4.57812 9.575 4.75 9.575H5.72813C5.9 9.575 6.04062 9.43341 6.04062 9.26035V7.42906C6.04062 7.25915 5.9 7.11755 5.72813 7.11755Z" fill="#32297C"/>
</svg>
