<svg width="16" height="16" viewBox="0 0 16 16" fill="none" xmlns="http://www.w3.org/2000/svg">
<path d="M15.9506 7.25979L15.4319 5.98696C15.5725 5.82242 15.6569 5.60822 15.6569 5.37538C15.6569 4.93455 15.3537 4.56512 14.9475 4.45956C14.9475 4.39748 14.9475 2.86387 14.9475 2.79868C14.9475 2.58757 14.8162 2.40441 14.6162 2.33611L8.02532 0.0698505C7.75343 -0.0232835 7.45342 -0.0232835 7.18153 0.0698505L5.54084 0.634863C5.41896 0.678326 5.35334 0.808713 5.39709 0.929787C5.44084 1.05086 5.57209 1.11606 5.69397 1.07259L7.33466 0.50758C7.50655 0.448595 7.69718 0.448595 7.87219 0.50758L14.4631 2.77384C14.4693 2.77694 14.4787 2.78005 14.4787 2.79557C14.4787 2.81109 14.4693 2.8142 14.4631 2.8173L12.1942 3.60273V3.53443C12.1942 3.25193 11.9911 3.01288 11.713 2.96011C8.98785 2.47581 6.22525 2.47581 3.50014 2.96011C3.222 3.00978 3.01887 3.25193 3.01887 3.53443V3.60273L0.746904 2.82041C0.740654 2.8173 0.731279 2.8142 0.731279 2.79868C0.731279 2.78315 0.740654 2.78005 0.746904 2.77694L4.64393 1.43582C4.76581 1.39235 4.83144 1.26197 4.78769 1.14089C4.74394 1.01982 4.61268 0.954623 4.4908 0.998086L0.593773 2.33921C0.393766 2.40751 0.26251 2.59068 0.26251 2.80178C0.26251 3.01288 0.393766 3.19294 0.593773 3.26124L3.01574 4.09324V6.39675C1.78757 6.51782 0.825033 7.55161 0.825033 8.79961C0.825033 9.63471 1.2563 10.3736 1.90633 10.8082C0.815657 11.0472 0 12.0127 0 13.1676C0 14.5025 1.09067 15.586 2.43135 15.586H14.4787C14.8818 15.586 15.21 15.26 15.21 14.8595C15.21 14.4653 14.8912 14.1424 14.4943 14.1331C14.2506 13.5091 14.2474 12.8261 14.4881 12.2021C14.885 12.1959 15.21 11.873 15.21 11.4757C15.21 11.0752 14.8818 10.7492 14.4787 10.7492H14.3349C14.3662 10.6685 14.3849 10.5816 14.3849 10.4884C14.3849 10.088 14.0568 9.76199 13.6537 9.76199H13.6474C13.4193 9.17835 13.4068 8.54504 13.6037 7.95209C13.7287 8.08558 13.9037 8.16319 14.0881 8.16319H15.3381C15.5569 8.16319 15.7631 8.05454 15.885 7.87448C16.01 7.69752 16.035 7.46469 15.9506 7.25979ZM15.1881 5.37538C15.1881 5.63926 14.9756 5.85347 14.7131 5.85347C14.4506 5.85347 14.2381 5.63926 14.2381 5.37538C14.2381 5.1115 14.4506 4.89729 14.7131 4.89729C14.9756 4.89729 15.1881 5.1115 15.1881 5.37538ZM14.4787 3.30781V4.45956C14.0724 4.56512 13.7693 4.93455 13.7693 5.37538C13.7693 5.60822 13.8537 5.82242 13.9943 5.98696L13.8318 6.38744H12.1942V4.09634L14.4787 3.30781ZM3.58139 3.41646C6.25025 2.94148 8.95973 2.94148 11.6286 3.41646C11.6848 3.42578 11.7255 3.47545 11.7255 3.53133V5.11771H10.2817C10.1535 5.11771 10.0473 5.22326 10.0473 5.35055C10.0473 5.47783 10.1535 5.58338 10.2817 5.58338H11.7255V6.38433H3.48451V5.58338H9.18786C9.31599 5.58338 9.42225 5.47783 9.42225 5.35055C9.42225 5.22326 9.31599 5.11771 9.18786 5.11771H3.48451V3.53133C3.48451 3.47545 3.52514 3.42888 3.58139 3.41646ZM14.7412 11.4788C14.7412 11.6216 14.6225 11.7395 14.4787 11.7395H2.43135C1.63756 11.7395 0.990664 12.3822 0.990664 13.1707C0.990664 13.9592 1.63756 14.6019 2.43135 14.6019H11.688C11.8161 14.6019 11.9223 14.4963 11.9223 14.369C11.9223 14.2417 11.8161 14.1362 11.688 14.1362H2.43135C1.89382 14.1362 1.45943 13.7016 1.45943 13.1707C1.45943 12.6398 1.89695 12.2052 2.43135 12.2052H9.82226V13.5091C9.82226 13.5867 9.85976 13.6581 9.92539 13.7016C9.98789 13.745 10.0723 13.7543 10.1442 13.7264L10.7754 13.4811L11.4067 13.7264C11.4348 13.7357 11.463 13.7419 11.4911 13.7419C11.538 13.7419 11.5848 13.7295 11.6223 13.7016C11.6848 13.6581 11.7255 13.5867 11.7255 13.5091V12.2052H13.9881C13.7849 12.8354 13.7849 13.506 13.9912 14.1362H12.7818C12.6536 14.1362 12.5474 14.2417 12.5474 14.369C12.5474 14.4963 12.6536 14.6019 12.7818 14.6019H14.4818C14.6256 14.6019 14.7443 14.7198 14.7443 14.8626C14.7443 15.0054 14.6256 15.1234 14.4818 15.1234H2.43135C1.35005 15.1203 0.468768 14.2448 0.468768 13.1707C0.468768 12.0965 1.35005 11.2211 2.43135 11.2211H14.4787C14.6256 11.2211 14.7412 11.336 14.7412 11.4788ZM10.2942 12.2052H11.2629V13.1707L10.8661 13.0155C10.8098 12.9937 10.7504 12.9937 10.6942 13.0155L10.2973 13.1707V12.2052H10.2942ZM6.2815 10.2339H13.6537C13.7974 10.2339 13.9162 10.3518 13.9162 10.4946C13.9162 10.6374 13.7974 10.7554 13.6537 10.7554H3.2595C2.17821 10.7554 1.29693 9.87996 1.29693 8.80582C1.29693 7.73167 2.17821 6.85621 3.2595 6.85621H13.6443C13.5849 7.01143 13.4787 7.22875 13.4443 7.37466H3.2595C2.46572 7.37466 1.81882 8.01728 1.81882 8.80582C1.81882 9.59435 2.46572 10.237 3.2595 10.237H5.1877C5.31583 10.237 5.42209 10.1314 5.42209 10.0041C5.42209 9.87686 5.31583 9.7713 5.1877 9.7713H3.2595C2.72198 9.7713 2.28759 9.33668 2.28759 8.80582C2.28759 8.27495 2.72511 7.84033 3.2595 7.84033H4.11579V9.13489C4.11579 9.2125 4.15329 9.2839 4.21892 9.32737C4.28142 9.37083 4.3658 9.38014 4.43768 9.3522L5.06895 9.10695L5.70022 9.3522C5.72835 9.36152 5.75648 9.36772 5.7846 9.36772C5.83148 9.36772 5.87836 9.35531 5.91586 9.32737C5.97836 9.2839 6.01899 9.2125 6.01899 9.13489V7.84033H13.1474C12.9411 8.47053 12.9411 9.1411 13.1474 9.7713H6.2815C6.15337 9.7713 6.04711 9.87686 6.04711 10.0041C6.04711 10.1314 6.15337 10.2339 6.2815 10.2339ZM4.58456 7.83722H5.55334V8.79029L5.15645 8.63507C5.1002 8.61334 5.04082 8.61334 4.98457 8.63507L4.58768 8.79029L4.58456 7.83722ZM15.4975 7.61991C15.4787 7.64475 15.4287 7.70373 15.3381 7.70373H14.0881C13.9974 7.70373 13.9474 7.64475 13.9287 7.61991C13.8912 7.56403 13.8849 7.49573 13.9099 7.43364L14.3881 6.26015C14.4881 6.29741 14.5975 6.31603 14.7131 6.31603C14.8256 6.31603 14.935 6.2943 15.0381 6.26015L15.5162 7.43364C15.5412 7.49884 15.535 7.56403 15.4975 7.61991Z" fill="#32297C"/>
</svg>
