<svg width="16" height="16" viewBox="0 0 16 16" fill="none" xmlns="http://www.w3.org/2000/svg">
<path d="M6.12822 8.12185C6.20947 8.12185 6.2876 8.0781 6.32822 8.00935L6.7501 7.30623L7.30947 8.19685C7.35322 8.2656 7.43135 8.30935 7.5126 8.30623C7.59385 8.3031 7.66885 8.25935 7.7126 8.18748L8.61572 6.61248L9.82822 8.81873C9.86885 8.89373 9.94697 8.93748 10.0282 8.9406H10.0313C10.1126 8.9406 10.1907 8.89685 10.2313 8.82498L10.9876 7.55935H12.8063C12.9345 7.55935 13.0407 7.4531 13.0407 7.32498C13.0407 7.19685 12.9345 7.0906 12.8063 7.0906H10.8532C10.772 7.0906 10.6938 7.13435 10.6532 7.20623L10.0407 8.23435L8.8251 6.01873C8.78447 5.94373 8.70635 5.89685 8.62197 5.89685C8.62197 5.89685 8.62197 5.89685 8.61885 5.89685C8.53447 5.89685 8.45635 5.9406 8.41572 6.0156L7.5001 7.61873L6.94385 6.73748C6.9001 6.66873 6.8251 6.6281 6.74697 6.6281C6.74697 6.6281 6.74697 6.6281 6.74385 6.6281C6.6626 6.6281 6.5876 6.67185 6.54385 6.7406L5.99385 7.65623H4.6626C4.53447 7.65623 4.42822 7.76248 4.42822 7.8906C4.42822 8.01873 4.53447 8.12498 4.6626 8.12498L6.12822 8.12185Z" fill="#32297C"/>
<path d="M13.2219 1.61877C13.0938 1.61877 12.9875 1.72502 12.9875 1.85315V2.54377H12.2969C12.1687 2.54377 12.0625 2.65002 12.0625 2.77815C12.0625 2.90627 12.1687 3.01252 12.2969 3.01252H12.9875V3.70315C12.9875 3.83127 13.0938 3.93752 13.2219 3.93752C13.35 3.93752 13.4563 3.83127 13.4563 3.70315V3.01252H14.1469C14.275 3.01252 14.3813 2.90627 14.3813 2.77815C14.3813 2.65002 14.275 2.54377 14.1469 2.54377H13.4563V1.85315C13.4563 1.7219 13.35 1.61877 13.2219 1.61877Z" fill="#32297C"/>
<path d="M14.05 9.65C15.1906 8.42812 15.5188 6.58438 14.8906 5C15.5625 4.49063 16 3.68438 16 2.77813C16 1.24688 14.7531 0 13.2219 0C12.5938 0 11.975 0.215625 11.4875 0.609375C11.3875 0.690625 11.3687 0.8375 11.45 0.9375C11.5312 1.0375 11.6781 1.05625 11.7781 0.975C12.1937 0.64375 12.6906 0.46875 13.2219 0.46875C14.4969 0.46875 15.5312 1.50625 15.5312 2.77813C15.5312 4.05313 14.4938 5.0875 13.2219 5.0875C12.0375 5.0875 11.0563 4.19062 10.9281 3.0375C10.9281 3.03437 10.9281 3.03125 10.9281 3.02813C10.9188 2.94375 10.9125 2.85938 10.9125 2.775C10.9125 2.4125 10.9937 2.06875 11.1531 1.74688C11.2125 1.63125 11.1656 1.49062 11.0469 1.43125C10.9312 1.37187 10.7906 1.42188 10.7312 1.5375C10.5375 1.925 10.4406 2.34063 10.4406 2.775C10.4406 2.81563 10.4406 2.85312 10.4438 2.89375C9.85313 3.10625 9.3 3.45312 8.8375 3.90937L8.57812 4.1625L8.575 4.15938L8.32187 3.90937C7.49687 3.09687 6.41875 2.64375 5.3625 2.66563C4.48438 2.68438 3.70312 3.02812 3.1125 3.6625C3.025 3.75625 3.02813 3.90625 3.125 3.99375C3.21875 4.08125 3.36875 4.07813 3.45625 3.98125C3.95937 3.44063 4.625 3.14688 5.375 3.13438C6.30625 3.11563 7.2625 3.51875 7.99687 4.24375L8.25313 4.49375C8.375 4.61563 8.48125 4.675 8.58438 4.675C8.6875 4.675 8.79063 4.61562 8.9125 4.49687L9.17188 4.24375C9.5625 3.8625 10.0187 3.5625 10.5125 3.37188C10.7844 4.61875 11.9 5.55625 13.2281 5.55625C13.6844 5.55625 14.1125 5.44688 14.4906 5.25313C15.0094 6.65 14.7125 8.25625 13.7125 9.325L10.3438 12.7688L10.0656 12.8219C9.99688 12.8344 9.9375 12.8469 9.88437 12.8562C9.53125 12.9281 9.44688 12.9438 9.03438 12.8813L7.03125 12.5156C6.75938 12.4219 6.78438 12.2031 6.8 12.1375C6.825 12.0344 6.91875 11.8719 7.12187 11.9031C7.125 11.9031 7.125 11.9031 7.12813 11.9031C7.21875 11.9156 7.31563 11.9281 7.41563 11.9406C7.79375 11.9906 8.225 12.0438 8.60625 12.0844C9.3875 12.1625 9.82812 11.7531 9.92188 11.3125C10.0156 10.8625 9.75938 10.2625 8.975 10.0125C8.96563 10.0094 8.95625 10.0063 8.94687 10.0063L7.65625 9.76875C6.95625 9.64063 6.40937 9.74062 5.58437 9.89062C5.36562 9.93125 5.11875 9.975 4.84375 10.0188L4.23125 10.1187L4.04375 9.925L3.45312 9.32187C2.35312 8.14062 2.10938 6.29375 2.85938 4.825C2.91875 4.70937 2.87187 4.56875 2.75625 4.50938C2.64062 4.45 2.5 4.49688 2.44062 4.6125C1.6 6.25313 1.875 8.32188 3.10938 9.64375L3.1125 9.64688L3.6625 10.2094L2.6375 10.3781V10.35C2.6375 10.1688 2.47813 10.0219 2.28125 10.0219H0.35625C0.159375 10.0219 0 10.1688 0 10.35V14.475C0 14.6563 0.159375 14.8031 0.35625 14.8031H2.28437C2.48125 14.8031 2.64062 14.6563 2.64062 14.475V14.4469L4.74687 15.0219L6.69375 15.55C7.1375 15.6875 7.49688 15.7437 7.82188 15.7437C8.3375 15.7437 8.77812 15.6031 9.35625 15.4156C9.40625 15.4 9.45938 15.3813 9.51562 15.3656L13.35 14.1375C13.7938 13.9937 14.1094 13.675 14.1969 13.2812C14.2625 12.975 14.1719 12.675 13.95 12.475C13.7719 12.3125 13.3531 12.0812 12.5469 12.3375L11.1562 12.6094L14.0469 9.65C14.0469 9.65 14.0469 9.65 14.05 9.65ZM0.46875 14.3406V10.4969H2.17188V10.6594V14.1438V14.3375L0.46875 14.3406ZM12.675 12.7906C13.1063 12.6531 13.4562 12.6656 13.6344 12.825C13.7312 12.9125 13.7688 13.0437 13.7375 13.1844C13.6875 13.4125 13.4906 13.6031 13.2063 13.6938L9.37187 14.925C9.31562 14.9438 9.2625 14.9594 9.2125 14.975C8.29375 15.2719 7.83438 15.4219 6.82812 15.1062C6.825 15.1062 6.82187 15.1062 6.81875 15.1031L2.64062 13.9656V10.8562L4.91875 10.4812C5.19687 10.4344 5.44687 10.3906 5.66875 10.35C6.46875 10.2031 6.95313 10.1156 7.57188 10.2281L8.84688 10.4625C9.34375 10.625 9.51562 10.9656 9.46562 11.2156C9.40625 11.5031 9.0875 11.6625 8.65625 11.6187C8.28125 11.5812 7.85313 11.525 7.47813 11.4781C7.37813 11.4656 7.28125 11.4531 7.19063 11.4406C6.74375 11.375 6.42813 11.6875 6.34688 12.0312C6.32813 12.1063 6.32187 12.1844 6.32812 12.2625C6.34688 12.5469 6.51562 12.8437 6.90312 12.9656C6.9125 12.9687 7.04063 12.9937 7.04063 12.9937L8.95625 13.3438C8.95938 13.3438 8.95937 13.3438 8.9625 13.3438C9.35625 13.4062 9.52813 13.4 9.77188 13.3562C9.83438 13.3437 10.0938 13.2937 10.1594 13.2781L10.5813 13.1969C10.575 13.2031 12.6656 12.7937 12.675 12.7906Z" fill="#32297C"/>
</svg>
