<svg width="16" height="17" viewBox="0 0 16 17" fill="none" xmlns="http://www.w3.org/2000/svg">
<path d="M12.1294 3.8734V2.84114C12.1294 2.69921 12.0133 2.58308 11.8714 2.58308C10.8488 2.58308 9.94557 3.25405 9.6488 4.23146L9.12944 3.8863L9.03267 2.30888C9.02299 2.1734 8.91009 2.06695 8.7746 2.06695H8.25847V1.50243C8.6617 1.3605 8.87138 0.918562 8.72944 0.515336C8.58751 0.11211 8.14557 -0.0975671 7.74235 0.0443684C7.33912 0.186304 7.12944 0.628239 7.27138 1.03147C7.3488 1.25082 7.52299 1.42501 7.74235 1.50243V2.06695H7.22622C7.09073 2.06695 6.97783 2.1734 6.96815 2.30888L6.69718 6.67017L6.09396 7.0734C5.79718 6.09598 4.89396 5.42501 3.87138 5.42179C3.72944 5.42179 3.61331 5.53792 3.61331 5.67985V6.71211C3.04235 6.71211 2.58105 7.1734 2.58105 7.74437C2.58105 8.31534 3.04235 8.77663 3.61331 8.77663V9.80888C3.61331 9.95082 3.72944 10.0669 3.87138 10.0669C4.89396 10.0669 5.79718 9.39598 6.09396 8.41856L6.56815 8.73469L6.21009 14.454H4.90364C4.7617 14.454 4.64557 14.5702 4.64557 14.7121V15.7444C4.64557 15.8863 4.7617 16.0024 4.90364 16.0024H11.0972C11.2391 16.0024 11.3552 15.8863 11.3552 15.7444V14.7121C11.3552 14.5702 11.2391 14.454 11.0972 14.454H9.79073L9.25202 5.84437L9.6488 5.57985C9.94557 6.55727 10.8488 7.22824 11.8714 7.22824C12.0133 7.22824 12.1294 7.11211 12.1294 6.97017V5.93792C12.7004 5.93792 13.1617 5.47663 13.1617 4.90566C13.1617 4.33469 12.7004 3.8734 12.1294 3.8734ZM8.00041 0.518562C8.14235 0.518562 8.25847 0.634691 8.25847 0.776626C8.25847 0.918562 8.14235 1.03469 8.00041 1.03469C7.85847 1.03469 7.74235 0.918562 7.74235 0.776626C7.74235 0.634691 7.85847 0.518562 8.00041 0.518562ZM3.09718 7.74437C3.09718 7.4605 3.32944 7.22824 3.61331 7.22824V8.2605C3.32944 8.2605 3.09718 8.02824 3.09718 7.74437ZM7.71976 4.20566L7.30364 5.21856L7.41331 3.45727L7.71976 4.20566ZM7.61009 2.58308H8.38751L8.00041 3.52824L7.61009 2.58308ZM8.00041 4.88308L8.74557 6.68953L8.00041 7.93146L7.25525 6.68953L8.00041 4.88308ZM7.70041 8.43147L7.03267 9.54114L7.15847 7.53146L7.70041 8.43147ZM8.00041 8.93469L8.98428 10.5734L8.00041 12.0057L7.01654 10.5734L8.00041 8.93469ZM6.91976 11.3444L7.68751 12.4605L6.76815 13.7992L6.91976 11.3444ZM8.00041 12.9153L9.05847 14.454H6.94235L8.00041 12.9153ZM8.31331 12.4605L9.08106 11.3444L9.23267 13.796L8.31331 12.4605ZM8.30041 8.43147L8.83912 7.53146L8.96493 9.54114L8.30041 8.43147ZM8.28106 4.20566L8.58751 3.4605L8.69718 5.22179L8.28106 4.20566ZM4.12944 9.53147V5.95727C5.11654 6.09921 5.80364 7.01534 5.6617 8.00243C5.54557 8.79598 4.92299 9.41856 4.12944 9.53147ZM6.18751 7.8605C6.19073 7.82179 6.19396 7.78308 6.19396 7.74437C6.19396 7.70566 6.19073 7.66695 6.18751 7.62824L6.65525 7.31534L6.60364 8.13792L6.18751 7.8605ZM10.8391 15.4863H5.1617V14.9702H10.8391V15.4863ZM9.21654 5.24759L9.17138 4.53469L9.55525 4.78953C9.55202 4.82824 9.5488 4.86695 9.5488 4.90566C9.5488 4.94437 9.55202 4.98308 9.55525 5.02179L9.21654 5.24759ZM11.6133 6.69276C10.6262 6.55082 9.93912 5.63469 10.0811 4.64759C10.194 3.85405 10.8198 3.23146 11.6133 3.11534V6.69276ZM12.1294 5.42179V4.38953C12.4133 4.38953 12.6456 4.62179 12.6456 4.90566C12.6456 5.18953 12.4133 5.42179 12.1294 5.42179Z" fill="#32297C"/>
<path d="M12.9033 0.00244141V0.51857C14.3291 0.51857 15.484 1.67341 15.484 3.09922H16.0001C15.9969 1.38954 14.613 0.00566721 12.9033 0.00244141Z" fill="#32297C"/>
<path d="M12.9033 1.03467V1.5508C13.7582 1.5508 14.4517 2.24435 14.4517 3.09918H14.9678C14.9678 1.96047 14.042 1.03467 12.9033 1.03467Z" fill="#32297C"/>
<path d="M12.9033 2.06689V2.58302C13.1872 2.58302 13.4194 2.81528 13.4194 3.09915H13.9356C13.9356 2.52818 13.4743 2.06689 12.9033 2.06689Z" fill="#32297C"/>
<path d="M3.09677 3.35719V2.84106C1.3871 2.84429 0.00322581 4.22816 0 5.93784H0.516129C0.516129 4.51203 1.67097 3.36042 3.09677 3.35719Z" fill="#32297C"/>
<path d="M3.09625 3.87341C1.95754 3.87341 1.03174 4.79922 1.03174 5.93793H1.54787C1.54787 5.08309 2.24142 4.38954 3.09625 4.38954V3.87341Z" fill="#32297C"/>
<path d="M3.09671 5.42189V4.90576C2.52574 4.90576 2.06445 5.36705 2.06445 5.93802H2.58058C2.58058 5.65415 2.81284 5.42189 3.09671 5.42189Z" fill="#32297C"/>
</svg>
