<svg width="16" height="19" viewBox="0 0 16 19" fill="none" xmlns="http://www.w3.org/2000/svg">
<path d="M10.9903 14.8402C11.1776 14.8402 11.3324 14.6853 11.3324 14.4979V13.3303C11.3324 13.1429 11.1776 12.9879 10.9903 12.9879H9.82355C9.63629 12.9879 9.48145 13.1429 9.48145 13.3303V14.4979C9.48145 14.6853 9.63629 14.8402 9.82355 14.8402H10.9903ZM10.0252 13.5285H10.7959V14.2997H10.0252V13.5285Z" fill="#32297C"/>
<path d="M13.8141 14.8402C14.0013 14.8402 14.1562 14.6853 14.1562 14.4979V13.3303C14.1562 13.1429 14.0013 12.9879 13.8141 12.9879H12.6473C12.46 12.9879 12.3052 13.1429 12.3052 13.3303V14.4979C12.3052 14.6853 12.46 14.8402 12.6473 14.8402H13.8141ZM12.8453 13.5285H13.616V14.2997H12.8453V13.5285Z" fill="#32297C"/>
<path d="M15.7329 17.9106H15.3728V12.2058C15.3728 12.0148 15.2504 11.8563 15.0775 11.7986V9.09942C15.0775 8.95167 14.9551 8.82914 14.8074 8.82914C14.6598 8.82914 14.5373 8.95167 14.5373 9.09942V9.62917H12.0885V7.22548C12.0885 7.07773 11.9661 6.9552 11.8185 6.9552C11.6708 6.9552 11.5484 7.07773 11.5484 7.22548V7.47774H9.09958V7.22548C9.09958 7.07773 8.97714 6.9552 8.82949 6.9552C8.68185 6.9552 8.55941 7.07773 8.55941 7.22548V10.9698C8.39375 11.0274 8.27132 11.186 8.27132 11.3734V13.6401C8.27132 13.7879 8.39375 13.9104 8.5414 13.9104C8.68905 13.9104 8.81149 13.7879 8.81149 13.6401V11.4851H12.3046V11.9284C12.3046 12.141 12.4775 12.3176 12.6935 12.3176H14.8326V17.9106H12.9708V15.9898C12.9708 15.8024 12.816 15.6474 12.6287 15.6474H11.0082C10.8209 15.6474 10.6661 15.8024 10.6661 15.9898V17.9106H8.81149V14.9014C8.81149 14.7537 8.68905 14.6312 8.5414 14.6312C8.39375 14.6312 8.27132 14.7537 8.27132 14.9014V17.9106H7.9112C7.76355 17.9106 7.64111 18.0331 7.64111 18.1808C7.64111 18.3286 7.76355 18.4511 7.9112 18.4511H15.7293C15.877 18.4511 15.9994 18.3286 15.9994 18.1808C16.003 18.0331 15.8806 17.9106 15.7329 17.9106ZM11.5484 8.0183V9.62917H9.09958V8.0183H11.5484ZM9.09958 10.1661H11.5484V10.9445H9.09958V10.1661ZM12.4198 10.9445H12.0921V10.1661H14.5409V11.777H12.8484V11.3734C12.8448 11.1355 12.6539 10.9445 12.4198 10.9445ZM11.2063 16.188H12.4306V17.9106H11.2063V16.188Z" fill="#32297C"/>
<path d="M6.40645 16.8619C6.36324 16.7141 6.22639 16.6132 6.07154 16.6132H5.65381V4.90108H5.90229C6.02833 4.90108 6.14717 4.84702 6.23 4.74972C6.31282 4.65242 6.34523 4.52629 6.32363 4.40016L6.29121 4.20916H8.85884C9.00648 4.20916 9.12892 4.08664 9.12892 3.93888C9.12892 3.79113 9.00648 3.6686 8.85884 3.6686H6.19398L6.07515 2.98389H14.4694C14.6603 2.98389 14.8115 3.13885 14.8115 3.32625C14.8115 3.51364 14.6567 3.6686 14.4694 3.6686H10.1192C9.97159 3.6686 9.84915 3.79113 9.84915 3.93888C9.84915 4.08664 9.97159 4.20916 10.1192 4.20916H13.5007V6.05428C13.137 6.16959 12.8705 6.51195 12.8705 6.91196C12.8705 7.40928 13.2739 7.8129 13.7708 7.8129C14.2678 7.8129 14.6711 7.40928 14.6711 6.91196C14.6711 6.76421 14.5487 6.64168 14.401 6.64168C14.2534 6.64168 14.1309 6.76421 14.1309 6.91196C14.1309 7.11017 13.9689 7.27234 13.7708 7.27234C13.5727 7.27234 13.4107 7.11017 13.4107 6.91196C13.4107 6.71376 13.5727 6.55159 13.7708 6.55159C13.9185 6.55159 14.0409 6.42906 14.0409 6.28131V4.20556H14.4694C14.9556 4.20556 15.3517 3.80915 15.3517 3.32264C15.3517 2.83614 14.9556 2.43973 14.4694 2.43973H12.4996L4.54105 0.0108112C4.50504 0 4.47983 0 4.45103 0C4.40061 0.00360374 4.3574 0.0180187 4.31778 0.0432448C4.29618 0.0576598 4.61308 -0.158564 0.777849 2.44333H0.388925C0.172855 2.44333 0 2.61631 0 2.82893V3.81996C0 4.03258 0.172855 4.20916 0.388925 4.20916H0.918294V5.17136H0.428537C0.194462 5.17136 0 5.36236 0 5.6002V6.54438C0 6.77863 0.190861 6.97323 0.428537 6.97323H1.94462C2.1787 6.97323 2.37316 6.78223 2.37316 6.54438V5.6002C2.37316 5.36596 2.1823 5.17136 1.94462 5.17136H1.45487V4.20916H2.65045L2.61804 4.40016C2.59643 4.52629 2.63244 4.65242 2.71167 4.74972C2.79449 4.84702 2.91333 4.90108 3.03937 4.90108H3.26985V16.6132H2.84851C2.69366 16.6132 2.56042 16.7141 2.51361 16.8619L2.16789 18.0007C2.13548 18.1052 2.15709 18.2205 2.22191 18.3106C2.28673 18.4007 2.39117 18.4511 2.5028 18.4511H6.41725C6.52889 18.4511 6.63332 18.3971 6.69814 18.3106C6.76297 18.2205 6.78457 18.1052 6.75216 18.0007L6.40645 16.8619ZM1.83299 6.42906H0.540173V5.71192H1.83299V6.42906ZM5.11364 14.1447L4.14853 13.0816H5.11364V14.1447ZM5.11364 12.1086L4.15213 11.0454H5.11364V12.1086ZM5.11364 10.0724L4.15213 9.00934H5.11364V10.0724ZM5.11364 8.03633L4.15213 6.97323H5.11364V8.03633ZM4.77513 8.46517H3.81362V7.40207L4.77513 8.46517ZM4.77513 10.5049H3.81362V9.44179L4.77513 10.5049ZM4.77513 12.541H3.81362V11.4779L4.77513 12.541ZM3.81002 13.5104L4.77153 14.5735H3.81002V13.5104ZM3.81002 6.42906V5.36596L4.77153 6.42906H3.81002ZM5.11364 15.1177V16.1808L4.15213 15.1177H5.11364ZM5.11364 6.00022L4.11972 4.90108H5.11364V6.00022ZM5.98152 2.44333L5.9239 2.10458C5.88789 1.89917 5.71143 1.75142 5.50256 1.75142H4.73192V0.634257L10.6522 2.43973L5.98152 2.44333ZM4.19174 0.778407V1.74781H3.4355C3.22663 1.74781 3.05018 1.89556 3.01417 2.10098L2.95655 2.43973H1.73936L4.19174 0.778407ZM1.18838 3.6686H0.540173V2.98389H2.86292L2.74408 3.6686H1.18838ZM3.23744 3.99294V3.98933L3.53273 2.28837H5.40893L5.76545 4.35692H3.17262L3.23744 3.99294ZM3.81002 15.5465L4.77153 16.6096H3.81002V15.5465ZM2.76208 17.9106L2.99256 17.1538H5.9311L6.16157 17.9106H2.76208Z" fill="#32297C"/>
</svg>
