<svg width="16" height="16" viewBox="0 0 16 16" fill="none" xmlns="http://www.w3.org/2000/svg">
<path d="M8.85949 8.36877C8.28449 8.36877 7.71886 8.52172 7.21886 8.81487C7.10011 8.88497 7.05949 9.0411 7.12824 9.16218C7.19699 9.28326 7.35011 9.32469 7.46886 9.25459C8.80011 8.46755 10.5064 8.93276 11.2751 10.2933C12.0439 11.6539 11.5907 13.3905 10.2564 14.1744C8.92199 14.9582 7.21886 14.4962 6.45011 13.1356C5.81886 12.0204 6.00011 10.6088 6.89699 9.70068C6.99699 9.6019 7.00011 9.44258 6.90324 9.34062C6.80636 9.23866 6.65011 9.23547 6.55011 9.33425C6.54699 9.33743 6.54699 9.33743 6.54386 9.34062C5.25949 10.6438 5.25324 12.7628 6.53136 14.0724C7.80949 15.382 9.88761 15.3884 11.172 14.0851C12.4564 12.7819 12.4626 10.663 11.1845 9.35336C10.5689 8.72246 9.73136 8.36877 8.85949 8.36877Z" fill="#32297C"/>
<path d="M9.13115 12.7215H8.50303C8.2999 12.7215 8.13428 12.5526 8.13428 12.3455C8.13428 12.2053 8.02178 12.0906 7.88428 12.0906C7.74678 12.0906 7.63428 12.2053 7.63428 12.3455C7.63428 12.8362 8.0249 13.2313 8.50303 13.2313H8.56865V13.7188C8.56865 13.859 8.68115 13.9738 8.81865 13.9738C8.95615 13.9738 9.06865 13.859 9.06865 13.7188V13.2313H9.13115C9.6124 13.2313 9.9999 12.833 9.9999 12.3455C9.9999 11.8548 9.60927 11.4597 9.13115 11.4597H8.50303C8.2999 11.4533 8.1374 11.2813 8.14365 11.071C8.1499 10.8734 8.30615 10.7109 8.50303 10.7045H9.13115C9.33427 10.7045 9.4999 10.8734 9.4999 11.0805C9.4999 11.2207 9.6124 11.3354 9.7499 11.3354C9.8874 11.3354 9.9999 11.2207 9.9999 11.0805C9.9999 10.5898 9.60927 10.1947 9.13115 10.1947H9.06552V9.70718C9.06552 9.56698 8.95302 9.45227 8.81552 9.45227C8.67802 9.45227 8.56553 9.56698 8.56553 9.70718V10.1979H8.50303C8.02178 10.2074 7.64053 10.6121 7.6499 11.1028C7.65928 11.5776 8.03428 11.9631 8.50303 11.9727H9.13115C9.33427 11.9727 9.4999 12.1416 9.4999 12.3487C9.4999 12.5526 9.33427 12.7215 9.13115 12.7215Z" fill="#32297C"/>
<path d="M14.8062 4.69172C14.6719 4.65667 14.5375 4.7427 14.5031 4.87971C14.4719 5.01035 14.5469 5.14418 14.6719 5.18242C15.3469 5.3736 15.5 5.59027 15.5 5.64763C15.5 5.86112 14.5219 6.35819 12.625 6.35819C10.7281 6.35819 9.75 5.85793 9.75 5.64763C9.75 5.43733 10.7281 4.93707 12.625 4.93707C13.075 4.93388 13.5219 4.96893 13.9656 5.03266C14.1031 5.04859 14.2281 4.94981 14.2437 4.80961C14.2594 4.67578 14.1687 4.55152 14.0406 4.52921C13.5719 4.45911 13.1 4.42725 12.625 4.42725C11 4.42725 9.25 4.80961 9.25 5.64763V7.62956C9.25 8.46757 11 8.84994 12.625 8.84994C13.7188 8.84994 14.8656 8.67469 15.5 8.30826V8.62052C15.5 8.83401 14.5219 9.33108 12.625 9.33108C12.4062 9.33108 12.1969 9.32471 11.9906 9.31197C11.8531 9.30241 11.7344 9.41074 11.725 9.55094C11.7156 9.69114 11.8188 9.81223 11.9563 9.82179C11.9563 9.82179 11.9563 9.82179 11.9594 9.82179C12.175 9.83453 12.3969 9.84409 12.625 9.84409C13.7188 9.84409 14.8656 9.66884 15.5 9.29922V9.61148C15.5 9.82497 14.5219 10.3252 12.625 10.3252C12.625 10.3252 12.5219 10.3284 12.475 10.3252C12.3375 10.3252 12.2281 10.4336 12.2188 10.5738C12.2156 10.714 12.3219 10.8319 12.4625 10.8351H12.6281C13.7219 10.8351 14.8688 10.6598 15.5031 10.2902V10.6024C15.5031 10.8159 14.525 11.313 12.6281 11.313C12.4906 11.313 12.3781 11.4277 12.3781 11.5679C12.3781 11.7081 12.4906 11.8228 12.6281 11.8228C13.7219 11.8228 14.8688 11.6476 15.5031 11.2811V11.6189C15.5031 11.8324 14.525 12.3295 12.6281 12.3295H12.5375C12.4031 12.3358 12.2938 12.4442 12.2844 12.5812C12.2844 12.7214 12.3937 12.8361 12.5312 12.8393H12.625C14.25 12.8425 16 12.4601 16 11.6221V5.64763C16 5.36723 15.7937 4.97212 14.8062 4.69172ZM12.625 6.86801C13.7188 6.86801 14.8656 6.69276 15.5 6.32633V6.63859C15.5 6.85208 14.5219 7.35234 12.625 7.35234C10.7281 7.35234 9.75 6.85208 9.75 6.63859V6.32633C10.3844 6.69595 11.5344 6.86801 12.625 6.86801ZM12.625 8.34331C10.7281 8.34331 9.75 7.84304 9.75 7.63274V7.32048C10.3844 7.6901 11.5312 7.86535 12.625 7.86535C13.7188 7.86535 14.8656 7.6901 15.5 7.32048V7.63274C15.5 7.84304 14.5219 8.34331 12.625 8.34331Z" fill="#32297C"/>
<path d="M5.26562 13.0653C5.17813 13.0685 5.0875 13.0717 5 13.0717C2.35 13.0717 0.5 11.5199 0.5 9.30217C0.5 7.49231 1.7 4.81575 3.49062 3.71645C3.51562 3.70052 3.53438 3.6814 3.55625 3.66547H5.6C5.7375 3.66547 5.85 3.55076 5.85 3.41056C5.85 3.27036 5.7375 3.15565 5.6 3.15565H3.87188C3.90625 2.96446 3.86563 2.76691 3.7625 2.6044C2.91875 1.26612 2.75312 0.667086 2.78437 0.510953C2.7875 0.51414 2.79063 0.51414 2.79375 0.51414C3.16875 0.517326 3.54375 0.574681 3.9 0.686204C4.24688 0.794541 4.60938 0.851896 4.97188 0.855082C5.38125 0.845523 5.79063 0.784982 6.1875 0.673459C6.5 0.58424 6.825 0.533258 7.15 0.51414C7.14063 0.705323 6.95312 1.2725 6.30937 2.39729H4.4C4.2625 2.39729 4.15 2.512 4.15 2.6522C4.15 2.7924 4.2625 2.90711 4.4 2.90711H6.0875C6.075 3.0027 6.08125 3.09829 6.10313 3.1907C6.15625 3.40418 6.29375 3.58581 6.48125 3.69733C7.38125 4.29637 8.1125 5.12483 8.59688 6.09986C8.65938 6.22413 8.80937 6.27511 8.93437 6.21138C9.05937 6.14765 9.10625 5.99471 9.04375 5.86725C9.04062 5.86407 9.04063 5.86088 9.0375 5.85451C8.50938 4.79663 7.71563 3.90126 6.7375 3.25761C6.66563 3.21619 6.6125 3.14609 6.59062 3.06643C6.57187 2.99951 6.58437 2.92623 6.62187 2.86569C7.875 0.737186 7.675 0.370753 7.5875 0.21462C7.50938 0.0776062 7.36562 -0.00523957 7.20937 0.00113318C6.825 0.0138787 6.44687 0.0712335 6.075 0.176384C5.71562 0.278348 5.34687 0.335703 4.975 0.345262C4.65312 0.338889 4.3375 0.287907 4.03125 0.192316C3.63125 0.0680471 3.21562 0.00431956 2.79688 0.00113318C2.61562 -0.0116123 2.44063 0.083979 2.35313 0.246484C2.26875 0.402617 2.04688 0.823218 3.34687 2.87525C3.3875 2.93579 3.4 3.00907 3.38438 3.07917C3.3625 3.16202 3.30937 3.23531 3.2375 3.27673C1.3 4.46843 0 7.3521 0 9.30217C0 11.7812 2.10313 13.5815 5 13.5815C5.09687 13.5815 5.19062 13.5783 5.2875 13.5751C5.425 13.5687 5.53437 13.4508 5.52812 13.3106C5.52187 13.1704 5.40313 13.0621 5.26562 13.0653Z" fill="#32297C"/>
</svg>
