<svg width="16" height="15" viewBox="0 0 16 15" fill="none" xmlns="http://www.w3.org/2000/svg">
<path d="M15.6313 5.20061L15.3344 4.07485C15.3094 3.98441 15.2437 3.90645 15.1562 3.86903L13.5719 3.17674L12.6187 1.92312C12.5562 1.84204 12.4594 1.79527 12.3562 1.79839L10.3875 1.87635L9.0875 0.616497C9.04375 0.572839 8.99062 0.544773 8.93125 0.535418L6.21875 0.00528311C6.11563 -0.0134275 6.00937 0.0177569 5.93437 0.0957179L4.06563 2.0198L1.65937 2.83371C1.58125 2.86177 1.51562 2.91791 1.47812 2.99275L0.4125 5.18189C0.171875 5.26921 0 5.49998 0 5.76816V6.54777C0 6.8908 0.28125 7.17146 0.625 7.17146H0.6875L1.70625 11.7524C1.6125 11.9739 1.5625 12.2171 1.5625 12.4728C1.5625 13.505 2.40313 14.3439 3.4375 14.3439C4.36563 14.3439 5.1375 13.6672 5.2875 12.7847H10.7156C10.8656 13.6672 11.6375 14.3439 12.5625 14.3439C13.5969 14.3439 14.4375 13.505 14.4375 12.4728C14.4375 12.2171 14.3875 11.9739 14.2937 11.7524L15.3125 7.17146H15.375C15.7188 7.17146 16 6.8908 16 6.54777V5.76816C16 5.51557 15.8469 5.29728 15.6313 5.20061ZM14.9688 5.14447H13.6844V3.90333L14.7656 4.37734L14.9688 5.14447ZM6.11875 0.800485L7.09688 2.21002L5.6625 3.34825L4.66875 2.2911L6.11875 0.800485ZM9.85625 2.22561L9.34062 2.93662L8.025 2.19755L8.88437 1.28384L9.85625 2.22561ZM11.7937 2.4439L10.3531 4.77338L9.78125 3.38879L10.4281 2.49692L11.7937 2.4439ZM7.49062 4.04678L6.28438 3.65698L7.55312 2.64972L8.78438 3.34201L7.49062 4.04678ZM7.55937 1.77656L6.85625 0.763064L8.25625 1.03437L7.55937 1.77656ZM3.63125 3.91269L2.49062 3.21104L3.84063 2.75263L3.63125 3.91269ZM4.17188 4.44282L4.4375 2.95533L5.31563 3.89086L5.26562 5.14447H4.17188V4.44282ZM5.93125 4.19647L7.15625 4.59251L7.02812 5.14447H5.89375L5.93125 4.19647ZM7.79688 4.58939L9.27188 3.78483L9.83125 5.14447H7.66875L7.79688 4.58939ZM13.0594 5.14447H11.3375L13.0594 4.00624V5.14447ZM12.9219 3.35137L11.3125 4.41476L12.3969 2.65908L12.9219 3.35137ZM1.8875 3.5759L3.54688 4.59251V5.14447H1.125L1.8875 3.5759ZM15.3719 5.76816C15.3719 5.76816 15.375 5.76816 15.3719 5.76816L15.375 6.54777H15.0688H15.0656H0.934375H0.625V5.76816H15.3719ZM3.4375 13.7202C2.74687 13.7202 2.1875 13.162 2.1875 12.4728C2.1875 11.7836 2.74687 11.2254 3.4375 11.2254C4.12813 11.2254 4.6875 11.7836 4.6875 12.4728C4.6875 13.162 4.12813 13.7202 3.4375 13.7202ZM12.5625 13.7202C11.8719 13.7202 11.3125 13.162 11.3125 12.4728C11.3125 11.7836 11.8719 11.2254 12.5625 11.2254C13.2531 11.2254 13.8125 11.7836 13.8125 12.4728C13.8125 13.162 13.2531 13.7202 12.5625 13.7202ZM13.8031 11.0726C13.4719 10.7795 13.0375 10.6017 12.5625 10.6017C11.6344 10.6017 10.8625 11.2784 10.7125 12.161H5.2875C5.1375 11.2784 4.36563 10.6017 3.4375 10.6017C2.9625 10.6017 2.52813 10.7795 2.19688 11.0726L1.60625 8.41884H3.1C3.27187 8.41884 3.4125 8.27851 3.4125 8.10699C3.4125 7.93548 3.27187 7.79515 3.1 7.79515H1.46563L1.32812 7.17146H14.675L13.8031 11.0726Z" fill="#32297C"/>
<path d="M3.4375 12.1606C3.26562 12.1606 3.125 12.301 3.125 12.4725C3.125 12.644 3.26562 12.7843 3.4375 12.7843C3.60937 12.7843 3.75 12.644 3.75 12.4725C3.75 12.301 3.60937 12.1606 3.4375 12.1606Z" fill="#32297C"/>
<path d="M12.5625 12.1606C12.3906 12.1606 12.25 12.301 12.25 12.4725C12.25 12.644 12.3906 12.7843 12.5625 12.7843C12.7344 12.7843 12.875 12.644 12.875 12.4725C12.875 12.301 12.7344 12.1606 12.5625 12.1606Z" fill="#32297C"/>
<path d="M4.50293 8.41861C4.6748 8.41861 4.81543 8.27828 4.81543 8.10677C4.81543 7.93525 4.6748 7.79492 4.50293 7.79492C4.33105 7.79492 4.19043 7.93525 4.19043 8.10677C4.19043 8.27828 4.33105 8.41861 4.50293 8.41861Z" fill="#32297C"/>
</svg>
