<svg width="16" height="19" viewBox="0 0 16 19" fill="none" xmlns="http://www.w3.org/2000/svg">
<path d="M15.1897 10.1752H5.62594V9.66521C5.62594 9.2087 5.25633 8.83778 4.80142 8.83778H2.15726C2.0542 8.83778 1.95824 8.85562 1.86584 8.89128V7.11516C1.86584 6.82984 1.63483 6.59802 1.35051 6.59802H0.515327C0.231008 6.59802 0 6.82984 0 7.11516V15.8709C0 16.0171 0.120835 16.1384 0.266548 16.1384C0.412261 16.1384 0.533096 16.0171 0.533096 15.8709V7.13656H1.3363V17.7255H0.533096V17.1192C0.533096 16.973 0.412261 16.8517 0.266548 16.8517C0.120835 16.8517 0 16.9694 0 17.1192V17.7433C0 18.0286 0.231008 18.2605 0.515327 18.2605H1.35406C1.63838 18.2605 1.86939 18.0286 1.86939 17.7433V16.0314H5.0964V16.4059C5.0964 16.8089 5.42337 17.1406 5.82852 17.1406H14.0595V17.7433C14.0595 18.0286 14.2905 18.2605 14.5749 18.2605H15.4136C15.6979 18.2605 15.9289 18.0286 15.9289 17.7433V16.4059V10.9099C15.9218 10.5033 15.5948 10.1752 15.1897 10.1752ZM5.09285 14.1661H1.86939V11.584H5.0964V14.1661H5.09285ZM2.15726 9.37276H4.80142C4.96135 9.37276 5.09285 9.50472 5.09285 9.66521V11.049H1.86939V9.66521C1.86939 9.50472 1.99733 9.37276 2.15726 9.37276ZM1.86939 15.5V14.7296H5.0964V15.5H1.86939ZM5.62594 16.4095C5.62594 15.7782 5.62594 11.5947 5.62594 10.7102H15.1897C15.2999 10.7102 15.3887 10.7994 15.3887 10.9099V16.4095C15.3887 16.52 15.2999 16.6092 15.1897 16.6092C14.8201 16.6092 6.24434 16.6092 5.82141 16.6092C5.71479 16.6056 5.62594 16.5165 5.62594 16.4095ZM15.3887 17.7255H14.5855V17.1406H15.1897C15.211 17.1406 15.2359 17.1406 15.2572 17.137C15.2643 17.137 15.2679 17.137 15.275 17.137C15.2963 17.1335 15.3141 17.1335 15.3354 17.1263C15.339 17.1263 15.339 17.1263 15.3425 17.1263C15.3603 17.1228 15.3745 17.1192 15.3923 17.1156L15.3887 17.7255Z" fill="#32297C"/>
<path d="M15.5133 6.51956C13.3028 6.51956 13.4485 6.51599 13.3916 6.52669C13.349 6.51599 13.3632 6.51956 12.9758 6.51956L12.3752 6.18431H15.2539C15.6662 6.18431 16.0002 5.84906 16.0002 5.43534C16.0002 5.02163 15.6662 4.68638 15.2539 4.68638H14.9625C14.8025 4.10147 14.5431 3.5558 14.1877 3.06006C14.1024 2.93879 13.9354 2.91383 13.8145 2.99942C13.6937 3.08502 13.6688 3.25265 13.7541 3.37391C14.042 3.77692 14.2623 4.21917 14.408 4.68638H5.59063C6.19125 2.74264 7.96824 1.43373 10.0011 1.43373C11.078 1.43373 12.1299 1.81178 12.958 2.51081C13.0718 2.60711 13.2388 2.58928 13.3347 2.47872C13.4307 2.36815 13.4129 2.19696 13.3028 2.10067C12.5564 1.47653 11.6502 1.07708 10.6906 0.948688V0.691901C10.6906 0.310285 10.3814 0 10.0011 0C9.62084 0 9.31164 0.310285 9.31164 0.691901V0.952255C8.38761 1.07708 7.50622 1.45513 6.7741 2.0436C5.93537 2.72124 5.32053 3.65566 5.03621 4.68994H4.79809C4.38583 4.68994 4.05176 5.0252 4.05176 5.43891C4.05176 5.85262 4.38583 6.18787 4.79809 6.18787H6.3654C6.32986 6.24137 6.29787 6.29843 6.27655 6.35907C6.21968 6.51242 6.27655 6.68718 6.40804 6.76921L8.82475 8.3349C8.86029 8.35987 8.90294 8.37414 8.94914 8.3777C12.496 8.65232 11.604 8.57743 13.0611 8.72365V9.05534C13.0611 9.28003 13.2459 9.46548 13.4698 9.46548H14.0917C14.1237 9.65808 14.2908 9.80787 14.4933 9.80787H15.5133C15.7372 9.80787 15.922 9.62241 15.922 9.39772V6.9297C15.922 6.70502 15.7408 6.51956 15.5133 6.51956ZM9.84474 0.90589V0.691901C9.84474 0.606305 9.91582 0.534975 10.0011 0.534975C10.0864 0.534975 10.1575 0.606305 10.1575 0.691901V0.90589C10.1539 0.90589 10.1504 0.90589 10.1468 0.90589C10.0402 0.902324 9.95136 0.902324 9.84474 0.90589ZM15.2574 5.22492C15.3747 5.22492 15.4707 5.32121 15.4707 5.43891C15.4707 5.5566 15.3747 5.6529 15.2574 5.6529H11.4192C10.7652 5.28912 11.0602 5.39968 10.3139 5.22849H15.2574V5.22492ZM4.58485 5.43891C4.58485 5.32121 4.68081 5.22492 4.79809 5.22492H8.92426C8.87095 5.31765 8.83896 5.48527 8.86029 5.64933H4.79809C4.68081 5.64933 4.58485 5.5566 4.58485 5.43891ZM9.19436 6.18431C9.23701 6.21284 9.28321 6.2378 9.32941 6.2592L9.94781 6.53026C9.79854 6.54096 9.54976 6.55522 8.96335 6.59089L7.97535 6.18431H9.19436ZM9.05931 7.84986L6.86295 6.42683C6.87717 6.41613 6.89139 6.409 6.9056 6.40186C6.96602 6.37333 7.03354 6.37333 7.09396 6.3983L8.81764 7.10803C8.85318 7.1223 8.89583 7.12943 8.93492 7.12586C10.1042 7.05453 10.0473 7.06167 10.3139 7.02957C10.5307 7.0046 10.6977 6.82628 10.7119 6.61229C10.7368 6.2806 10.4596 6.16647 10.2961 6.09871C10.2712 6.08801 10.2463 6.07731 10.2179 6.06661L9.5391 5.76703C9.53554 5.76703 9.53554 5.76346 9.53199 5.76346C9.46091 5.73493 9.40405 5.66716 9.38628 5.58514C9.38628 5.57444 9.38272 5.5673 9.38272 5.5566L10.7084 5.86689L12.7732 7.02243C12.8479 7.06523 12.8976 7.05453 13.0575 7.05453V8.18511C11.5364 8.03175 12.6702 8.12805 9.05931 7.84986ZM13.5977 7.05453H14.0882V8.93051H13.5977C13.5977 8.53819 13.5977 7.39335 13.5977 7.05453ZM15.3889 9.27289H14.6213V9.20156V7.0581H15.3889V9.27289Z" fill="#32297C"/>
</svg>
