<svg width="11" height="11" viewBox="0 0 11 11" fill="none" xmlns="http://www.w3.org/2000/svg">
<path d="M10.9373 9.99691L9.55749 8.58797C9.39605 8.42286 9.19586 8.31939 8.9849 8.27756V5.42885C9.03011 5.43325 9.07531 5.43545 9.12052 5.43545C9.54673 5.43545 9.95787 5.26373 10.2657 4.94892C10.6618 4.54385 10.8254 3.96706 10.7005 3.40569C10.6833 3.32203 10.6187 3.25819 10.5391 3.24058C9.99016 3.11509 9.42619 3.2802 9.03011 3.68527C9.01504 3.70069 8.99997 3.7183 8.9849 3.73371V2.58454C9.31425 2.32696 9.50798 1.92849 9.50798 1.49921C9.50798 1.02809 9.2755 0.594399 8.88373 0.343431C8.8127 0.2972 8.72444 0.2972 8.65341 0.343431C8.26379 0.596601 8.02916 1.02809 8.02916 1.49921C8.02916 1.92849 8.22289 2.32696 8.55223 2.58454V2.87293C8.19921 2.51409 7.69766 2.36879 7.21332 2.48107C7.13153 2.49868 7.0691 2.56472 7.05188 2.64618C6.9421 3.14591 7.08632 3.66106 7.4415 4.0221C7.71703 4.30389 8.08297 4.45579 8.46398 4.45579C8.49411 4.45579 8.52425 4.45359 8.55439 4.45359V5.33638C8.5264 5.30336 8.49627 5.27034 8.46613 5.23952C8.03992 4.80363 7.43504 4.6209 6.84523 4.75079C6.79787 4.40956 6.50943 4.14758 6.16501 4.14758H4.7852L4.14158 3.24278C4.05117 3.11509 3.93708 3.00722 3.81008 2.92356C4.18463 2.76286 4.4494 2.3842 4.4494 1.94391V1.41995H4.77875C4.89714 1.41995 4.99401 1.32089 4.99401 1.19981C4.99401 1.07872 4.89714 0.979658 4.77875 0.979658H4.50752V0.627421C4.50752 0.281789 4.23199 0 3.89403 0H2.87801C2.54005 0 2.26452 0.281789 2.26452 0.627421V0.979658H1.9933C1.8749 0.979658 1.77804 1.07872 1.77804 1.19981C1.77804 1.32089 1.8749 1.41995 1.9933 1.41995H2.37215V1.94611C2.37215 2.28734 2.53144 2.59334 2.77899 2.78707C2.2839 2.94778 1.92441 3.4233 1.92441 3.98027V6.37328C1.92441 6.88843 2.19995 7.33753 2.60678 7.57749V8.98864H0.675913C0.303515 8.98864 0 9.29904 0 9.6799C0 10.0608 0.303515 10.3712 0.675913 10.3712H0.951444C1.06984 10.3712 1.1667 10.2721 1.1667 10.151C1.1667 10.0299 1.06984 9.93087 0.951444 9.93087H0.675913C0.5403 9.93087 0.428365 9.81639 0.428365 9.6777C0.428365 9.53901 0.5403 9.42453 0.675913 9.42453H2.82204C2.94044 9.42453 3.0373 9.32546 3.0373 9.20438V7.73599C3.11695 7.7514 3.2009 7.76021 3.28485 7.76021H3.71106V9.18237C3.71106 9.59624 3.38172 9.93307 2.97703 9.93307H2.67352C2.55512 9.93307 2.45826 10.0321 2.45826 10.1532C2.45826 10.2743 2.55512 10.3734 2.67352 10.3734H2.97703C3.6185 10.3734 4.13943 9.84061 4.13943 9.18457V7.76241H4.92512V9.6799C4.92512 10.0608 5.22864 10.3712 5.60104 10.3712C5.97343 10.3712 6.27695 10.0608 6.27695 9.6799V7.2979C6.27695 6.64186 5.75602 6.1091 5.11455 6.1091H4.07916V5.54552C4.10068 5.55213 4.12221 5.55653 4.14373 5.55653H6.16286C6.33722 5.55653 6.49866 5.48829 6.61921 5.37821C6.63213 5.83392 6.81294 6.26981 7.13583 6.60003C7.47163 6.94346 7.91937 7.13059 8.38218 7.13059C8.43815 7.13059 8.49627 7.12839 8.55223 7.12178V8.27976C8.34343 8.32159 8.1454 8.42506 7.98395 8.59017L6.6106 9.99471C6.52665 10.0806 6.52665 10.2193 6.6106 10.3051C6.69455 10.391 6.83016 10.391 6.91411 10.3051L8.28747 8.90058C8.55223 8.6298 8.98491 8.6298 9.24967 8.90058L10.6295 10.3117C10.6704 10.3536 10.7263 10.3756 10.7823 10.3756C10.8383 10.3756 10.8921 10.3536 10.9352 10.3117C11.0213 10.2237 11.0213 10.0828 10.9373 9.99691ZM8.55223 4.01329C8.25518 4.03971 7.96027 3.93184 7.74501 3.71169C7.52975 3.49154 7.42428 3.19214 7.45011 2.88614C7.74717 2.85972 8.04207 2.96759 8.25733 3.18774C8.47259 3.40789 8.57806 3.70949 8.55223 4.01329ZM9.33578 3.99568C9.59409 3.73151 9.94926 3.60602 10.3066 3.64345C10.3453 4.00889 10.2205 4.37214 9.96218 4.63631C9.70387 4.90049 9.34869 5.02597 8.99136 4.98855C8.98706 4.95112 8.9849 4.9137 8.9849 4.87627V4.83445C8.99136 4.52184 9.11406 4.22243 9.33578 3.99568ZM8.76965 0.80354C8.96553 0.977456 9.07747 1.23063 9.07747 1.50141C9.07747 1.77219 8.96338 2.02316 8.76965 2.19928C8.57376 2.02536 8.46183 1.77219 8.46183 1.50141C8.46183 1.23063 8.57591 0.977456 8.76965 0.80354ZM4.01888 1.94611C4.01888 2.28954 3.7455 2.56692 3.41185 2.56692C3.07605 2.56692 2.80482 2.28734 2.80482 1.94611V1.41995H4.02104V1.94611H4.01888ZM2.69504 0.629623C2.69504 0.526153 2.77684 0.442497 2.87801 0.442497H3.89403C3.9952 0.442497 4.077 0.526153 4.077 0.629623V0.981859H2.69504V0.629623ZM5.1167 6.5472C5.52139 6.5472 5.85074 6.88402 5.85074 7.2979V9.6821C5.85074 9.8208 5.74095 9.93527 5.60319 9.93527C5.46757 9.93527 5.35564 9.8208 5.35564 9.6821V7.54447C5.35564 7.42338 5.25877 7.32432 5.14038 7.32432H3.28485C2.83065 7.32432 2.4518 6.98969 2.37215 6.5472H5.1167ZM6.16501 5.11624H4.24275L3.82515 4.63631C3.7455 4.54605 3.60989 4.53725 3.52164 4.6187C3.43338 4.70016 3.42477 4.83885 3.50441 4.92911L3.65079 5.09862V6.1091H2.35493V3.98247C2.35493 3.53337 2.71226 3.16793 3.15139 3.16793C3.4054 3.16793 3.64649 3.29341 3.79501 3.50255L4.50322 4.49762C4.54411 4.55486 4.60869 4.58788 4.67758 4.58788H6.16717C6.30924 4.58788 6.42548 4.70676 6.42548 4.85206C6.42332 4.99736 6.30708 5.11624 6.16501 5.11624ZM8.54578 6.67928C8.13894 6.72772 7.7364 6.58682 7.4415 6.28742C7.14875 5.98802 7.01098 5.57414 7.05834 5.15806C7.46518 5.10743 7.86771 5.25053 8.16262 5.54993C8.41447 5.8075 8.55223 6.14873 8.55439 6.50317V6.53399C8.55439 6.58242 8.55223 6.63085 8.54578 6.67928Z" fill="#32297C"/>
<path d="M1.81243 9.93335C1.75646 9.93335 1.70049 9.95757 1.65959 9.99719C1.61869 10.039 1.59717 10.0941 1.59717 10.1535C1.59717 10.2129 1.62085 10.268 1.65959 10.3098C1.70049 10.3516 1.75431 10.3736 1.81243 10.3736C1.86839 10.3736 1.92436 10.3494 1.96526 10.3098C2.00616 10.268 2.02769 10.2129 2.02769 10.1535C2.02769 10.0941 2.00401 10.039 1.96526 9.99719C1.92436 9.95757 1.86839 9.93335 1.81243 9.93335Z" fill="#32297C"/>
</svg>
