<svg width="16" height="16" viewBox="0 0 16 16" fill="none" xmlns="http://www.w3.org/2000/svg">
<path d="M4.53319 9.59973H2.3999V10.1331H4.53319V9.59973Z" fill="#32297C"/>
<path d="M15.9733 12.6797L15.1733 11.0798C15.1266 10.9898 15.0366 10.9331 14.9333 10.9331H13.3333V10.1331C13.3333 9.98645 13.2133 9.86646 13.0667 9.86646H7.73346C7.58679 9.86646 7.4668 9.98645 7.4668 10.1331V14.933C7.4668 15.0797 7.58679 15.1997 7.73346 15.1997H8.83677C8.9801 15.7663 9.56009 16.113 10.1267 15.9663C10.5034 15.8697 10.7967 15.5763 10.8934 15.1997H12.8367C12.98 15.7663 13.56 16.113 14.1267 15.9663C14.5033 15.8697 14.7966 15.5763 14.8933 15.1997H15.7333C15.88 15.1997 16 15.0797 16 14.933V12.7997C16 12.7597 15.99 12.7164 15.9733 12.6797ZM9.86675 15.4663C9.57342 15.4663 9.33342 15.2263 9.33342 14.933C9.33342 14.6397 9.57342 14.3997 9.86675 14.3997C10.1601 14.3997 10.4001 14.6397 10.4001 14.933C10.4001 15.2263 10.1601 15.4663 9.86675 15.4663ZM12.8 14.6664H10.8967C10.7767 14.1964 10.3534 13.8664 9.86675 13.8664C9.38009 13.8664 8.9601 14.1964 8.83677 14.6664H8.00012V10.3998H12.8V14.6664ZM14.4 11.4664H14.77L15.3033 12.5331H14.4V11.4664ZM13.8667 15.4663C13.5733 15.4663 13.3333 15.2263 13.3333 14.933C13.3333 14.6397 13.5733 14.3997 13.8667 14.3997C14.16 14.3997 14.4 14.6397 14.4 14.933C14.4 15.2263 14.16 15.4663 13.8667 15.4663ZM15.4666 14.6664H14.8966C14.7766 14.1964 14.3533 13.8664 13.8667 13.8664C13.68 13.8664 13.4933 13.9197 13.3333 14.0164V11.4664H13.8667V12.7997C13.8667 12.9464 13.9867 13.0664 14.1333 13.0664H15.4666V14.6664Z" fill="#32297C"/>
<path d="M6.40002 3.73328H5.8667V4.2666H6.40002V3.73328Z" fill="#32297C"/>
<path d="M7.46643 3.73328H6.93311V4.2666H7.46643V3.73328Z" fill="#32297C"/>
<path d="M8.53332 3.73328H8V4.2666H8.53332V3.73328Z" fill="#32297C"/>
<path d="M9.60022 3.73328H9.06689V4.2666H9.60022V3.73328Z" fill="#32297C"/>
<path d="M14.6901 4.45325L13.8634 3.6266C13.2501 3.01327 12.4168 2.66661 11.5501 2.66661H9.48352L8.23021 0.659987C8.18021 0.583322 8.09688 0.533323 8.00355 0.533323H7.20356C7.0569 0.533323 6.9369 0.65332 6.9369 0.799984C6.9369 0.823317 6.94024 0.843317 6.94357 0.863316L7.39356 2.66661H5.26694L4.52362 0.189996C4.49029 0.0766651 4.38696 0 4.26696 0H2.93365C2.78699 0 2.66699 0.119998 2.66699 0.266661V2.93328H2.67033C2.67033 3.00327 2.69699 3.06994 2.74699 3.12327L4.41362 4.78991C5.10027 5.48323 6.03692 5.86988 7.01357 5.86655H7.0869L6.42358 7.35985C6.36358 7.49319 6.42358 7.65318 6.56024 7.71318C6.56691 7.71651 6.57691 7.71985 6.58358 7.72318L7.38356 7.98984C7.49689 8.02651 7.62022 7.98651 7.68689 7.88984L9.10019 5.86988H14.1101C14.5667 5.86988 14.9367 5.49989 14.9401 5.04323C14.9334 4.81991 14.8467 4.60991 14.6901 4.45325ZM7.85355 1.06665L8.85353 2.66661H7.94355L7.54356 1.06665H7.85355ZM3.20031 0.533323H4.06696L4.70695 2.66661H3.20031V0.533323ZM7.36023 7.41652L7.0269 7.30652L7.90355 5.33323H8.81686L7.36023 7.41652ZM14.3767 5.1499C14.3334 5.26323 14.2234 5.33323 14.1034 5.33323H9.46685L9.54685 5.2199C9.63018 5.0999 9.60018 4.93324 9.48018 4.8499C9.43685 4.8199 9.38352 4.80324 9.32685 4.80324H7.72689C7.62022 4.80324 7.52689 4.86657 7.48356 4.96324L7.3169 5.33656H7.0069C6.17359 5.33989 5.3736 5.00657 4.78361 4.41325L3.57697 3.19994H11.5501C12.1301 3.20327 12.6968 3.38993 13.1668 3.73326H11.2001V4.26658H13.7468L14.3134 4.83324C14.4001 4.91324 14.4234 5.0399 14.3767 5.1499Z" fill="#32297C"/>
<path d="M6.53688 15.2697C6.37022 15.0897 6.14355 14.973 5.90023 14.9397L6.91687 12.0898C6.96687 11.9498 6.89354 11.7998 6.75354 11.7498H6.75021L6.10022 11.5331L5.59356 8.75649C5.57023 8.62982 5.46023 8.53649 5.33024 8.53649H4.26359V7.73651C4.26359 7.58985 4.14359 7.46985 3.99693 7.46985H2.93362C2.78696 7.46985 2.66696 7.58985 2.66696 7.73651V8.53649H1.60031C1.47032 8.53649 1.36032 8.62982 1.33699 8.75649L0.833663 11.5298L0.183677 11.7464C0.0436796 11.7931 -0.0329855 11.9431 0.0136802 12.0831C0.0136802 12.0831 0.0136802 12.0864 0.0170135 12.0864L1.03366 14.9397C0.790331 14.973 0.563669 15.0897 0.397006 15.2697C0.300341 15.393 0.157011 15.463 0.000347137 15.4663V15.9997C0.290341 15.9997 0.563669 15.8763 0.760331 15.663C0.856996 15.543 1.00366 15.4697 1.15699 15.4663C1.21366 15.4663 1.27032 15.4763 1.32032 15.4963C1.32365 15.4963 1.32365 15.4997 1.32699 15.4997C1.41032 15.543 1.48698 15.5963 1.55031 15.663C1.74698 15.873 2.02364 15.9963 2.3103 15.9963C2.60029 15.9963 2.87362 15.873 3.07028 15.6597C3.23695 15.4397 3.55027 15.3997 3.77027 15.5663C3.8036 15.593 3.83693 15.623 3.8636 15.6597C4.05693 15.873 4.33359 15.9963 4.62358 15.9963C4.91358 15.993 5.18691 15.873 5.38357 15.663C5.4469 15.5963 5.52357 15.5397 5.6069 15.4997C5.61023 15.4997 5.61023 15.4963 5.61356 15.4963C5.6669 15.4763 5.72356 15.4663 5.78023 15.4663C5.93356 15.4697 6.08022 15.5397 6.17689 15.663C6.37022 15.8763 6.64688 15.9997 6.93687 15.9997V15.4663C6.78021 15.463 6.63354 15.393 6.53688 15.2697ZM3.20028 7.99984H3.7336V8.53316H3.20028V7.99984ZM3.20028 14.9664C3.01362 15.023 2.84695 15.1297 2.71029 15.2697C2.54363 15.4897 2.22697 15.5297 2.00697 15.363C1.97364 15.3364 1.94031 15.3064 1.91364 15.2697C1.83031 15.1897 1.74031 15.1164 1.64031 15.0564L0.607001 12.1631L3.20028 11.3031V14.9664ZM3.38361 10.6798L1.41032 11.3364L1.82364 9.06648H5.11024L5.52357 11.3364L3.55027 10.6798C3.49694 10.6631 3.43694 10.6631 3.38361 10.6798ZM5.29024 15.0597C5.19357 15.1197 5.10024 15.1897 5.02024 15.2697C4.85358 15.4897 4.54025 15.5297 4.32026 15.363C4.28359 15.3364 4.25359 15.3064 4.22693 15.2697C4.09026 15.1264 3.92027 15.023 3.7336 14.9664V11.3031L6.32355 12.1664L5.29024 15.0597Z" fill="#32297C"/>
<path d="M10.6666 3.73328H10.1333V4.2666H10.6666V3.73328Z" fill="#32297C"/>
</svg>
