<svg width="16" height="16" viewBox="0 0 16 16" fill="none" xmlns="http://www.w3.org/2000/svg">
<path d="M12.2569 8.03203L6.32042 4.6773C6.24298 4.63214 6.14619 4.63214 6.06553 4.6773L0.13228 8.03203C0.0516216 8.07719 0 8.16428 0 8.25783V9.54811C0 9.69004 0.116149 9.80616 0.258108 9.80616C0.303277 9.80616 0.345219 9.79326 0.383935 9.77391L0.774324 9.55456V15.7414C0.774324 15.8834 0.890472 15.9995 1.03243 15.9995H11.3567C11.4987 15.9995 11.6149 15.8834 11.6149 15.7414V9.55133L12.0052 9.77068C12.1278 9.84165 12.2859 9.79649 12.3569 9.67391C12.3795 9.6352 12.3892 9.59004 12.3892 9.54811V8.25783C12.3892 8.16428 12.3376 8.08041 12.2569 8.03203ZM1.29054 14.1931H4.64594V15.4834H1.29054V14.1931ZM3.61351 13.677H2.32297V11.8706H3.61351V13.677ZM7.22702 11.8706V15.4834H5.16216V11.8706H7.22702ZM7.74324 15.4834V14.1931H11.0986V15.4834H7.74324ZM10.0662 13.677H8.77567V11.8706H10.0662V13.677ZM11.0986 13.677H10.5824V11.6126C10.5824 11.4706 10.4663 11.3545 10.3243 11.3545H8.51756C8.3756 11.3545 8.25945 11.4706 8.25945 11.6126V13.677H7.74324V11.8706H8.00134V11.3545H4.38783V11.8706H4.64594V13.677H4.12973V11.6126C4.12973 11.4706 4.01358 11.3545 3.87162 11.3545H2.06486C1.9229 11.3545 1.80676 11.4706 1.80676 11.6126V13.677H1.29054V9.26102L6.19459 6.49014L11.0986 9.26102V13.677ZM11.873 9.10619L6.32042 5.96758C6.24298 5.92242 6.14619 5.92242 6.06553 5.96758L0.516216 9.10619V8.40944L6.19459 5.19987L11.873 8.40944V9.10619Z" fill="#32297C"/>
<path d="M4.64551 9.03198C4.64551 9.88679 5.33917 10.5803 6.19415 10.5803C7.04914 10.5803 7.7428 9.88679 7.7428 9.03198C7.7428 8.17717 7.04914 7.48364 6.19415 7.48364C5.33917 7.48364 4.64551 8.17717 4.64551 9.03198ZM7.22659 9.03198C7.22659 9.60293 6.76522 10.0642 6.19415 10.0642C5.62309 10.0642 5.16172 9.60293 5.16172 9.03198C5.16172 8.46103 5.62309 7.99975 6.19415 7.99975C6.76522 7.99975 7.22659 8.46103 7.22659 9.03198Z" fill="#32297C"/>
<path d="M14.1957 0C13.9279 0 13.6633 0.0612883 13.4213 0.177413C12.5212 -0.251604 11.4468 0.129028 11.0177 1.029C10.8144 1.45156 10.7854 1.93542 10.937 2.38057L10.7338 2.58056H10.5821C10.4402 2.58056 10.324 2.69668 10.324 2.83861V3.35473H9.80782C9.66586 3.35473 9.54971 3.47085 9.54971 3.61278V4.13212L9.03027 4.1418C8.88831 4.14502 8.77539 4.25792 8.77539 4.39985V5.41917C8.77539 5.53852 8.85605 5.64175 8.9722 5.67078L10.0046 5.92883C10.0982 5.95141 10.195 5.92238 10.2595 5.85142L12.305 3.58053C12.6857 3.65472 13.0761 3.6031 13.4246 3.43859C13.4278 3.44182 13.4342 3.44505 13.4375 3.44505L13.4278 3.74826L13.2536 3.89664C13.1471 3.99019 13.1342 4.15147 13.2278 4.26115C13.231 4.26437 13.231 4.2676 13.2342 4.2676L13.5794 4.63533L13.2407 4.97403C13.1406 5.07402 13.1406 5.23853 13.2407 5.33853L13.573 5.67078L13.2407 6.00302C13.1406 6.10302 13.1406 6.26753 13.2407 6.36753C13.2536 6.38043 13.2665 6.39011 13.2794 6.39979L14.0537 6.9159C14.0956 6.94493 14.1473 6.95783 14.1957 6.95783C14.2247 6.95783 14.2505 6.95461 14.2763 6.94493L15.0506 6.68687C15.1571 6.65139 15.2281 6.55462 15.2281 6.44172V3.27731C16.0476 2.70636 16.2444 1.58059 15.6733 0.761265C15.3378 0.290313 14.7861 0 14.1957 0ZM12.2857 3.04506C12.1921 3.01603 12.0889 3.04506 12.0211 3.11925L9.97882 5.39014L9.29161 5.21595V4.65146L9.81105 4.64178C9.95301 4.63855 10.0659 4.52565 10.0659 4.38372V3.86761H10.5821C10.7241 3.86761 10.8403 3.75149 10.8403 3.60956V3.09667C10.908 3.09667 10.9758 3.07086 11.0242 3.02248L11.421 2.62572C11.4952 2.5483 11.5178 2.4354 11.4726 2.33541C11.1758 1.69349 11.4533 0.932227 12.0985 0.632237C12.3502 0.516112 12.6373 0.483855 12.9083 0.541917C12.2211 1.24189 12.2211 2.36121 12.9083 3.06119C12.6986 3.10957 12.4889 3.10312 12.2857 3.04506ZM14.8409 2.92248C14.7603 2.96764 14.7119 3.05474 14.7119 3.14506V6.26431L14.2344 6.42237L13.8279 6.15141L14.1215 5.85787C14.2215 5.75787 14.2215 5.59336 14.1215 5.49336L13.7859 5.16112L14.1182 4.82887C14.2182 4.72887 14.2182 4.57081 14.1247 4.47082L13.7924 4.11599L13.8472 4.06761C13.9021 4.01922 13.9343 3.95471 13.9375 3.88052L13.9569 3.28054C13.9601 3.16764 13.8892 3.06441 13.7827 3.02571C13.1084 2.79668 12.7438 2.06445 12.9729 1.39028C13.2019 0.716105 13.9343 0.351601 14.6086 0.580626C15.2829 0.80965 15.6475 1.54188 15.4184 2.21605C15.3184 2.51604 15.1119 2.76442 14.8409 2.92248Z" fill="#32297C"/>
<path d="M14.1959 1.80639C14.481 1.80639 14.7121 1.57532 14.7121 1.29028C14.7121 1.00524 14.481 0.77417 14.1959 0.77417C13.9108 0.77417 13.6797 1.00524 13.6797 1.29028C13.6797 1.57532 13.9108 1.80639 14.1959 1.80639Z" fill="#32297C"/>
</svg>
