<svg width="56" height="56" viewBox="0 0 56 56" fill="none" xmlns="http://www.w3.org/2000/svg">
<path d="M54.3794 18.7267H1.62061C5.40196 7.74276 15.8457 0 28.0901 0C40.3344 0 50.5981 7.74276 54.3794 18.7267Z" fill="#06B8E3"/>
<path d="M54.3794 37.2733C50.5981 48.0772 40.1544 56 27.91 56C15.6656 56 5.40196 48.2572 1.62061 37.2733H54.3794Z" fill="#3D9B37"/>
<path d="M56 28.09C56 31.3312 55.4598 34.5723 54.3794 37.4534H1.62058C0.540193 34.3923 0 31.3312 0 28.09C0 24.8489 0.540193 21.6077 1.62058 18.7267H54.3794C55.4598 21.6077 56 24.6688 56 28.09Z" fill="#EC2938"/>
<path d="M27.0095 34.9325C23.2282 34.9325 19.987 31.8714 19.987 27.91C19.987 23.9486 23.0481 20.8875 27.0095 20.8875C28.9902 20.8875 30.7909 21.7878 32.0513 23.0482C30.6108 20.8875 28.0899 19.447 25.2089 19.447C20.5272 19.447 16.7458 23.2283 16.7458 27.91C16.7458 32.5917 20.5272 36.373 25.2089 36.373C28.0899 36.373 30.6108 34.9325 32.0513 32.7717C30.7909 34.2122 28.9902 34.9325 27.0095 34.9325Z" fill="white"/>
<path d="M34.5724 23.2283L35.4728 25.7492L37.8136 24.6688L36.7332 27.1897L39.2541 28.09L36.7332 28.9904L37.8136 31.3312L35.4728 30.2508L34.5724 32.7717L33.6721 30.2508L31.1512 31.3312L32.4117 28.9904L29.7107 28.09L32.4117 27.1897L31.1512 24.6688L33.6721 25.7492L34.5724 23.2283Z" fill="white"/>
</svg>
