<svg width="56" height="56" viewBox="0 0 56 56" fill="none" xmlns="http://www.w3.org/2000/svg">
<path d="M18.5228 1.72305V17.2307L6.03052 10.7692C9.0459 6.46151 13.7844 3.44613 18.5228 1.72305Z" fill="#04247B"/>
<path d="M49.9697 10.7692L37.0466 17.2307V1.72305C42.2159 3.44613 46.5235 6.46151 49.9697 10.7692Z" fill="#04247B"/>
<path d="M18.5228 38.7692V54.2769C13.3536 52.5538 9.0459 49.1077 6.03052 45.2308L18.5228 38.7692Z" fill="#04247B"/>
<path d="M49.9701 45.2308C46.5239 49.5385 42.2162 52.5538 37.4778 54.2769V38.7692L49.9701 45.2308Z" fill="#04247B"/>
<path d="M56 28C56 29.7231 56 31.8769 55.5692 33.6C55.1385 34.8923 55.1385 36.1846 54.7077 37.4769H46.9538L53.4154 40.4923C52.5538 42.2154 51.6923 43.9385 50.4 45.2308L37.0462 38.7692V54.2769C35.7538 54.7077 34.4615 55.1385 33.1692 55.1385C31.8769 55.5692 29.7231 56 28 56C26.2769 56 24.1231 56 22.4 55.5692C21.1077 55.1385 19.8154 55.1385 18.5231 54.7077V38.7692L6.03077 45.2308C5.6 44.8 5.16923 44.3692 4.73846 43.5077L17.6615 37.0462H9.47692L3.01538 40.4923C1.72308 38.3385 1.29231 36.1846 0.430769 33.6C0 31.8769 0 29.7231 0 28C0 25.8462 0 24.1231 0.430769 22.4C0.861539 21.1077 0.861539 19.8154 1.29231 18.5231H9.04615L3.01538 15.5077C3.87692 13.7846 4.73846 12.0615 6.03077 10.7692L18.5231 17.2308V1.72308C19.8154 1.29231 21.1077 0.861539 22.4 0.861539C24.1231 0 25.8462 0 28 0C29.7231 0 31.8769 0 33.6 0.430769C34.8923 0.861539 36.1846 0.861539 37.4769 1.29231V17.2308L49.9692 10.7692C50.4 11.2 50.8308 11.6308 51.2615 12.4923L38.3385 18.9538H46.5231L52.9846 15.9385C54.2769 18.0923 54.7077 20.2462 55.5692 22.8308C55.5692 24.1231 56 25.8462 56 28Z" fill="white"/>
<path d="M9.4765 18.5231H1.72266C2.15343 17.2308 2.58419 16.3693 3.01496 15.5077L9.4765 18.5231Z" fill="#CE152A"/>
<path d="M54.2761 37.0462C53.8453 38.3385 53.4145 39.2 52.9838 40.0616L46.5222 37.0462H54.2761Z" fill="#CE152A"/>
<path d="M52.9843 15.5076L46.5228 18.523H38.3381L51.2612 12.0615C51.692 13.3538 52.5535 14.2153 52.9843 15.5076Z" fill="#CE152A"/>
<path d="M17.6623 37.0462L4.73919 43.5077C4.30842 42.6462 3.44688 41.3539 3.01611 40.4923L9.47765 37.4769H17.6623V37.0462Z" fill="#CE152A"/>
<path d="M56 28C56 29.7231 56 31.8769 55.5692 33.6H33.6V55.5692C31.8769 55.5692 29.7231 56 28 56C26.2769 56 24.1231 56 22.4 55.5692V33.6H0.430769C0 31.8769 0 29.7231 0 28C0 25.8462 0 24.1231 0.430769 22.4H22.4V0.430769C24.1231 0 25.8462 0 28 0C29.7231 0 31.8769 0 33.6 0.430769V22.4H55.5692C55.5692 24.1231 56 25.8462 56 28Z" fill="#CE152A"/>
</svg>
