<svg width="56" height="56" viewBox="0 0 56 56" fill="none" xmlns="http://www.w3.org/2000/svg">
<path d="M28 56C43.464 56 56 43.464 56 28C56 12.536 43.464 0 28 0C12.536 0 0 12.536 0 28C0 43.464 12.536 56 28 56Z" fill="#DD2911"/>
<path d="M16.0794 9.98016L17.7427 14.9703H23.0101L18.5744 18.0198L20.2378 23.0099L16.0794 19.9604L11.921 23.0099L13.3071 18.0198L9.14868 14.9703H14.416L16.0794 9.98016Z" fill="#FEDD19"/>
<path d="M28.8317 8.03958V9.70295L30.2179 10.2574L28.5545 10.8119V12.4752L27.4456 11.0891L25.7822 11.3663L26.8911 9.98017L26.0595 8.59404L27.7228 9.14849L28.8317 8.03958Z" fill="#FEDD19"/>
<path d="M34.3767 13.3069L33.545 14.693L34.9311 16.0792L32.9905 15.8019L32.1589 17.1881V15.5247L30.2183 15.2475L31.8816 14.4158L31.6044 12.7524L32.9905 13.8614L34.3767 13.3069Z" fill="#FEDD19"/>
<path d="M34.9308 21.3465L33.5446 22.1782L34.0991 23.8416L32.7129 23.0099L31.3268 24.1188L31.8813 22.4554L30.4951 21.3465H32.1585L32.7129 19.6831L33.2674 21.3465H34.9308Z" fill="#FEDD19"/>
<path d="M30.2182 26.8911L28.5549 27.4455V29.1089L27.7232 27.7228L26.0598 28.2772L27.1687 26.8911L26.0598 25.2277L27.7232 26.0594L28.8321 24.6732V26.3366L30.2182 26.8911Z" fill="#FEDD19"/>
</svg>
