<svg width="30" height="8" viewBox="0 0 30 8" fill="none" xmlns="http://www.w3.org/2000/svg">
<path d="M3.68071 7.36143C1.65057 7.36143 0 5.71086 0 3.68071C0 1.65057 1.65057 0 3.68071 0C5.71086 0 7.36143 1.65057 7.36143 3.68071C7.36143 5.71086 5.71086 7.36143 3.68071 7.36143ZM3.68071 1.22499C2.3292 1.22499 1.22499 2.32345 1.22499 3.68071C1.22499 5.03798 2.32345 6.13644 3.68071 6.13644C5.03798 6.13644 6.13644 5.03798 6.13644 3.68071C6.13644 2.32345 5.03223 1.22499 3.68071 1.22499Z" fill="#B12233"/>
<path d="M14.723 7.36143C12.6928 7.36143 11.0422 5.71086 11.0422 3.68071C11.0422 1.65057 12.6928 0 14.723 0C16.7531 0 18.4037 1.65057 18.4037 3.68071C18.4037 5.71086 16.7531 7.36143 14.723 7.36143ZM14.723 1.22499C13.3714 1.22499 12.2672 2.32345 12.2672 3.68071C12.2672 5.03798 13.3657 6.13644 14.723 6.13644C16.0802 6.13644 17.1787 5.03798 17.1787 3.68071C17.1787 2.32345 16.0745 1.22499 14.723 1.22499Z" fill="#B12233"/>
<path d="M25.7649 7.36143C23.7348 7.36143 22.0842 5.71086 22.0842 3.68071C22.0842 1.65057 23.7348 0 25.7649 0C27.7951 0 29.4457 1.65057 29.4457 3.68071C29.4457 5.71086 27.7951 7.36143 25.7649 7.36143ZM25.7649 1.22499C24.4134 1.22499 23.3092 2.32345 23.3092 3.68071C23.3092 5.03798 24.4077 6.13644 25.7649 6.13644C27.1165 6.13644 28.2207 5.03798 28.2207 3.68071C28.2207 2.32345 27.1165 1.22499 25.7649 1.22499Z" fill="#B12233"/>
</svg>
