<svg width="65" height="64" viewBox="0 0 65 64" fill="none" xmlns="http://www.w3.org/2000/svg">
<g filter="url(#filter0_d_42_929)">
<path d="M22.6667 1.76101C11.7484 5.63522 4 15.8491 4 28.1761C4 40.5031 11.7484 50.717 22.6667 54.5912C25.4843 55.6478 28.6541 56 32.1761 56V0C28.6541 0 25.4843 0.704403 22.6667 1.76101Z" fill="white"/>
<path d="M41.3333 1.76101C38.5156 0.704403 35.3458 0 32.176 0V56C35.3458 56 38.5156 55.2956 41.6855 54.239C52.6037 50.3648 60.3521 39.7987 60.3521 27.8239C60.3521 15.8491 52.2515 5.63522 41.3333 1.76101Z" fill="#CE142A"/>
<path d="M29.0061 13.0315H24.7797C24.7797 12.3271 24.0753 11.6227 23.3709 11.6227V7.39624H19.1445V11.6227C18.4401 11.6227 17.7357 12.3271 17.7357 13.0315H13.5093V17.2579H17.7357C17.7357 17.9623 18.4401 18.6667 19.1445 18.6667V22.8931H23.3709V19.0189C24.0753 19.0189 24.7797 18.3145 24.7797 17.6101H29.0061V13.0315Z" fill="#E50E2D"/>
<path d="M19.497 22.8931V18.6667H19.1448C18.4404 18.3145 18.0882 17.9623 18.0882 17.2579V16.9057H13.8618V13.3837H18.0882V13.0315C18.0882 12.3271 18.7926 11.9749 19.1448 11.9749H19.497V7.74846H23.019V11.9749H23.3712C24.0757 11.9749 24.4279 12.6793 24.4279 13.0315V13.3837H28.6543V16.9057H24.4279V17.2579C24.4279 17.9623 23.7234 18.3145 23.3712 18.3145H23.019V22.5409H19.497V22.8931Z" fill="#97867A"/>
<path d="M19.497 22.5409V18.6667H19.1448C18.7926 18.3145 18.0882 17.9623 18.0882 17.2579V16.9057H13.8618V13.3837H18.0882V13.0314C18.0882 12.327 18.7926 11.9748 19.1448 11.9748H19.497V8.10063H23.019V12.327H23.3712C24.0757 12.327 24.4279 13.0314 24.4279 13.3837V13.7359H28.6543V17.2579H24.4279V17.6101C24.4279 18.3145 23.7234 18.6667 23.3712 18.6667H23.019V22.8931H19.497V22.5409Z" fill="#CBCBCB"/>
<path d="M21.2579 17.6101C19.8491 17.6101 18.7925 16.5535 18.7925 15.1447C18.7925 13.7359 19.8491 12.6793 21.2579 12.6793C22.6667 12.6793 23.7233 13.7359 23.7233 15.1447C23.7233 16.5535 22.6667 17.6101 21.2579 17.6101ZM21.2579 13.0315C19.8491 13.0315 19.1447 14.0881 19.1447 15.1447C19.1447 16.5535 19.8491 17.6101 21.2579 17.6101C22.6667 17.6101 23.3711 16.5535 23.3711 15.4969C23.3711 14.0881 22.6667 13.0315 21.2579 13.0315Z" fill="#95877C"/>
<path d="M21.2579 18.3145C19.4969 18.3145 18.0881 16.9057 18.0881 15.1447C18.0881 13.3837 19.4969 11.9749 21.2579 11.9749C23.019 11.9749 24.4278 13.3837 24.4278 15.1447C24.4278 16.9057 23.019 18.3145 21.2579 18.3145ZM21.2579 12.3271C19.4969 12.3271 18.4403 13.7359 18.4403 15.1447C18.4403 16.9057 19.8491 17.9623 21.2579 17.9623C23.019 17.9623 24.0756 16.5535 24.0756 15.1447C24.0756 13.7359 23.019 12.3271 21.2579 12.3271Z" fill="#95877C"/>
<path d="M19.1447 11.9749C19.4969 12.3271 19.4969 12.6793 19.1447 13.0315C18.7925 13.3837 18.4403 13.3837 18.0881 13.3837C17.7359 13.0315 17.7359 12.6793 18.0881 12.3271C18.4403 11.9749 19.1447 11.9749 19.1447 11.9749Z" fill="#97857C"/>
<path d="M18.0879 12.6793L18.7923 13.0315L18.4401 12.3271L18.7923 13.0315L18.0879 12.6793Z" fill="#CBCBCB"/>
<path d="M18.7996 11.9675L18.5505 12.2165L19.0486 12.7146L19.2977 12.4656L18.7996 11.9675Z" fill="#CBCBCB"/>
<path d="M24.4277 13.3836C24.0755 13.7358 23.7233 13.7358 23.3711 13.3836C23.0189 13.0314 23.0189 12.6792 23.3711 12.327C23.7233 11.9748 24.0755 11.9748 24.4277 12.327C24.7799 12.6792 24.7799 13.0314 24.4277 13.3836Z" fill="#97857C"/>
<path d="M23.7231 11.9749V12.3271V12.6793L24.0753 12.3271L23.3708 13.0315V12.6793L23.7231 11.9749Z" fill="#CBCBCB"/>
<path d="M24.3763 12.7898L23.8782 13.2879L24.1272 13.5369L24.6253 13.0388L24.3763 12.7898Z" fill="#CBCBCB"/>
<path d="M23.3711 18.3145C23.0189 18.3145 23.0189 17.6101 23.3711 17.2579C23.7233 16.9057 24.0755 16.9057 24.4277 17.2579C24.7799 17.6101 24.7799 17.9623 24.4277 18.3145C24.0755 18.6667 23.3711 18.6667 23.3711 18.3145Z" fill="#97857C"/>
<path d="M24.4271 17.6101V17.9623L23.7227 17.6101L24.0749 17.9623V18.3145L23.7227 17.6101V17.2579L24.4271 17.6101Z" fill="#CBCBCB"/>
<path d="M23.3045 17.6201L23.0554 17.8691L23.5535 18.3672L23.8025 18.1182L23.3045 17.6201Z" fill="#CBCBCB"/>
<path d="M18.0881 17.2579C18.4403 16.9057 18.7925 16.9057 19.1447 17.2579C19.4969 17.6101 19.4969 17.9623 19.1447 18.3145C19.1447 18.6667 18.4403 18.6667 18.0881 18.3145C17.7359 17.9623 17.7359 17.6101 18.0881 17.2579Z" fill="#97857C"/>
<path d="M18.7926 18.3145H18.4404L18.7926 17.9623L18.4404 18.3145V17.9623L19.1448 17.6101L18.7926 18.3145Z" fill="#CBCBCB"/>
<path d="M18.719 17.2881L18.2332 17.7982L18.4882 18.0411L18.974 17.531L18.719 17.2881Z" fill="#CBCBCB"/>
<path d="M18.4399 15.4969C18.7921 15.4969 18.7921 15.4969 18.4399 15.4969L18.7921 15.1447C18.7921 15.4969 18.7921 15.4969 18.4399 15.4969C18.7921 15.4969 18.7921 15.4969 18.4399 15.4969C18.7921 15.4969 18.7921 15.4969 18.4399 15.4969H18.7921V15.8491L18.4399 15.4969C18.4399 15.8491 18.4399 15.8491 18.4399 15.4969C18.4399 15.8491 18.4399 15.8491 18.4399 15.4969Z" fill="black"/>
<path d="M18.4399 14.7925C18.7921 14.4403 18.7921 14.4403 18.4399 14.7925C18.7921 14.4403 18.7921 14.7925 18.7921 14.7925C18.7921 15.1447 18.7921 15.1447 18.4399 14.7925C18.7921 15.1447 18.7921 15.1447 18.4399 14.7925C18.4399 15.1447 18.4399 15.1447 18.4399 14.7925C18.4399 15.1447 18.4399 15.1447 18.4399 14.7925ZM18.4399 14.7925C18.4399 15.1447 18.7921 15.1447 18.4399 14.7925C18.7921 15.1447 18.7921 15.1447 18.7921 15.1447C18.7921 14.7925 18.7921 14.7925 18.4399 14.7925C18.7921 14.7925 18.7921 14.7925 18.4399 14.7925Z" fill="black"/>
<path d="M18.7921 14.088C19.1443 14.4403 19.1443 14.4403 18.7921 14.088C19.1443 14.4403 19.1443 14.088 18.7921 14.088C19.1443 14.4403 19.1443 14.4403 18.7921 14.088C19.1443 14.4403 19.1443 14.4403 18.7921 14.088C18.7921 14.088 18.4399 14.088 18.7921 14.088H18.4399H18.7921C18.7921 13.7358 18.7921 13.7358 18.7921 14.088C18.7921 13.7358 18.7921 13.7358 18.7921 14.088C18.7921 13.7358 18.7921 13.7358 18.7921 14.088C18.7921 13.7358 18.7921 13.7358 18.7921 14.088C18.7921 13.7358 19.1443 13.7358 18.7921 14.088C19.1443 14.088 19.1443 14.088 18.7921 14.088C19.1443 14.088 19.1443 14.088 18.7921 14.088C18.7921 14.088 19.1443 14.088 18.7921 14.088C19.1443 14.088 19.1443 14.088 18.7921 14.088C19.1443 14.088 19.1443 14.088 18.7921 14.088C19.1443 14.088 19.1443 14.088 18.7921 14.088C19.1443 14.088 19.1443 14.088 18.7921 14.088C19.1443 14.088 19.1443 14.088 18.7921 14.088C19.1443 14.088 19.1443 14.088 18.7921 14.088C19.1443 14.088 19.1443 14.088 18.7921 14.088H19.1443H18.7921ZM18.7921 14.088C18.7921 13.7358 18.7921 13.7358 18.7921 14.088V14.088Z" fill="black"/>
<path d="M19.4966 13.0314C19.8488 13.0314 19.8488 13.0314 19.4966 13.0314C19.8488 13.0314 19.8488 13.0314 19.4966 13.0314C19.8488 13.0314 19.4966 13.0314 19.4966 13.0314C19.4966 13.3836 19.4966 13.3836 19.4966 13.3836C19.8488 13.0314 19.8488 13.0314 19.4966 13.0314C19.8488 13.0314 19.8488 13.0314 19.4966 13.0314C19.8488 13.0314 19.8488 13.0314 19.4966 13.0314L19.8488 13.3836C19.4966 13.3836 19.4966 13.3836 19.4966 13.0314C19.4966 13.0314 19.8488 13.0314 19.4966 13.0314C19.8488 13.0314 19.8488 13.0314 19.4966 13.0314Z" fill="black"/>
<path d="M20.2009 12.6793L20.5531 13.0315H20.2009V12.6793V13.0315V12.6793Z" fill="black"/>
<path d="M20.9053 12.327L21.2575 12.6792V13.0314H20.9053V12.327Z" fill="black"/>
<path d="M22.6667 12.6793V13.0315H22.3145L22.6667 12.6793C22.3145 13.0315 22.3145 13.0315 22.3145 13.0315C22.3145 13.0315 22.3145 13.0315 22.6667 12.6793Z" fill="black"/>
<path d="M23.0185 13.0314V13.7358C23.3707 13.3836 23.3707 13.3836 23.0185 13.0314C23.3707 13.3836 23.3707 13.3836 23.0185 13.0314C23.3707 13.3836 23.3707 13.3836 23.0185 13.0314C23.3707 13.3836 23.3707 13.3836 23.0185 13.0314L23.3707 13.3836L23.0185 13.7358V13.0314C22.6663 13.3836 22.6663 13.3836 22.6663 13.3836L23.0185 13.0314Z" fill="black"/>
<path d="M23.7228 13.7358V14.088C23.7228 14.088 23.7228 14.088 23.7228 13.7358L23.3706 14.088L23.7228 13.7358C23.3706 13.7358 23.3706 13.7358 23.7228 13.7358C23.3706 13.7358 23.3706 13.7358 23.7228 13.7358Z" fill="black"/>
<path d="M23.7231 14.7925C23.7231 14.4403 23.7231 14.7925 23.7231 14.7925C23.3709 14.7925 23.3709 14.7925 23.7231 14.7925C23.3709 14.4403 23.3709 14.4403 23.7231 14.7925C23.7231 14.4403 23.7231 14.4403 23.7231 14.7925C24.0753 14.4403 24.0753 14.4403 23.7231 14.7925C24.0753 14.4403 24.0753 14.4403 23.7231 14.7925C24.0753 14.7925 24.0753 14.7925 23.7231 14.7925C24.0753 14.7925 24.0753 14.7925 23.7231 14.7925C24.0753 14.7925 24.0753 14.7925 23.7231 14.7925C24.0753 14.7925 24.0753 14.7925 23.7231 14.7925C24.0753 14.7925 24.0753 14.7925 23.7231 14.7925ZM23.7231 14.4403C23.7231 14.7925 23.7231 14.7925 23.7231 14.4403C23.7231 14.7925 23.7231 14.7925 23.7231 14.4403C24.0753 14.7925 24.0753 14.7925 23.7231 14.4403C24.0753 14.7925 24.0753 14.7925 23.7231 14.4403Z" fill="black"/>
<path d="M24.0751 15.1447C24.0751 15.4969 24.0751 15.4969 24.0751 15.1447C24.0751 15.4969 24.0751 15.4969 24.0751 15.1447C24.0751 15.4969 24.0751 15.4969 24.0751 15.1447C24.0751 15.4969 24.0751 15.4969 24.0751 15.1447V15.4969C24.0751 15.4969 24.0751 15.4969 24.0751 15.1447V15.4969V15.1447L23.7229 15.4969V15.1447H24.0751Z" fill="black"/>
<path d="M21.6102 17.9623C21.258 17.6101 21.258 17.6101 21.6102 17.9623C21.258 17.6101 21.258 17.6101 21.258 17.6101H20.9058H21.258C21.258 18.3145 21.258 18.3145 21.6102 17.9623Z" fill="black"/>
<path d="M22.3144 17.6101C22.3144 17.9623 22.3144 17.9623 22.3144 17.6101C21.9622 17.9623 21.9622 17.9623 22.3144 17.6101C21.9622 17.6101 21.9622 17.6101 22.3144 17.6101Z" fill="black"/>
<path d="M20.5535 17.6101C20.5535 17.9623 20.5535 17.9623 20.5535 17.6101C20.2013 17.9623 20.2013 17.9623 20.5535 17.6101C20.2013 17.6101 20.2013 17.6101 20.5535 17.6101Z" fill="black"/>
<path d="M22.3142 15.1447C22.3142 14.7925 22.6664 14.7925 22.3142 15.1447C22.6664 14.7925 22.6664 14.7925 22.3142 15.1447C22.6664 14.7925 23.0186 14.7925 23.0186 14.7925C23.0186 14.7925 23.0186 14.7925 23.3708 14.7925C23.3708 14.7925 23.3708 14.4403 23.0186 14.4403C22.6664 14.4403 22.6664 14.0881 22.6664 14.4403C22.3142 14.7925 22.3142 14.7925 22.3142 15.1447C22.3142 14.7925 21.962 14.4403 21.962 14.4403C21.962 14.4403 21.962 14.0881 21.2576 14.0881C21.2576 13.7359 21.2576 13.7359 20.9054 13.7359C20.9054 13.7359 20.5532 13.7359 20.5532 14.0881C20.5532 14.0881 20.5532 14.0881 20.201 14.0881C20.201 14.0881 20.201 14.0881 19.8488 14.0881C19.8488 14.0881 19.8488 14.0881 19.4966 14.0881C19.4966 14.4403 19.4966 14.4403 19.4966 14.4403C19.4966 14.4403 19.4966 14.4403 19.8488 14.4403C19.8488 14.4403 19.8488 14.4403 20.201 14.4403V14.7925L20.5532 15.1447L20.201 15.4969C20.201 15.4969 20.201 15.4969 19.8488 15.4969C19.8488 15.4969 19.8488 15.4969 19.8488 15.8491V15.4969C19.8488 15.4969 19.8488 15.4969 20.201 15.4969C20.201 15.8491 20.5532 15.8491 20.5532 15.8491V16.2013C20.5532 16.2013 20.5532 16.2013 20.9054 16.2013H20.201H20.5532H20.201H22.6664L23.0186 15.8491C23.0186 15.8491 23.0186 15.8491 22.6664 15.8491H23.0186C23.0186 15.8491 23.3708 15.8491 23.3708 15.4969C23.3708 15.4969 23.3708 15.4969 23.3708 15.1447H23.723H24.0752C24.0752 15.1447 24.0752 15.1447 24.0752 15.4969C24.0752 15.4969 24.0752 15.1447 24.4274 14.7925C24.4274 14.7925 24.0752 14.7925 24.0752 15.1447C24.0752 15.1447 24.0752 15.1447 24.0752 14.7925C22.3142 15.4969 22.3142 15.1447 22.3142 15.1447C22.6664 15.4969 22.6664 15.4969 22.6664 15.4969C22.6664 15.4969 22.6664 15.4969 23.0186 15.4969C23.0186 15.4969 23.0186 15.1447 22.6664 15.1447C22.6664 15.1447 22.6664 15.1447 22.3142 15.1447C22.6664 15.1447 22.6664 15.1447 22.3142 15.1447ZM21.2576 14.0881C21.2576 13.7359 21.2576 13.7359 21.2576 14.0881V14.0881ZM20.201 14.7925C20.201 14.7925 20.201 14.4403 20.201 14.7925C20.5532 14.4403 20.5532 14.4403 20.5532 14.4403C20.5532 14.4403 20.5532 14.4403 20.5532 14.7925C20.5532 14.7925 20.5532 14.7925 20.5532 15.1447L20.201 14.7925ZM21.962 15.8491H21.6098C21.6098 15.8491 21.6098 15.8491 21.962 15.8491C21.6098 15.8491 21.6098 15.8491 21.962 15.8491C21.6098 15.8491 21.6098 15.8491 21.962 15.8491C21.6098 15.8491 21.6098 15.8491 21.962 15.8491C21.962 16.2013 21.962 16.2013 21.962 16.2013C21.962 16.2013 21.962 16.2013 21.6098 16.2013C21.962 16.2013 21.962 16.2013 21.962 15.8491C21.6098 15.8491 21.6098 15.8491 21.6098 15.8491C21.6098 15.8491 21.6098 15.8491 21.2576 15.8491V15.4969C21.2576 15.4969 21.6098 15.4969 21.962 15.8491C21.6098 15.4969 21.6098 15.4969 21.962 15.8491C21.962 15.4969 21.962 15.4969 21.962 15.8491C21.962 15.4969 21.962 15.4969 21.962 15.8491C21.962 15.4969 21.962 15.8491 21.962 15.8491ZM20.9054 16.2013C20.9054 16.2013 20.9054 15.8491 20.9054 16.2013C21.2576 15.8491 21.2576 16.2013 20.9054 16.2013C21.2576 16.2013 21.2576 16.2013 20.9054 16.2013C20.9054 16.2013 21.2576 16.2013 20.9054 16.2013C21.2576 16.2013 21.2576 16.2013 20.9054 16.2013C21.2576 16.2013 21.2576 16.2013 21.2576 16.2013C21.2576 16.2013 21.2576 16.2013 21.6098 16.2013C21.6098 16.2013 21.6098 16.2013 21.2576 16.2013C21.2576 16.2013 21.2576 16.2013 20.9054 16.2013C21.2576 16.2013 21.2576 16.2013 20.9054 16.2013Z" fill="#95867C"/>
<path d="M22.3142 15.1447C22.3142 14.7925 22.6664 14.7925 22.3142 15.1447C22.6664 14.7925 22.6664 14.7925 22.3142 15.1447C22.6664 14.7925 23.0186 14.7925 23.0186 14.7925C23.0186 14.7925 23.0186 14.7925 23.3708 14.7925C23.3708 14.7925 23.3708 14.4403 23.0186 14.4403C22.6664 14.4403 22.6664 14.0881 22.6664 14.4403C22.3142 14.7925 22.3142 14.7925 22.3142 15.1447C22.3142 14.7925 21.962 14.4403 21.962 14.4403C21.962 14.4403 21.962 14.0881 21.2576 14.0881C21.2576 13.7359 21.2576 13.7359 20.9054 13.7359C20.9054 13.7359 20.5532 13.7359 20.5532 14.0881C20.5532 14.0881 20.5532 14.0881 20.201 14.0881C20.201 14.0881 20.201 14.0881 19.8488 14.0881C19.8488 14.0881 19.8488 14.0881 19.4966 14.0881C19.4966 14.4403 19.4966 14.4403 19.4966 14.4403C19.4966 14.4403 19.4966 14.4403 19.8488 14.4403C19.8488 14.4403 19.8488 14.4403 20.201 14.4403V14.7925L20.5532 15.1447L20.201 15.4969C20.201 15.4969 20.201 15.4969 19.8488 15.4969C19.8488 15.4969 19.8488 15.4969 19.8488 15.8491V15.4969C19.8488 15.4969 19.8488 15.4969 20.201 15.4969C20.201 15.8491 20.5532 15.8491 20.5532 15.8491V16.2013C20.5532 16.2013 20.5532 16.2013 20.9054 16.2013H20.201H20.5532H20.201H22.6664L23.0186 15.8491C23.0186 15.8491 23.0186 15.8491 22.6664 15.8491H23.0186C23.0186 15.8491 23.3708 15.8491 23.3708 15.4969C23.3708 15.4969 23.3708 15.4969 23.3708 15.1447H23.723H24.0752C24.0752 15.1447 24.0752 15.1447 24.0752 15.4969C24.0752 15.4969 24.0752 15.1447 24.4274 14.7925C24.4274 14.7925 24.0752 14.7925 24.0752 15.1447C24.0752 15.1447 24.0752 15.1447 24.0752 14.7925C22.3142 15.4969 22.3142 15.1447 22.3142 15.1447C22.6664 15.4969 22.6664 15.4969 22.6664 15.4969C22.6664 15.4969 22.6664 15.4969 23.0186 15.4969C23.0186 15.4969 23.0186 15.1447 22.6664 15.1447C22.6664 15.1447 22.6664 15.1447 22.3142 15.1447C22.6664 15.1447 22.6664 15.1447 22.3142 15.1447ZM21.6098 13.7359C21.962 13.7359 22.3142 14.0881 22.3142 14.0881C22.3142 14.0881 22.3142 14.0881 21.962 14.4403H21.6098C21.2576 14.0881 21.6098 13.7359 21.6098 13.7359ZM21.2576 14.4403C21.2576 14.7925 21.2576 14.7925 21.2576 14.4403C21.2576 14.7925 21.2576 14.4403 21.2576 14.4403ZM20.9054 13.7359C20.9054 13.7359 21.2576 14.0881 20.9054 13.7359C21.2576 14.0881 21.2576 14.4403 21.2576 14.4403C21.2576 14.0881 21.2576 14.0881 20.9054 13.7359C21.2576 14.0881 21.2576 14.0881 20.9054 13.7359C21.2576 14.0881 21.2576 14.0881 20.9054 13.7359C21.2576 14.0881 21.2576 14.0881 21.2576 14.4403C20.9054 14.4403 20.9054 14.4403 20.9054 13.7359C20.9054 14.0881 20.9054 14.0881 20.9054 13.7359C20.9054 14.0881 20.9054 14.0881 20.9054 13.7359C20.9054 14.0881 20.9054 14.0881 20.9054 13.7359ZM21.2576 13.3837C21.2576 13.7359 21.2576 13.7359 21.2576 13.3837C21.2576 13.7359 21.2576 13.7359 21.2576 13.3837C21.2576 13.7359 21.2576 13.7359 21.2576 13.3837C21.2576 13.7359 21.2576 13.7359 21.2576 13.3837ZM21.2576 13.7359C21.2576 14.0881 21.2576 14.0881 21.2576 14.0881C21.2576 14.0881 20.9054 13.7359 21.2576 13.7359C20.9054 13.7359 20.9054 13.7359 21.2576 13.7359ZM21.2576 14.0881C21.2576 13.7359 21.2576 13.7359 21.2576 14.0881V14.0881ZM21.6098 13.7359C21.6098 13.7359 21.2576 14.0881 21.2576 14.4403V14.0881C21.2576 14.0881 21.2576 13.7359 21.6098 13.7359ZM21.2576 13.3837C21.6098 13.3837 21.6098 13.3837 21.2576 13.3837C21.6098 13.7359 21.6098 13.7359 21.6098 13.7359L21.2576 13.3837C20.9054 13.3837 20.9054 13.3837 21.2576 13.3837C20.9054 13.3837 21.2576 13.3837 21.2576 13.3837ZM20.5532 13.7359C20.5532 13.3837 20.5532 13.3837 20.5532 13.7359C20.9054 13.3837 20.9054 13.3837 20.9054 13.3837C20.9054 13.7359 20.5532 13.7359 20.5532 13.7359ZM19.8488 14.7925C19.8488 14.7925 19.4966 14.7925 19.8488 14.7925C19.4966 14.7925 19.4966 14.7925 19.8488 14.7925C19.4966 14.7925 19.4966 14.7925 19.4966 14.4403C19.4966 14.4403 19.4966 14.4403 19.4966 14.0881C19.4966 14.0881 19.4966 14.0881 19.8488 14.0881H20.201C20.201 14.0881 20.201 14.0881 19.8488 14.0881C20.5532 13.7359 20.5532 14.0881 20.201 14.0881C20.201 14.4403 20.201 14.4403 19.8488 14.7925ZM20.201 14.7925C20.201 14.7925 20.201 14.4403 20.201 14.7925C20.5532 14.4403 20.5532 14.4403 20.5532 14.4403C20.5532 14.4403 20.5532 14.4403 20.5532 14.7925C20.5532 14.7925 20.5532 14.7925 20.5532 15.1447L20.201 14.7925ZM20.201 14.7925L20.5532 15.1447V15.4969H20.201V14.7925ZM19.8488 15.4969C19.8488 15.4969 19.8488 15.8491 19.8488 15.4969C19.8488 15.8491 19.8488 15.8491 19.8488 15.4969C19.8488 15.8491 19.8488 15.8491 19.8488 15.8491C19.4966 15.8491 19.8488 15.8491 19.8488 15.4969C19.4966 15.4969 19.4966 15.4969 19.4966 15.4969C19.4966 15.4969 19.4966 15.4969 19.4966 15.1447C19.8488 15.4969 19.8488 15.4969 19.8488 15.4969C19.8488 15.4969 20.201 15.4969 19.8488 15.4969C20.201 15.4969 20.201 15.4969 19.8488 15.4969C20.201 15.4969 20.201 15.4969 19.8488 15.4969C20.201 15.4969 20.201 15.4969 19.8488 15.4969C20.201 15.8491 20.201 15.4969 19.8488 15.4969ZM20.9054 16.5535C20.5532 16.5535 20.5532 16.5535 20.9054 16.5535C20.5532 16.2013 20.5532 16.2013 20.9054 16.5535V16.2013C20.5532 16.2013 20.5532 16.2013 20.5532 15.8491C20.5532 15.8491 20.5532 15.4969 20.9054 15.4969H21.2576V15.1447C21.2576 15.1447 21.2576 15.1447 21.6098 15.1447C21.6098 15.1447 21.962 15.1447 22.3142 15.1447V15.4969H21.962V15.8491C20.9054 15.8491 20.9054 16.2013 20.9054 16.5535C20.9054 16.2013 20.9054 16.2013 20.9054 16.5535H21.2576H21.6098C21.6098 16.5535 21.6098 16.5535 21.2576 16.5535H20.9054ZM21.962 15.8491H21.6098C21.6098 15.8491 21.6098 15.8491 21.962 15.8491C21.6098 15.8491 21.6098 15.8491 21.962 15.8491C21.6098 15.8491 21.6098 15.8491 21.962 15.8491C21.6098 15.8491 21.6098 15.8491 21.962 15.8491C21.962 16.2013 21.962 16.2013 21.962 16.2013C21.962 16.2013 21.962 16.2013 21.6098 16.2013C21.962 16.2013 21.962 16.2013 21.962 15.8491C21.6098 15.8491 21.6098 15.8491 21.6098 15.8491C21.6098 15.8491 21.6098 15.8491 21.2576 15.8491V15.4969C21.2576 15.4969 21.6098 15.4969 21.962 15.8491C21.6098 15.4969 21.6098 15.4969 21.962 15.8491C21.962 15.4969 21.962 15.4969 21.962 15.8491C21.962 15.4969 21.962 15.4969 21.962 15.8491C21.962 15.4969 21.962 15.8491 21.962 15.8491ZM20.9054 16.2013C20.9054 16.2013 20.9054 15.8491 20.9054 16.2013C21.2576 15.8491 21.2576 16.2013 20.9054 16.2013C21.2576 16.2013 21.2576 16.2013 20.9054 16.2013C20.9054 16.2013 21.2576 16.2013 20.9054 16.2013C21.2576 16.2013 21.2576 16.2013 20.9054 16.2013C21.2576 16.2013 21.2576 16.2013 21.2576 16.2013C21.2576 16.2013 21.2576 16.2013 21.6098 16.2013C21.6098 16.2013 21.6098 16.2013 21.2576 16.2013C21.2576 16.2013 21.2576 16.2013 20.9054 16.2013C21.2576 16.2013 21.2576 16.2013 20.9054 16.2013ZM21.6098 16.2013C21.2576 16.2013 21.2576 16.2013 21.2576 16.2013C21.2576 16.2013 21.2576 16.2013 21.2576 15.8491C21.2576 15.8491 21.2576 15.8491 21.2576 15.4969C21.2576 15.8491 21.2576 15.8491 21.6098 16.2013H21.2576H21.6098C21.6098 15.8491 21.6098 15.8491 21.6098 16.2013C21.962 16.2013 21.962 16.2013 21.6098 16.2013C21.962 16.2013 21.962 16.2013 21.6098 16.2013C21.962 16.2013 21.6098 16.2013 21.6098 16.2013ZM21.2576 16.5535C20.9054 16.5535 20.9054 16.5535 21.2576 16.5535C20.9054 16.5535 20.9054 16.5535 21.2576 16.5535C20.9054 16.5535 21.2576 16.5535 21.2576 16.5535ZM22.6664 16.9057H20.201H20.9054H20.5532H21.2576C21.2576 16.9057 21.2576 16.9057 21.6098 16.9057C21.6098 16.9057 21.6098 16.9057 21.962 16.9057C21.962 16.9057 21.962 16.9057 22.3142 16.9057H22.6664C22.6664 16.9057 22.6664 16.9057 23.0186 16.9057C22.3142 16.5535 22.3142 16.5535 22.6664 16.9057C22.6664 16.5535 22.6664 16.9057 22.6664 16.9057ZM22.6664 15.4969C22.6664 15.8491 22.6664 15.8491 22.6664 15.4969C22.6664 15.8491 22.6664 15.4969 22.6664 15.4969ZM22.3142 16.2013C22.3142 15.8491 22.3142 15.8491 22.3142 16.2013C22.3142 15.8491 22.3142 15.8491 22.3142 16.2013C22.6664 15.8491 22.6664 15.8491 22.3142 16.2013C22.6664 15.8491 22.6664 15.8491 22.3142 16.2013C22.6664 15.8491 22.6664 15.8491 22.3142 16.2013C22.6664 15.8491 22.6664 15.8491 22.3142 16.2013C22.6664 15.8491 22.6664 15.8491 22.3142 16.2013C22.3142 15.8491 22.3142 15.8491 22.3142 15.8491V16.2013C23.0186 15.8491 22.6664 16.2013 22.3142 16.2013C22.6664 16.2013 22.6664 15.8491 22.3142 16.2013C22.6664 15.8491 22.6664 15.8491 22.3142 16.2013C22.6664 15.8491 22.6664 15.8491 22.3142 16.2013C22.6664 16.2013 22.6664 16.2013 22.3142 16.2013C22.6664 16.2013 22.6664 16.2013 22.3142 16.2013C22.6664 16.2013 22.6664 16.2013 22.3142 16.2013C22.6664 16.2013 22.6664 16.2013 22.3142 16.2013C22.6664 16.2013 22.6664 16.2013 22.3142 16.2013C22.6664 16.2013 22.6664 16.2013 22.6664 16.2013L22.3142 16.5535C22.6664 16.5535 22.6664 16.5535 22.3142 16.2013C22.6664 16.5535 22.6664 16.5535 22.3142 16.2013C22.6664 16.5535 22.6664 16.5535 22.3142 16.2013C22.6664 16.5535 22.6664 16.5535 22.6664 16.5535H22.3142C22.3142 16.5535 21.962 16.5535 21.6098 16.5535V16.9057H21.2576C21.2576 16.9057 21.2576 16.9057 21.2576 16.5535H21.6098C21.6098 16.5535 21.6098 16.5535 21.962 16.5535C21.962 16.2013 21.962 16.2013 22.3142 16.2013C21.962 16.2013 21.962 16.2013 21.962 16.2013C21.962 16.2013 21.962 16.2013 21.6098 16.2013H21.962C21.962 15.8491 22.3142 15.8491 22.3142 16.2013ZM21.6098 16.5535C21.962 16.5535 21.962 16.5535 21.6098 16.5535C21.962 16.5535 21.962 16.5535 21.6098 16.5535C21.962 16.5535 21.6098 16.5535 21.6098 16.5535ZM22.6664 15.4969C22.6664 15.4969 22.3142 15.8491 22.3142 16.2013C22.3142 16.2013 22.3142 16.2013 21.962 16.2013C22.3142 15.8491 22.3142 15.8491 22.6664 15.4969C22.3142 15.4969 22.3142 15.4969 22.6664 15.4969ZM21.962 15.4969C22.3142 15.8491 22.3142 15.8491 21.962 15.4969C22.3142 15.8491 22.3142 15.8491 21.962 15.4969C21.962 15.8491 21.962 15.8491 21.962 15.4969C21.6098 15.4969 21.6098 15.4969 21.6098 15.1447C21.6098 15.1447 20.9054 15.1447 20.9054 14.7925C20.9054 14.7925 20.9054 14.7925 20.9054 14.4403V14.0881L20.5532 14.4403C20.5532 14.4403 20.201 14.4403 20.5532 14.0881C20.5532 14.0881 20.5532 13.7359 20.9054 13.7359C20.9054 13.3837 21.2576 13.3837 21.2576 13.3837V13.7359C21.2576 13.7359 21.2576 14.0881 21.6098 14.0881C21.6098 14.0881 21.962 14.0881 21.962 14.4403C21.6098 15.1447 21.962 15.1447 21.962 15.4969ZM22.3142 15.1447C22.6664 15.1447 22.6664 15.1447 22.3142 15.1447C22.6664 15.1447 22.6664 15.1447 22.6664 15.1447C22.6664 15.1447 22.6664 15.1447 23.0186 15.1447C23.0186 15.1447 23.0186 15.1447 23.0186 15.4969C23.0186 15.4969 23.0186 15.4969 22.6664 15.4969C22.6664 15.4969 22.6664 15.1447 22.3142 15.1447C22.6664 15.1447 22.6664 15.1447 22.3142 15.1447C21.962 15.1447 21.962 15.4969 21.962 15.4969C21.962 15.4969 21.962 15.4969 21.962 15.1447C21.6098 14.7925 21.6098 14.7925 21.2576 14.7925H21.6098C21.6098 14.7925 21.962 14.7925 21.962 14.4403C21.962 14.7925 22.3142 14.7925 22.3142 14.7925C22.3142 14.7925 22.3142 14.7925 22.6664 14.7925H23.0186C23.0186 14.7925 23.3708 14.7925 23.3708 15.1447H23.0186C22.6664 14.7925 22.3142 14.7925 22.3142 15.1447Z" fill="#231F20"/>
</g>
<defs>
<filter id="filter0_d_42_929" x="0" y="0" width="64.3521" height="64" filterUnits="userSpaceOnUse" color-interpolation-filters="sRGB">
<feFlood flood-opacity="0" result="BackgroundImageFix"/>
<feColorMatrix in="SourceAlpha" type="matrix" values="0 0 0 0 0 0 0 0 0 0 0 0 0 0 0 0 0 0 127 0" result="hardAlpha"/>
<feOffset dy="4"/>
<feGaussianBlur stdDeviation="2"/>
<feComposite in2="hardAlpha" operator="out"/>
<feColorMatrix type="matrix" values="0 0 0 0 0 0 0 0 0 0 0 0 0 0 0 0 0 0 0.25 0"/>
<feBlend mode="normal" in2="BackgroundImageFix" result="effect1_dropShadow_42_929"/>
<feBlend mode="normal" in="SourceGraphic" in2="effect1_dropShadow_42_929" result="shape"/>
</filter>
</defs>
</svg>
