<svg width="56" height="56" viewBox="0 0 56 56" fill="none" xmlns="http://www.w3.org/2000/svg">
<path d="M28.1761 0C15.849 0 5.6352 7.74843 1.76099 18.6667H54.5912C50.717 7.74843 40.1509 0 28.1761 0Z" fill="white"/>
<path d="M56 28.1761C56 25.0063 55.2956 21.8365 54.239 18.6667H1.40881C0.704403 21.4843 0 24.6541 0 28.1761C0 31.3459 0.704403 34.5157 1.76101 37.6855H54.5912C55.6478 34.5157 56 31.3459 56 28.1761Z" fill="#05539D"/>
<path d="M1.76099 37.3333C5.6352 48.2516 16.2012 56 28.1761 56C40.1509 56 50.717 48.2516 54.5912 37.3333H1.76099Z" fill="#DF3A3D"/>
</svg>
