<svg width="56" height="56" viewBox="0 0 56 56" fill="none" xmlns="http://www.w3.org/2000/svg">
<path d="M0 28.1761C0 40.5031 7.74843 50.717 18.6667 54.5912V1.761C7.74843 5.63522 0 15.8491 0 28.1761Z" fill="#062493"/>
<path d="M56.0002 28.1761C56.0002 15.8491 48.2517 5.63522 37.3335 1.761V54.5912C48.2517 50.717 56.0002 40.1509 56.0002 28.1761Z" fill="#EC2938"/>
<path d="M28.1762 0C24.6542 0 21.4844 0.704403 18.6667 1.76101V54.5912C21.4844 55.6478 24.6542 56 28.1762 56C31.346 56 34.5158 55.2956 37.6856 54.239V1.40881C34.5158 0.704403 31.346 0 28.1762 0Z" fill="white"/>
</svg>
