<svg width="56" height="57" viewBox="0 0 56 57" fill="none" xmlns="http://www.w3.org/2000/svg">
<path d="M26.4151 0L1.76101 36.9811C0.704403 34.1635 0 31.3459 0 28.1761C0 13.0314 11.6226 1.0566 26.4151 0Z" fill="#043F85"/>
<path d="M55.9998 28.1761C55.9998 30.2893 55.6476 32.0503 55.2954 33.8113L9.50928 49.3082C7.74827 47.8994 6.33947 46.1384 4.93066 44.0251L49.6602 10.2138C53.8866 15.1446 55.9998 21.4843 55.9998 28.1761Z" fill="#D52827"/>
<path d="M50.0122 10.2138L4.93046 44.0252C3.52166 41.912 2.46505 39.4465 1.40845 37.3333L26.4147 0C26.7669 0 27.4713 0 28.1757 0C36.9808 0 44.7292 4.22642 50.0122 10.2138Z" fill="#FBD759"/>
<path d="M55.6476 33.8113C54.591 38.39 52.4778 42.6164 49.6602 46.1384L13.3835 52.1258C11.9747 51.4214 10.5659 50.3648 9.50928 49.3082L55.6476 33.8113Z" fill="white"/>
<path d="M49.6601 46.1384C44.3771 52.478 36.6287 56.3522 28.1758 56.3522C22.8928 56.3522 17.962 54.9434 13.7356 52.1258L49.6601 46.1384Z" fill="#00793D"/>
</svg>
