<svg width="56" height="56" viewBox="0 0 56 56" fill="none" xmlns="http://www.w3.org/2000/svg">
<path d="M53.8001 38.8C53.2001 40.3 52.4001 41.7 51.5001 43.1H4.4001C3.5001 41.7 2.8001 40.3 2.1001 38.8H53.8001Z" fill="white"/>
<path d="M55.2001 34.5C54.9001 36 54.4 37.4 53.8 38.8H2.20005C1.60005 37.4 1.20005 36 0.800049 34.5H55.2001Z" fill="#B12233"/>
<path d="M55.9001 30.2C55.8001 31.7 55.6001 33.1 55.2001 34.5H0.800098C0.500098 33.1 0.200098 31.7 0.100098 30.2H55.9001Z" fill="white"/>
<path d="M51.5999 43.1C50.5999 44.7 49.4999 46.1 48.1999 47.4H7.7999C6.4999 46.1 5.3999 44.6 4.3999 43.1H51.5999Z" fill="#B12233"/>
<path d="M42.9001 51.7C38.6001 54.4 33.5001 56 28.0001 56C22.5001 56 17.4001 54.4 13.1001 51.7H42.9001Z" fill="#B12233"/>
<path d="M48.2001 47.4C46.6001 49 44.9001 50.5 42.9001 51.7H13.1C11.2 50.5 9.40005 49 7.80005 47.4H48.2001Z" fill="white"/>
<path d="M48.2001 8.60002H7.80005C9.40005 7.00002 11.1 5.50002 13.1 4.30002H42.9001C44.8001 5.50002 46.6001 7.00002 48.2001 8.60002Z" fill="white"/>
<path d="M42.9001 4.30001H13.1001C14.0001 3.70001 14.9001 3.20001 15.9001 2.80001C16.0001 2.80001 16.1001 2.70001 16.2001 2.70001C16.5001 2.50001 16.8001 2.40001 17.2001 2.30001C17.3001 2.20001 17.5001 2.20001 17.6001 2.10001C20.8001 0.800008 24.4001 0.100008 28.0001 0.100008C33.5001 8.20309e-06 38.6001 1.60001 42.9001 4.30001Z" fill="#B12233"/>
<path d="M51.5999 12.9H4.3999C4.5999 12.5 4.8999 12.1 5.1999 11.8C5.1999 11.8 5.1999 11.7 5.2999 11.7C5.9999 10.6 6.8999 9.60001 7.7999 8.60001H48.1999C49.4999 9.90001 50.5999 11.4 51.5999 12.9Z" fill="#B12233"/>
<path d="M55.2001 21.5H0.800049C1.20005 20 1.60005 18.6 2.20005 17.2H53.9001C54.4001 18.6 54.9001 20.1 55.2001 21.5Z" fill="#B12233"/>
<path d="M53.7999 17.2H2.19995C2.29995 16.9 2.39995 16.6 2.59995 16.4C2.89995 15.7 3.19995 15.1 3.59995 14.5C3.89995 14 4.19995 13.5 4.49995 13H51.7C52.5 14.3 53.2 15.7 53.7999 17.2Z" fill="white"/>
<path d="M55.9001 25.9H0.100098C0.100098 25.7 0.100098 25.5 0.200098 25.4C0.200098 24.9 0.300098 24.4 0.400098 23.8C0.500098 23.1 0.700098 22.3 0.800098 21.6H55.3001C55.6001 22.9 55.8001 24.4 55.9001 25.9Z" fill="white"/>
<path d="M56 28C56 28.7 56 29.4 55.9 30.2H0.1C0 29.4 0 28.7 0 28C0 27.3 0 26.6 0.1 25.9H55.9C56 26.6 56 27.3 56 28Z" fill="#B12233"/>
<path d="M28 0V30.2H0.1C0 29.4 0 28.7 0 28C0 27.3 0 26.6 0.1 25.9C0.1 25.7 0.1 25.5 0.2 25.4C0.2 24.9 0.3 24.4 0.4 23.8C0.5 23.1 0.7 22.3 0.8 21.6C1.2 20.1 1.6 18.7 2.2 17.3C2.3 17 2.4 16.7 2.6 16.5C2.9 15.8 3.2 15.2 3.6 14.6C3.9 14.1 4.2 13.6 4.5 13.1C4.7 12.7 5 12.3 5.3 12C5.3 12 5.3 11.9 5.4 11.9C6 10.6 6.9 9.6 7.8 8.6C9.4 7 11.1 5.5 13.1 4.3C14 3.7 14.9 3.2 15.9 2.8C16 2.8 16.1 2.7 16.2 2.7C16.5 2.5 16.8 2.4 17.2 2.3C17.3 2.2 17.5 2.2 17.6 2.1C20.8 0.7 24.3 0 28 0Z" fill="#3C3B6D"/>
<path d="M24.4998 1.39999L24.7998 2.59999H26.0998L25.0998 3.39999L25.4998 4.59999L24.4998 3.89999L23.3998 4.59999L23.7998 3.39999L22.7998 2.59999H24.0998L24.4998 1.39999Z" fill="white"/>
<path d="M18.2999 4.30001L18.3999 4.60001L17.9999 4.30001L17.3999 3.80001L16.7999 4.30001L16.3999 4.60001L16.4999 4.30001L16.7999 3.40001L15.8999 2.80001C15.9999 2.80001 16.0999 2.70001 16.1999 2.70001H16.9999L17.0999 2.30001C17.1999 2.20001 17.3999 2.20001 17.4999 2.10001L17.6999 2.70001H18.9999L17.9999 3.50001L18.2999 4.30001Z" fill="white"/>
<path d="M24.4998 7.5L24.7998 8.7H26.0998L25.0998 9.4L25.4998 10.6L24.4998 9.9L23.3998 10.6L23.7998 9.4L22.7998 8.7H24.0998L24.4998 7.5Z" fill="white"/>
<path d="M17.4 7.5L17.8 8.7H19L18 9.4L18.4 10.6L17.4 9.9L16.3 10.6L16.7 9.4L15.7 8.7H17L17.4 7.5Z" fill="white"/>
<path d="M10.2999 7.5L10.6999 8.7H11.8999L10.8999 9.4L11.2999 10.6L10.2999 9.9L9.19985 10.6L9.59985 9.4L8.59985 8.7H9.89985L10.2999 7.5Z" fill="white"/>
<path d="M24.5 13.5L24.8 14.7H26.1L25.1 15.5L25.5 16.7L24.5 15.9L23.4 16.7L23.8 15.5L22.8 14.7H24.1L24.5 13.5Z" fill="white"/>
<path d="M17.4 13.5L17.8 14.7H19L18 15.5L18.4 16.7L17.4 15.9L16.3 16.7L16.7 15.5L15.7 14.7H17L17.4 13.5Z" fill="white"/>
<path d="M10.3001 13.5L10.7001 14.7H11.9001L10.9001 15.5L11.3001 16.7L10.3001 15.9L9.2001 16.7L9.6001 15.5L8.6001 14.7H9.9001L10.3001 13.5Z" fill="white"/>
<path d="M3.8 15.5L4.2 16.7L3.2 16L2.5 16.5C2.8 15.8 3.1 15.2 3.5 14.6L3.6 14.8H4.9L3.8 15.5Z" fill="white"/>
<path d="M24.5 19.5L24.8 20.7H26.1L25.1 21.5L25.5 22.7L24.5 21.9L23.4 22.7L23.8 21.5L22.8 20.7H24.1L24.5 19.5Z" fill="white"/>
<path d="M17.4 19.5L17.8 20.7H19L18 21.5L18.4 22.7L17.4 21.9L16.3 22.7L16.7 21.5L15.7 20.7H17L17.4 19.5Z" fill="white"/>
<path d="M10.3001 19.5L10.7001 20.7H11.9001L10.9001 21.5L11.3001 22.7L10.3001 21.9L9.2001 22.7L9.6001 21.5L8.6001 20.7H9.9001L10.3001 19.5Z" fill="white"/>
<path d="M3.2 19.5L3.6 20.7H4.9L3.8 21.5L4.2 22.7L3.2 21.9L2.2 22.7L2.6 21.5L1.5 20.7H2.8L3.2 19.5Z" fill="white"/>
<path d="M24.5 25.5L24.8 26.8H26.1L25.1 27.5L25.5 28.7L24.5 28L23.4 28.7L23.8 27.5L22.8 26.8H24.1L24.5 25.5Z" fill="white"/>
<path d="M17.4 25.5L17.8 26.8H19L18 27.5L18.4 28.7L17.4 28L16.3 28.7L16.7 27.5L15.7 26.8H17L17.4 25.5Z" fill="white"/>
<path d="M10.3001 25.5L10.7001 26.8H11.9001L10.9001 27.5L11.3001 28.7L10.3001 28L9.2001 28.7L9.6001 27.5L8.6001 26.8H9.9001L10.3001 25.5Z" fill="white"/>
<path d="M3.2 25.5L3.6 26.8H4.9L3.8 27.5L4.2 28.7L3.2 28L2.2 28.7L2.6 27.5L1.5 26.8H2.8L3.2 25.5Z" fill="white"/>
<path d="M20.9 22.5L21.2999 23.7H22.6L21.5 24.5L21.9 25.7L20.9 25L19.9 25.7L20.2999 24.5L19.2 23.7H20.5L20.9 22.5Z" fill="white"/>
<path d="M13.7999 22.5L14.1999 23.7H15.4999L14.4999 24.5L14.8999 25.7L13.7999 25L12.7999 25.7L13.1999 24.5L12.0999 23.7H13.3999L13.7999 22.5Z" fill="white"/>
<path d="M6.69985 22.5L7.09985 23.7H8.39985L7.39985 24.5L7.79985 25.7L6.69985 25L5.69985 25.7L6.09985 24.5L5.09985 23.7H6.29985L6.69985 22.5Z" fill="white"/>
<path d="M0.299951 24.5L0.699951 25.7L0.199951 25.3C0.199951 24.8 0.299951 24.3 0.399951 23.7H1.39995L0.299951 24.5Z" fill="white"/>
<path d="M20.9 16.5L21.2999 17.7H22.6L21.5 18.5L21.9 19.7L20.9 18.9L19.9 19.7L20.2999 18.5L19.2 17.7H20.5L20.9 16.5Z" fill="white"/>
<path d="M13.7999 16.5L14.1999 17.7H15.4999L14.4999 18.5L14.8999 19.7L13.7999 18.9L12.7999 19.7L13.1999 18.5L12.0999 17.7H13.3999L13.7999 16.5Z" fill="white"/>
<path d="M6.69985 16.5L7.09985 17.7H8.39985L7.39985 18.5L7.79985 19.7L6.69985 18.9L5.69985 19.7L6.09985 18.5L5.09985 17.7H6.29985L6.69985 16.5Z" fill="white"/>
<path d="M20.9 10.5L21.2999 11.7H22.6L21.5 12.4L21.9 13.7L20.9 12.9L19.9 13.7L20.2999 12.4L19.2 11.7H20.5L20.9 10.5Z" fill="white"/>
<path d="M13.7999 10.5L14.1999 11.7H15.4999L14.4999 12.4L14.8999 13.7L13.7999 12.9L12.7999 13.7L13.1999 12.4L12.0999 11.7H13.3999L13.7999 10.5Z" fill="white"/>
<path d="M7.49995 12.9L7.69995 13.6L6.69995 12.9L5.69995 13.6L5.89995 12.9L6.09995 12.4L5.19995 11.7C5.19995 11.7 5.19995 11.6 5.29995 11.6H6.39995L6.79995 10.4L7.19995 11.6H8.49995L7.49995 12.3V12.9Z" fill="white"/>
<path d="M20.9 4.39999L21.2999 5.69999H22.6L21.5 6.39999L21.9 7.59999L20.9 6.89999L19.9 7.59999L20.2999 6.39999L19.2 5.69999H20.5L20.9 4.39999Z" fill="white"/>
<path d="M13.7999 4.39999L14.1999 5.69999H15.4999L14.4999 6.39999L14.8999 7.59999L13.7999 6.89999L12.7999 7.59999L13.1999 6.39999L12.0999 5.69999H13.3999L13.7999 4.39999Z" fill="white"/>
</svg>
