<svg width="30" height="29" viewBox="0 0 30 29" fill="none" xmlns="http://www.w3.org/2000/svg">
<path d="M29.3365 27.487L25.6429 23.7155C25.2107 23.2735 24.6748 22.9965 24.1101 22.8845V15.2589C24.2311 15.2706 24.3521 15.2765 24.4732 15.2765C25.6141 15.2765 26.7147 14.8169 27.5387 13.9742C28.5989 12.8898 29.0368 11.3458 28.7026 9.8431C28.6565 9.61916 28.4837 9.44826 28.2705 9.40112C26.8011 9.06521 25.2914 9.50719 24.2311 10.5915C24.1908 10.6328 24.1505 10.6799 24.1101 10.7212V7.64497C24.9918 6.95548 25.5104 5.88883 25.5104 4.73967C25.5104 3.47855 24.888 2.31761 23.8393 1.64579C23.6492 1.52204 23.4129 1.52204 23.2227 1.64579C22.1798 2.3235 21.5517 3.47855 21.5517 4.73967C21.5517 5.88883 22.0703 6.95548 22.9519 7.64497V8.41697C22.0069 7.45639 20.6643 7.06745 19.3678 7.36799C19.1489 7.41514 18.9818 7.59193 18.9357 7.80998C18.6418 9.14771 19.0278 10.5267 19.9786 11.4932C20.7162 12.2475 21.6958 12.6541 22.7157 12.6541C22.7963 12.6541 22.877 12.6482 22.9577 12.6482V15.0113C22.8828 14.9229 22.8021 14.8346 22.7214 14.752C21.5805 13.5852 19.9613 13.0961 18.3825 13.4438C18.2557 12.5304 17.4836 11.8291 16.5616 11.8291H12.868L11.1451 9.40701C10.9031 9.06521 10.5977 8.77645 10.2577 8.55251C11.2604 8.12231 11.9691 7.1087 11.9691 5.93008V4.52752H12.8507C13.1677 4.52752 13.427 4.26233 13.427 3.93821C13.427 3.61409 13.1677 3.3489 12.8507 3.3489H12.1247V2.406C12.1247 1.48079 11.3871 0.726471 10.4825 0.726471H7.76269C6.85802 0.726471 6.12046 1.48079 6.12046 2.406V3.3489H5.39442C5.07749 3.3489 4.81819 3.61409 4.81819 3.93821C4.81819 4.26233 5.07749 4.52752 5.39442 4.52752H6.40857V5.93597C6.40857 6.8494 6.83497 7.66854 7.49763 8.18714C6.17232 8.61733 5.21003 9.89024 5.21003 11.3812V17.787C5.21003 19.166 5.94759 20.3682 7.03665 21.0105V24.788H1.86793C0.871068 24.788 0.0585938 25.6189 0.0585938 26.6384C0.0585938 27.6579 0.871068 28.4889 1.86793 28.4889H2.6055C2.92242 28.4889 3.18172 28.2237 3.18172 27.8996C3.18172 27.5754 2.92242 27.3102 2.6055 27.3102H1.86793C1.50491 27.3102 1.20528 27.0038 1.20528 26.6325C1.20528 26.2613 1.50491 25.9548 1.86793 25.9548H7.61287C7.9298 25.9548 8.1891 25.6896 8.1891 25.3655V21.4348C8.4023 21.4761 8.62703 21.4996 8.85175 21.4996H9.99267V25.3066C9.99267 26.4145 9.11105 27.3161 8.02776 27.3161H7.21528C6.89836 27.3161 6.63906 27.5813 6.63906 27.9054C6.63906 28.2296 6.89836 28.4948 7.21528 28.4948H8.02776C9.7449 28.4948 11.1394 27.0686 11.1394 25.3125V21.5055H13.2426V26.6384C13.2426 27.6579 14.055 28.4889 15.0519 28.4889C16.0488 28.4889 16.8613 27.6579 16.8613 26.6384V20.2621C16.8613 18.506 15.4668 17.0798 13.7496 17.0798H10.978V15.5712C11.0356 15.5889 11.0933 15.6007 11.1509 15.6007H16.5559C17.0226 15.6007 17.4548 15.418 17.7774 15.1233C17.812 16.3432 18.296 17.51 19.1604 18.394C20.0593 19.3133 21.2578 19.8142 22.4967 19.8142C22.6465 19.8142 22.8021 19.8083 22.9519 19.7906V22.8904C22.393 23.0024 21.8629 23.2794 21.4307 23.7213L17.7544 27.4811C17.5297 27.711 17.5297 28.0822 17.7544 28.3121C17.9791 28.5419 18.3421 28.5419 18.5669 28.3121L22.2432 24.5523C22.9519 23.8274 24.1101 23.8274 24.8189 24.5523L28.5125 28.3298C28.622 28.4417 28.7718 28.5007 28.9216 28.5007C29.0714 28.5007 29.2155 28.4417 29.3307 28.3298C29.5612 28.094 29.5612 27.7169 29.3365 27.487ZM22.9519 11.4696C22.1567 11.5403 21.3673 11.2515 20.7911 10.6622C20.2149 10.0729 19.9325 9.27147 20.0017 8.45233C20.7969 8.38161 21.5863 8.67037 22.1625 9.25968C22.7387 9.84899 23.0211 10.6563 22.9519 11.4696ZM25.0494 11.4224C25.7408 10.7153 26.6916 10.3794 27.6481 10.4796C27.7519 11.4578 27.4177 12.4302 26.7262 13.1373C26.0347 13.8445 25.084 14.1804 24.1274 14.0802C24.1159 13.9801 24.1101 13.8799 24.1101 13.7797V13.6677C24.1274 12.8309 24.4559 12.0294 25.0494 11.4224ZM23.5339 2.87745C24.0583 3.34301 24.3579 4.02071 24.3579 4.74556C24.3579 5.47042 24.0525 6.14223 23.5339 6.61368C23.0095 6.14812 22.7099 5.47042 22.7099 4.74556C22.7099 4.02071 23.0153 3.34301 23.5339 2.87745ZM10.8167 5.93597C10.8167 6.8553 10.0849 7.59783 9.19172 7.59783C8.29282 7.59783 7.56678 6.8494 7.56678 5.93597V4.52752H10.8224V5.93597H10.8167ZM7.2729 2.4119C7.2729 2.13492 7.49187 1.91098 7.76269 1.91098H10.4825C10.7533 1.91098 10.9723 2.13492 10.9723 2.4119V3.35479H7.2729V2.4119ZM13.7554 18.2526C14.8387 18.2526 15.7203 19.1542 15.7203 20.2621V26.6443C15.7203 27.0156 15.4265 27.322 15.0577 27.322C14.6947 27.322 14.395 27.0156 14.395 26.6443V20.9221C14.395 20.598 14.1357 20.3328 13.8188 20.3328H8.85175C7.63592 20.3328 6.62177 19.4371 6.40857 18.2526H13.7554ZM16.5616 14.422H11.4159L10.2981 13.1373C10.0849 12.8957 9.72185 12.8722 9.4856 13.0902C9.24935 13.3082 9.2263 13.6795 9.4395 13.9211L9.83133 14.3749V17.0798H6.36247V11.3871C6.36247 10.1849 7.319 9.20664 8.4945 9.20664C9.17444 9.20664 9.81981 9.54255 10.2174 10.1024L12.1132 12.7661C12.2227 12.9193 12.3955 13.0077 12.5799 13.0077H16.5674C16.9477 13.0077 17.2588 13.3259 17.2588 13.7149C17.2531 14.1038 16.9419 14.422 16.5616 14.422ZM22.9346 18.6061C21.8456 18.7358 20.768 18.3586 19.9786 17.5572C19.195 16.7557 18.8262 15.6478 18.9529 14.534C20.042 14.3985 21.1195 14.7815 21.909 15.583C22.5831 16.2725 22.9519 17.1859 22.9577 18.1347V18.2172C22.9577 18.3468 22.9519 18.4765 22.9346 18.6061Z" fill="#32297C"/>
<path d="M4.91045 27.3167C4.76063 27.3167 4.61082 27.3815 4.50133 27.4876C4.39185 27.5996 4.33423 27.7469 4.33423 27.906C4.33423 28.0651 4.39761 28.2125 4.50133 28.3244C4.61082 28.4364 4.75487 28.4953 4.91045 28.4953C5.06027 28.4953 5.21009 28.4305 5.31957 28.3244C5.42905 28.2125 5.48667 28.0651 5.48667 27.906C5.48667 27.7469 5.42329 27.5996 5.31957 27.4876C5.21009 27.3815 5.06027 27.3167 4.91045 27.3167Z" fill="#32297C"/>
</svg>
