<svg width="30" height="29" viewBox="0 0 30 29" fill="none" xmlns="http://www.w3.org/2000/svg">
<path d="M11.9118 15.0115C12.057 15.0115 12.1967 14.9336 12.2693 14.8112L13.0236 13.5589L14.0236 15.1451C14.1018 15.2675 14.2415 15.3455 14.3867 15.3399C14.532 15.3343 14.6661 15.2564 14.7443 15.1284L16.3589 12.3234L18.5265 16.2527C18.5992 16.3862 18.7388 16.4642 18.8841 16.4697H18.8897C19.0349 16.4697 19.1746 16.3918 19.2472 16.2638L20.5992 14.0097H23.8508C24.0798 14.0097 24.2698 13.8205 24.2698 13.5923C24.2698 13.3641 24.0798 13.1749 23.8508 13.1749H20.359C20.2138 13.1749 20.0741 13.2528 20.0015 13.3808L18.9064 15.2119L16.7332 11.2659C16.6606 11.1323 16.5209 11.0488 16.37 11.0488C16.37 11.0488 16.37 11.0488 16.3645 11.0488C16.2136 11.0488 16.0739 11.1267 16.0013 11.2603L14.3644 14.1155L13.3699 12.546C13.2917 12.4235 13.1576 12.3512 13.018 12.3512C13.018 12.3512 13.018 12.3512 13.0124 12.3512C12.8671 12.3512 12.733 12.4291 12.6548 12.5515L11.6715 14.1823H9.29157C9.06251 14.1823 8.87256 14.3715 8.87256 14.5997C8.87256 14.8279 9.06251 15.0171 9.29157 15.0171L11.9118 15.0115Z" fill="#32297C"/>
<path d="M24.5938 3.42957C24.3648 3.42957 24.1748 3.6188 24.1748 3.84699V5.07698H22.9401C22.7111 5.07698 22.5211 5.26621 22.5211 5.4944C22.5211 5.72259 22.7111 5.91182 22.9401 5.91182H24.1748V7.14182C24.1748 7.37001 24.3648 7.55924 24.5938 7.55924C24.8229 7.55924 25.0128 7.37001 25.0128 7.14182V5.91182H26.2475C26.4766 5.91182 26.6665 5.72259 26.6665 5.4944C26.6665 5.26621 26.4766 5.07698 26.2475 5.07698H25.0128V3.84699C25.0128 3.61323 24.8229 3.42957 24.5938 3.42957Z" fill="#32297C"/>
<path d="M26.0743 17.7331C28.1135 15.557 28.7001 12.2733 27.5772 9.45152C28.7783 8.54433 29.5605 7.10841 29.5605 5.49438C29.5605 2.76724 27.3313 0.54657 24.5938 0.54657C23.4709 0.54657 22.3647 0.930596 21.4931 1.63186C21.3143 1.77657 21.2808 2.03815 21.4261 2.21625C21.5713 2.39435 21.8339 2.42774 22.0127 2.28304C22.7557 1.69308 23.644 1.38141 24.5938 1.38141C26.8732 1.38141 28.7224 3.22919 28.7224 5.49438C28.7224 7.76515 26.8676 9.60736 24.5938 9.60736C22.4764 9.60736 20.7221 8.01003 20.4931 5.95633C20.4931 5.95076 20.4931 5.9452 20.4931 5.93963C20.4763 5.78936 20.4652 5.63909 20.4652 5.48882C20.4652 4.84321 20.6104 4.23099 20.8953 3.65774C21.0015 3.45181 20.9177 3.20136 20.7054 3.09561C20.4987 2.98987 20.2473 3.07892 20.1411 3.28484C19.7947 3.97498 19.6215 4.7152 19.6215 5.48882C19.6215 5.56117 19.6215 5.62796 19.6271 5.70031C18.5712 6.07877 17.5824 6.69655 16.7555 7.50913L16.2918 7.95994L16.2862 7.95438L15.8337 7.50913C14.3588 6.06208 12.4313 5.25506 10.543 5.29402C8.97311 5.32742 7.57641 5.93963 6.52051 7.06945C6.36408 7.23642 6.36966 7.50356 6.54285 7.6594C6.71046 7.81524 6.97862 7.80967 7.13505 7.63714C8.03453 6.67429 9.22452 6.15112 10.5653 6.12886C12.2302 6.09547 13.9398 6.81343 15.2527 8.10465L15.7108 8.5499C15.9287 8.76696 16.1186 8.8727 16.303 8.8727C16.4874 8.8727 16.6717 8.76695 16.8896 8.55546L17.3533 8.10465C18.0517 7.42565 18.8673 6.89135 19.75 6.55185C20.2361 8.77252 22.2306 10.4422 24.605 10.4422C25.4206 10.4422 26.186 10.2474 26.862 9.90234C27.7894 12.3902 27.2587 15.2509 25.4709 17.1543L19.4484 23.2876L18.9511 23.3822C18.8282 23.4045 18.7221 23.4267 18.6271 23.4434C17.9958 23.5714 17.8449 23.5993 17.1075 23.488L13.5264 22.8368C13.0403 22.6698 13.085 22.2802 13.1129 22.1633C13.1576 21.9797 13.3252 21.6903 13.6884 21.7459C13.694 21.7459 13.694 21.7459 13.6995 21.7459C13.8616 21.7682 14.0347 21.7904 14.2135 21.8127C14.8895 21.9018 15.6605 21.9964 16.3421 22.0687C17.7388 22.2079 18.5265 21.4788 18.6941 20.694C18.8617 19.8926 18.4036 18.824 17.0013 18.3787C16.9846 18.3732 16.9678 18.3676 16.9511 18.3676L14.6437 17.9446C13.3923 17.7164 12.4146 17.8945 10.9397 18.1617C10.5486 18.234 10.1072 18.312 9.61559 18.3899L8.52058 18.568L8.18537 18.2229L7.12947 17.1487C5.16291 15.0449 4.72714 11.7557 6.06798 9.13985C6.17412 8.93392 6.09032 8.68347 5.88361 8.57773C5.6769 8.47198 5.42549 8.55546 5.31934 8.76139C3.8165 11.6833 4.30813 15.3678 6.51492 17.722L6.52051 17.7276L7.50378 18.7294L5.67131 19.0299V18.9798C5.67131 18.657 5.38639 18.3954 5.03442 18.3954H1.59295C1.24098 18.3954 0.956055 18.657 0.956055 18.9798V26.3264C0.956055 26.6492 1.24098 26.9108 1.59295 26.9108H5.04C5.39197 26.9108 5.6769 26.6492 5.6769 26.3264V26.2763L9.4424 27.3004L12.923 28.241C13.7163 28.4859 14.3588 28.586 14.9398 28.586C15.8616 28.586 16.6494 28.3356 17.6829 28.0017C17.7723 27.9738 17.8673 27.9404 17.9679 27.9126L24.8229 25.7253C25.6162 25.4693 26.1804 24.9016 26.3369 24.2004C26.4542 23.6549 26.2922 23.1206 25.8955 22.7644C25.5771 22.475 24.8284 22.0632 23.3871 22.5195L20.9009 23.0037L26.0687 17.7331C26.0687 17.7331 26.0687 17.7331 26.0743 17.7331ZM1.79407 26.0871V19.2414H4.83888V19.5308V25.7365V26.0815L1.79407 26.0871ZM23.6161 23.3266C24.3871 23.0817 25.0128 23.1039 25.3313 23.3878C25.5044 23.5436 25.5715 23.7774 25.5156 24.0278C25.4262 24.4341 25.0743 24.7736 24.5659 24.935L17.7109 27.1279C17.6103 27.1613 17.5153 27.1891 17.4259 27.2169C15.7834 27.7456 14.9622 28.0128 13.1632 27.4507C13.1576 27.4507 13.152 27.4507 13.1464 27.4451L5.6769 25.4192V19.8815L9.74967 19.2136C10.2469 19.1301 10.6938 19.0522 11.0905 18.9798C12.5207 18.7182 13.3867 18.5624 14.4929 18.7628L16.7723 19.1802C17.6606 19.4696 17.9679 20.0762 17.8785 20.5215C17.7723 21.0335 17.2025 21.3174 16.4315 21.2395C15.7611 21.1727 14.9957 21.0725 14.3253 20.989C14.1465 20.9667 13.9733 20.9445 13.8113 20.9222C13.0124 20.8053 12.4481 21.3619 12.3028 21.9741C12.2693 22.1077 12.2581 22.2468 12.2693 22.386C12.3028 22.8924 12.6045 23.4212 13.2973 23.6382C13.3141 23.6438 13.5431 23.6883 13.5431 23.6883L16.9678 24.3117C16.9734 24.3117 16.9734 24.3117 16.979 24.3117C17.6829 24.423 17.9902 24.4118 18.426 24.3339C18.5377 24.3117 19.0014 24.2226 19.1187 24.1948L19.873 24.0501C19.8618 24.0612 23.5993 23.3321 23.6161 23.3266Z" fill="#32297C"/>
</svg>
