<svg width="30" height="31" viewBox="0 0 30 31" fill="none" xmlns="http://www.w3.org/2000/svg">
<path d="M22.5761 15.4315L11.6508 9.29251C11.5083 9.20987 11.3302 9.20987 11.1818 9.29251L0.262485 15.4315C0.114045 15.5142 0.019043 15.6735 0.019043 15.8447V18.2059C0.019043 18.4656 0.232797 18.6781 0.494052 18.6781C0.577179 18.6781 0.654368 18.6545 0.725619 18.6191L1.44407 18.2177V29.5395C1.44407 29.7992 1.65783 30.0117 1.91908 30.0117H20.9195C21.1807 30.0117 21.3945 29.7992 21.3945 29.5395V18.2118L22.1129 18.6132C22.3385 18.7431 22.6295 18.6604 22.7601 18.4361C22.8017 18.3653 22.8195 18.2826 22.8195 18.2059V15.8447C22.8195 15.6735 22.7245 15.5201 22.5761 15.4315ZM2.39409 26.7061H8.56921V29.0672H2.39409V26.7061ZM6.66917 25.7616H4.29413V22.456H6.66917V25.7616ZM13.3193 22.456V29.0672H9.51923V22.456H13.3193ZM14.2693 29.0672V26.7061H20.4444V29.0672H14.2693ZM18.5444 25.7616H16.1694V22.456H18.5444V25.7616ZM20.4444 25.7616H19.4944V21.9837C19.4944 21.724 19.2807 21.5115 19.0194 21.5115H15.6944C15.4331 21.5115 15.2193 21.724 15.2193 21.9837V25.7616H14.2693V22.456H14.7443V21.5115H8.0942V22.456H8.56921V25.7616H7.61919V21.9837C7.61919 21.724 7.40544 21.5115 7.14418 21.5115H3.81912C3.55786 21.5115 3.34411 21.724 3.34411 21.9837V25.7616H2.39409V17.6805L11.4193 12.6099L20.4444 17.6805V25.7616ZM21.8695 17.3972L11.6508 11.6537C11.5083 11.571 11.3302 11.571 11.1818 11.6537L0.969062 17.3972V16.1222L11.4193 10.2488L21.8695 16.1222V17.3972Z" fill="#32297C"/>
<path d="M8.56909 17.2614C8.56909 18.8257 9.84568 20.0948 11.4191 20.0948C12.9926 20.0948 14.2692 18.8257 14.2692 17.2614C14.2692 15.6972 12.9926 14.428 11.4191 14.428C9.84568 14.428 8.56909 15.6972 8.56909 17.2614ZM13.3192 17.2614C13.3192 18.3062 12.4701 19.1504 11.4191 19.1504C10.3682 19.1504 9.51911 18.3062 9.51911 17.2614C9.51911 16.2166 10.3682 15.3725 11.4191 15.3725C12.4701 15.3725 13.3192 16.2166 13.3192 17.2614Z" fill="#32297C"/>
<path d="M26.1446 0.733337C25.6518 0.733337 25.1649 0.845492 24.7196 1.058C23.063 0.272911 21.0858 0.969453 20.2961 2.61636C19.922 3.38964 19.8686 4.27508 20.1476 5.08968L19.7736 5.45566H19.4945C19.2332 5.45566 19.0195 5.66816 19.0195 5.92789V6.87235H18.0695C17.8082 6.87235 17.5945 7.08486 17.5945 7.34458V8.29495L16.6385 8.31266C16.3772 8.31856 16.1694 8.52516 16.1694 8.78489V10.6502C16.1694 10.8686 16.3179 11.0575 16.5316 11.1106L18.4317 11.5829C18.6039 11.6242 18.782 11.5711 18.9007 11.4412L22.6652 7.28555C23.3658 7.42132 24.0843 7.32687 24.7255 7.02583C24.7315 7.03173 24.7434 7.03763 24.7493 7.03763L24.7315 7.5925L24.4108 7.86404C24.2149 8.03522 24.1912 8.33037 24.3633 8.53107C24.3693 8.53697 24.3693 8.54287 24.3752 8.54287L25.0105 9.2158L24.3871 9.83561C24.203 10.0186 24.203 10.3196 24.3871 10.5026L24.9987 11.1106L24.3871 11.7186C24.203 11.9016 24.203 12.2027 24.3871 12.3857C24.4108 12.4093 24.4346 12.427 24.4584 12.4447L25.8834 13.3892C25.9606 13.4423 26.0556 13.4659 26.1446 13.4659C26.1981 13.4659 26.2456 13.46 26.2931 13.4423L27.7181 12.97C27.914 12.9051 28.0447 12.728 28.0447 12.5214V6.73068C29.5528 5.68587 29.915 3.62576 28.8641 2.12642C28.2465 1.2646 27.2312 0.733337 26.1446 0.733337ZM22.6296 6.30567C22.4574 6.25255 22.2674 6.30567 22.1427 6.44144L18.3842 10.5971L17.1195 10.2783V9.24532L18.0754 9.22761C18.3367 9.2217 18.5445 9.0151 18.5445 8.75538V7.81091H19.4945C19.7558 7.81091 19.9695 7.59841 19.9695 7.33868V6.40012C20.0942 6.40012 20.2189 6.3529 20.308 6.26435L21.0383 5.5383C21.1748 5.39663 21.2164 5.19003 21.1333 5.00704C20.587 3.83236 21.0977 2.43928 22.2852 1.89031C22.7483 1.6778 23.2768 1.61877 23.7755 1.72502C22.5108 3.00595 22.5108 5.05426 23.7755 6.33519C23.3896 6.42373 23.0036 6.41193 22.6296 6.30567ZM27.3322 6.08136C27.1837 6.164 27.0947 6.32338 27.0947 6.48866V12.1968L26.2159 12.486L25.4677 11.9902L26.0081 11.453C26.1921 11.27 26.1921 10.969 26.0081 10.786L25.3906 10.178L26.0021 9.56998C26.1862 9.38699 26.1862 9.09774 26.014 8.91475L25.4024 8.26544L25.5034 8.17689C25.6043 8.08835 25.6637 7.97029 25.6696 7.83452L25.7052 6.73658C25.7112 6.52998 25.5806 6.34109 25.3846 6.27026C24.1437 5.85115 23.4727 4.51119 23.8943 3.27749C24.3158 2.04378 25.6637 1.37675 26.9046 1.79586C28.1456 2.21496 28.8166 3.55492 28.395 4.78863C28.2109 5.3376 27.8309 5.79212 27.3322 6.08136Z" fill="#32297C"/>
<path d="M26.1445 4.03892C26.6692 4.03892 27.0946 3.61607 27.0946 3.09446C27.0946 2.57284 26.6692 2.14999 26.1445 2.14999C25.6199 2.14999 25.1945 2.57284 25.1945 3.09446C25.1945 3.61607 25.6199 4.03892 26.1445 4.03892Z" fill="#32297C"/>
</svg>
