<svg width="30" height="28" viewBox="0 0 30 28" fill="none" xmlns="http://www.w3.org/2000/svg">
<path d="M16.4518 15.8727C15.3936 15.8727 14.3526 16.1451 13.4325 16.6672C13.2139 16.7921 13.1391 17.0701 13.2657 17.2858C13.3922 17.5014 13.674 17.5752 13.8925 17.4504C16.3425 16.0487 19.4826 16.8772 20.8974 19.3004C22.3122 21.7236 21.4783 24.8164 19.0225 26.2124C16.5668 27.6085 13.4325 26.7856 12.0177 24.3624C10.856 22.3762 11.1895 19.8622 12.8401 18.2449C13.0241 18.0689 13.0299 17.7852 12.8516 17.6036C12.6733 17.422 12.3857 17.4163 12.2017 17.5922C12.196 17.5979 12.196 17.5979 12.1902 17.6036C9.8265 19.9246 9.815 23.6984 12.1672 26.0308C14.5194 28.3632 18.3439 28.3746 20.7076 26.0535C23.0713 23.7325 23.0828 19.9587 20.7306 17.6263C19.5976 16.5027 18.0563 15.8727 16.4518 15.8727Z" fill="#32297C"/>
<path d="M16.9522 23.6247H15.7962C15.4224 23.6247 15.1176 23.3239 15.1176 22.9551C15.1176 22.7054 14.9105 22.5011 14.6575 22.5011C14.4044 22.5011 14.1974 22.7054 14.1974 22.9551C14.1974 23.829 14.9163 24.5327 15.7962 24.5327H15.917V25.401C15.917 25.6507 16.124 25.855 16.3771 25.855C16.6301 25.855 16.8371 25.6507 16.8371 25.401V24.5327H16.9522C17.8378 24.5327 18.551 23.8233 18.551 22.9551C18.551 22.0811 17.8321 21.3774 16.9522 21.3774H15.7962C15.4224 21.3661 15.1233 21.0597 15.1348 20.6851C15.1463 20.3333 15.4339 20.0438 15.7962 20.0325H16.9522C17.326 20.0325 17.6308 20.3333 17.6308 20.7021C17.6308 20.9518 17.8378 21.1561 18.0909 21.1561C18.3439 21.1561 18.551 20.9518 18.551 20.7021C18.551 19.8282 17.8321 19.1245 16.9522 19.1245H16.8314V18.2562C16.8314 18.0065 16.6244 17.8022 16.3713 17.8022C16.1183 17.8022 15.9112 18.0065 15.9112 18.2562V19.1302H15.7962C14.9105 19.1472 14.2089 19.8679 14.2261 20.7419C14.2434 21.5874 14.9335 22.2741 15.7962 22.2911H16.9522C17.326 22.2911 17.6308 22.5919 17.6308 22.9608C17.6308 23.3239 17.326 23.6247 16.9522 23.6247Z" fill="#32297C"/>
<path d="M27.3962 9.32392C27.1489 9.2615 26.9016 9.41472 26.8383 9.65874C26.7808 9.89141 26.9189 10.1298 27.1489 10.1979C28.3911 10.5384 28.6729 10.9242 28.6729 11.0264C28.6729 11.4066 26.8728 12.2919 23.3819 12.2919C19.891 12.2919 18.0909 11.4009 18.0909 11.0264C18.0909 10.6519 19.891 9.76089 23.3819 9.76089C24.2101 9.75522 25.0325 9.81764 25.8491 9.93114C26.1022 9.95951 26.3322 9.78359 26.361 9.53389C26.3898 9.29555 26.223 9.07423 25.9872 9.0345C25.1245 8.90966 24.2561 8.85291 23.3819 8.85291C20.3913 8.85291 17.1707 9.53389 17.1707 11.0264V14.5562C17.1707 16.0487 20.3913 16.7297 23.3819 16.7297C25.3948 16.7297 27.5055 16.4176 28.6729 15.7649V16.3211C28.6729 16.7013 26.8728 17.5866 23.3819 17.5866C22.9793 17.5866 22.594 17.5752 22.2144 17.5525C21.9614 17.5355 21.7429 17.7285 21.7256 17.9782C21.7083 18.2279 21.8981 18.4435 22.1512 18.4605C22.1512 18.4605 22.1512 18.4605 22.1569 18.4605C22.5538 18.4832 22.9621 18.5003 23.3819 18.5003C25.3948 18.5003 27.5055 18.1881 28.6729 17.5298V18.086C28.6729 18.4662 26.8728 19.3572 23.3819 19.3572C23.3819 19.3572 23.1921 19.3628 23.1059 19.3572C22.8528 19.3572 22.6515 19.5501 22.6343 19.7998C22.6285 20.0495 22.8241 20.2595 23.0829 20.2652H23.3877C25.4006 20.2652 27.5112 19.953 28.6787 19.2947V19.8509C28.6787 20.2311 26.8786 21.1164 23.3877 21.1164C23.1346 21.1164 22.9276 21.3207 22.9276 21.5704C22.9276 21.8201 23.1346 22.0244 23.3877 22.0244C25.4006 22.0244 27.5112 21.7123 28.6787 21.0596V21.6612C28.6787 22.0414 26.8786 22.9267 23.3877 22.9267H23.2209C22.9736 22.938 22.7723 23.131 22.755 23.375C22.755 23.6247 22.9563 23.829 23.2094 23.8347H23.3819C26.3725 23.8403 29.5931 23.1594 29.5931 21.6669V11.0264C29.5931 10.527 29.2136 9.82332 27.3962 9.32392ZM23.3819 13.1999C25.3948 13.1999 27.5055 12.8878 28.6729 12.2352V12.7913C28.6729 13.1715 26.8728 14.0625 23.3819 14.0625C19.891 14.0625 18.0909 13.1715 18.0909 12.7913V12.2352C19.2584 12.8934 21.3748 13.1999 23.3819 13.1999ZM23.3819 15.8274C19.891 15.8274 18.0909 14.9364 18.0909 14.5619V14.0057C19.2584 14.664 21.369 14.9761 23.3819 14.9761C25.3948 14.9761 27.5055 14.664 28.6729 14.0057V14.5619C28.6729 14.9364 26.8728 15.8274 23.3819 15.8274Z" fill="#32297C"/>
<path d="M9.83803 24.2371C9.677 24.2428 9.51022 24.2484 9.34919 24.2484C4.47224 24.2484 1.06758 21.4848 1.06758 17.535C1.06758 14.3117 3.27601 9.54476 6.5714 7.58692C6.61741 7.55854 6.65191 7.52449 6.69217 7.49612H10.4534C10.7064 7.49612 10.9135 7.29182 10.9135 7.04213C10.9135 6.79243 10.7064 6.58813 10.4534 6.58813H7.27303C7.3363 6.24764 7.26153 5.89579 7.07174 5.60637C5.51894 3.22291 5.21413 2.15603 5.27164 1.87796C5.2774 1.88363 5.28315 1.88363 5.2889 1.88363C5.97903 1.88931 6.66917 1.99146 7.32479 2.19008C7.96317 2.38303 8.6303 2.48517 9.29743 2.49085C10.0508 2.47383 10.8042 2.366 11.5346 2.16738C12.1097 2.00848 12.7078 1.91768 13.306 1.88363C13.2887 2.22413 12.9436 3.23426 11.7589 5.2375H8.24497C7.99192 5.2375 7.78488 5.4418 7.78488 5.6915C7.78488 5.94119 7.99192 6.14549 8.24497 6.14549H11.3506C11.3276 6.31574 11.3391 6.48598 11.3793 6.65056C11.4771 7.03078 11.7301 7.35425 12.0752 7.55287C13.7315 8.61975 15.0773 10.0952 15.9687 11.8317C16.0837 12.0531 16.3598 12.1439 16.5898 12.0304C16.8199 11.9169 16.9062 11.6445 16.7911 11.4175C16.7854 11.4118 16.7854 11.4061 16.7796 11.3948C15.8077 9.51071 14.3469 7.91606 12.5468 6.76973C12.4145 6.69596 12.3168 6.57111 12.2765 6.42924C12.242 6.31006 12.265 6.17954 12.334 6.07172C14.6402 2.28088 14.2721 1.62826 14.1111 1.35019C13.9673 1.10617 13.7028 0.958625 13.4152 0.969975C12.7078 0.992674 12.012 1.09482 11.3276 1.28209C10.6662 1.46369 9.98756 1.56584 9.30318 1.58286C8.71081 1.57151 8.12995 1.48072 7.56634 1.31047C6.8302 1.08915 6.0653 0.97565 5.29465 0.969975C4.96108 0.947275 4.63902 1.11752 4.47799 1.40694C4.32271 1.68501 3.91438 2.4341 6.30685 6.08874C6.38161 6.19656 6.40461 6.32709 6.37586 6.45194C6.3356 6.59948 6.23783 6.73001 6.10556 6.80378C2.53986 8.9262 0.1474 14.062 0.1474 17.535C0.1474 21.9501 4.0179 25.1564 9.34919 25.1564C9.52747 25.1564 9.7 25.1508 9.87829 25.1451C10.1313 25.1337 10.3326 24.9238 10.3211 24.6741C10.3096 24.4244 10.0911 24.2314 9.83803 24.2371Z" fill="#32297C"/>
</svg>
