<svg width="31" height="9" viewBox="0 0 31 9" fill="none" xmlns="http://www.w3.org/2000/svg">
<path d="M4.60869 8.21623C2.57855 8.21623 0.927979 6.56566 0.927979 4.53551C0.927979 2.50537 2.57855 0.854797 4.60869 0.854797C6.63884 0.854797 8.28941 2.50537 8.28941 4.53551C8.28941 6.56566 6.63884 8.21623 4.60869 8.21623ZM4.60869 2.07978C3.25718 2.07978 2.15297 3.17825 2.15297 4.53551C2.15297 5.89278 3.25143 6.99124 4.60869 6.99124C5.96596 6.99124 7.06442 5.89278 7.06442 4.53551C7.06442 3.17825 5.96021 2.07978 4.60869 2.07978Z" fill="#32297C"/>
<path d="M15.6508 8.21623C13.6207 8.21623 11.9701 6.56566 11.9701 4.53551C11.9701 2.50537 13.6207 0.854797 15.6508 0.854797C17.681 0.854797 19.3315 2.50537 19.3315 4.53551C19.3315 6.56566 17.681 8.21623 15.6508 8.21623ZM15.6508 2.07978C14.2993 2.07978 13.1951 3.17825 13.1951 4.53551C13.1951 5.89278 14.2935 6.99124 15.6508 6.99124C17.0081 6.99124 18.1065 5.89278 18.1065 4.53551C18.1065 3.17825 17.0023 2.07978 15.6508 2.07978Z" fill="#32297C"/>
<path d="M26.6929 8.21623C24.6628 8.21623 23.0122 6.56566 23.0122 4.53551C23.0122 2.50537 24.6628 0.854797 26.6929 0.854797C28.7231 0.854797 30.3736 2.50537 30.3736 4.53551C30.3736 6.56566 28.7231 8.21623 26.6929 8.21623ZM26.6929 2.07978C25.3414 2.07978 24.2372 3.17825 24.2372 4.53551C24.2372 5.89278 25.3357 6.99124 26.6929 6.99124C28.0444 6.99124 29.1486 5.89278 29.1486 4.53551C29.1486 3.17825 28.0444 2.07978 26.6929 2.07978Z" fill="#32297C"/>
</svg>
