<svg width="30" height="28" viewBox="0 0 30 28" fill="none" xmlns="http://www.w3.org/2000/svg">
<path d="M28.9563 10.3301L28.4099 8.2583C28.3639 8.09187 28.2432 7.94839 28.0821 7.87952L25.1663 6.60546L23.4122 4.29836C23.2972 4.14914 23.1189 4.06306 22.9291 4.0688L19.3059 4.21227L16.9135 1.8937C16.8329 1.81335 16.7352 1.7617 16.6259 1.74449L11.6339 0.768848C11.4441 0.734413 11.2486 0.791804 11.1106 0.93528L7.67141 4.47627L3.24305 5.97416C3.09927 6.02581 2.9785 6.12911 2.90949 6.26685L0.948356 10.2957C0.50552 10.4564 0.189209 10.881 0.189209 11.3746V12.8094C0.189209 13.4407 0.706809 13.9572 1.33943 13.9572H1.45445L3.32932 22.3878C3.15678 22.7953 3.06477 23.2429 3.06477 23.7135C3.06477 25.6132 4.61182 27.157 6.51544 27.157C8.22352 27.157 9.64404 25.9116 9.9201 24.2875H19.9098C20.1858 25.9116 21.6064 27.157 23.3087 27.157C25.2123 27.157 26.7594 25.6132 26.7594 23.7135C26.7594 23.2429 26.6673 22.7953 26.4948 22.3878L28.3697 13.9572H28.4847C29.1173 13.9572 29.6349 13.4407 29.6349 12.8094V11.3746C29.6349 10.9097 29.3531 10.508 28.9563 10.3301ZM27.7371 10.2268H25.3733V7.94265L27.3632 8.81499L27.7371 10.2268ZM11.4499 2.2323L13.25 4.82635L10.6102 6.9211L8.78138 4.97557L11.4499 2.2323ZM18.3282 4.85505L17.3793 6.16355L14.9581 4.8034L16.5396 3.12186L18.3282 4.85505ZM21.8939 5.25678L19.2427 9.54385L18.1902 6.99571L19.3807 5.35434L21.8939 5.25678ZM13.9746 8.20665L11.7547 7.48927L14.0897 5.63556L16.3556 6.90962L13.9746 8.20665ZM14.1012 4.02862L12.8072 2.16344L15.3837 2.66273L14.1012 4.02862ZM6.87201 7.95987L4.77285 6.66858L7.25733 5.82495L6.87201 7.95987ZM7.86695 8.93551L8.35579 6.19798L9.97186 7.9197L9.87984 10.2268H7.86695V8.93551ZM11.1048 8.48212L13.3593 9.21098L13.1235 10.2268H11.0358L11.1048 8.48212ZM14.5382 9.20524L17.2528 7.72457L18.2822 10.2268H14.3024L14.5382 9.20524ZM24.2231 10.2268H21.0543L24.2231 8.13204V10.2268ZM23.9701 6.92684L21.0082 8.88386L23.0039 5.65277L23.9701 6.92684ZM3.66288 7.34005L6.71673 9.21098V10.2268H2.25961L3.66288 7.34005ZM28.4789 11.3746C28.4789 11.3746 28.4847 11.3746 28.4789 11.3746L28.4847 12.8094H27.9211H27.9153H1.90879H1.33943V11.3746H28.4789ZM6.51544 26.0092C5.24444 26.0092 4.21499 24.9819 4.21499 23.7135C4.21499 22.4452 5.24444 21.4179 6.51544 21.4179C7.78643 21.4179 8.81588 22.4452 8.81588 23.7135C8.81588 24.9819 7.78643 26.0092 6.51544 26.0092ZM23.3087 26.0092C22.0377 26.0092 21.0082 24.9819 21.0082 23.7135C21.0082 22.4452 22.0377 21.4179 23.3087 21.4179C24.5797 21.4179 25.6091 22.4452 25.6091 23.7135C25.6091 24.9819 24.5797 26.0092 23.3087 26.0092ZM25.5919 21.1367C24.9823 20.5972 24.1829 20.2701 23.3087 20.2701C21.6006 20.2701 20.1801 21.5155 19.904 23.1396H9.9201C9.64404 21.5155 8.22352 20.2701 6.51544 20.2701C5.64127 20.2701 4.84186 20.5972 4.23224 21.1367L3.14528 16.2528H5.89432C6.21063 16.2528 6.46943 15.9945 6.46943 15.6789C6.46943 15.3632 6.21063 15.105 5.89432 15.105H2.88648L2.63343 13.9572H27.1964L25.5919 21.1367Z" fill="#32297C"/>
<path d="M6.51542 23.1392C6.19911 23.1392 5.94031 23.3975 5.94031 23.7131C5.94031 24.0288 6.19911 24.287 6.51542 24.287C6.83173 24.287 7.09053 24.0288 7.09053 23.7131C7.09053 23.3975 6.83173 23.1392 6.51542 23.1392Z" fill="#32297C"/>
<path d="M23.3088 23.1392C22.9924 23.1392 22.7336 23.3975 22.7336 23.7131C22.7336 24.0288 22.9924 24.287 23.3088 24.287C23.6251 24.287 23.8839 24.0288 23.8839 23.7131C23.8839 23.3975 23.6251 23.1392 23.3088 23.1392Z" fill="#32297C"/>
<path d="M8.4766 16.2524C8.79291 16.2524 9.05171 15.9941 9.05171 15.6785C9.05171 15.3628 8.79291 15.1046 8.4766 15.1046C8.16029 15.1046 7.90149 15.3628 7.90149 15.6785C7.90149 15.9941 8.16029 16.2524 8.4766 16.2524Z" fill="#32297C"/>
</svg>
