<svg width="31" height="26" viewBox="0 0 31 26" fill="none" xmlns="http://www.w3.org/2000/svg">
<path d="M28.9341 22.7325H28.1002V16.2395C28.1002 16.0037 27.9047 15.8082 27.6689 15.8082C27.4331 15.8082 27.2375 16.0037 27.2375 16.2395V22.7325H12.1696V16.3488C12.1696 16.113 11.9741 15.9174 11.7383 15.9174H6.05617C5.81463 15.9174 5.62484 16.113 5.62484 16.3488V22.7325H3.57744V14.2381L27.2375 8.14769V14.5142C27.2375 14.75 27.4331 14.9455 27.6689 14.9455C27.9047 14.9455 28.1002 14.75 28.1002 14.5142V7.58983C28.1002 7.45756 28.0369 7.33103 27.9334 7.25052C27.8299 7.17 27.6919 7.14124 27.5596 7.17575L25.4432 7.72211L25.0406 3.26499L24.8566 1.20609C24.8393 0.981799 24.6553 0.809265 24.431 0.809265H21.5784C21.3541 0.809265 21.1701 0.981799 21.1471 1.20034L20.9631 3.25924L20.4455 9.00461L17.9897 9.63723L17.5584 4.84655L17.3744 2.78765C17.3571 2.56336 17.1673 2.39657 16.943 2.39657H14.0905C13.8662 2.39657 13.6822 2.56911 13.6591 2.78765L13.4751 4.84655L12.923 10.9427L10.5305 11.5581L10.0705 6.42811L9.88642 4.36921C9.86916 4.14491 9.67938 3.97813 9.45508 3.97813H6.60253C6.37824 3.97813 6.1942 4.15066 6.1712 4.36921L5.77437 8.77456C5.75137 9.01036 5.92965 9.22315 6.16545 9.24615C6.40124 9.26916 6.61403 9.09087 6.63704 8.85508L6.81532 6.90545H9.24804L9.68513 11.7766L6.29197 12.6508L6.48176 10.5804C6.50476 10.3446 6.32648 10.1318 6.09068 10.1088C5.85489 10.0858 5.64209 10.2641 5.61909 10.4999L5.4063 12.8809L3.04834 13.4905C2.85855 13.5422 2.72628 13.709 2.72628 13.9103V22.7383H2.13391C1.40352 22.7383 0.811157 23.3306 0.811157 24.061C0.811157 24.7914 1.40352 25.3838 2.13391 25.3838H14.8324C15.0739 25.3838 15.2637 25.1882 15.2637 24.9524C15.2637 24.7167 15.0682 24.5211 14.8324 24.5211H2.13391C1.88086 24.5211 1.67382 24.3141 1.67382 24.061C1.67382 23.808 1.88086 23.6009 2.13391 23.6009H28.9341C29.1814 23.6009 29.3942 23.808 29.3942 24.061C29.3942 24.3141 29.1872 24.5211 28.9341 24.5211H16.5577C16.3162 24.5211 16.1264 24.7167 16.1264 24.9524C16.1264 25.1882 16.3219 25.3838 16.5577 25.3838H28.9341C29.6645 25.3838 30.2569 24.7914 30.2569 24.061C30.2569 23.3306 29.6645 22.7325 28.9341 22.7325ZM6.87858 6.03703L6.98786 4.8408H9.05251L9.16178 6.03703H6.87858ZM24.0342 1.67193L24.1434 2.86816H21.866L21.9753 1.67193H24.0342ZM21.7855 3.73658H24.2182L24.5978 7.9349L21.3311 8.77456L21.7855 3.73658ZM16.5462 3.25924L16.6555 4.45547H14.378L14.4873 3.25924H16.5462ZM14.2918 5.31814H16.7245L17.1328 9.85577L13.8087 10.7127L14.2918 5.31814ZM6.48751 16.7859H11.3012V22.7383H6.48751V16.7859Z" fill="#32297C"/>
<path d="M17.1737 13.9334C17.1737 13.6976 16.9781 13.502 16.7423 13.502H15.0165C14.7749 13.502 14.5851 13.6976 14.5851 13.9334V16.0906C14.5851 16.3264 14.7807 16.522 15.0165 16.522H16.7423C16.9839 16.522 17.1737 16.3264 17.1737 16.0906V13.9334ZM16.3108 15.6591H15.448V14.3706H16.3108V15.6591Z" fill="#32297C"/>
<path d="M16.7423 17.9131H15.0165C14.7749 17.9131 14.5851 18.1087 14.5851 18.3445V20.5017C14.5851 20.7375 14.7807 20.9331 15.0165 20.9331H16.7423C16.9839 20.9331 17.1737 20.7375 17.1737 20.5017V18.3445C17.1737 18.1087 16.9839 17.9131 16.7423 17.9131ZM16.3108 20.0703H15.448V18.7817H16.3108V20.0703Z" fill="#32297C"/>
<path d="M21.5504 13.9334C21.5504 13.6976 21.3548 13.502 21.119 13.502H19.3932C19.1516 13.502 18.9618 13.6976 18.9618 13.9334V16.0906C18.9618 16.3264 19.1574 16.522 19.3932 16.522H21.119C21.3606 16.522 21.5504 16.3264 21.5504 16.0906V13.9334ZM20.6875 15.6591H19.8247V14.3706H20.6875V15.6591Z" fill="#32297C"/>
<path d="M21.119 17.9131H19.3932C19.1516 17.9131 18.9618 18.1087 18.9618 18.3445V20.5017C18.9618 20.7375 19.1574 20.9331 19.3932 20.9331H21.119C21.3606 20.9331 21.5504 20.7375 21.5504 20.5017V18.3445C21.5504 18.1087 21.3606 17.9131 21.119 17.9131ZM20.6875 20.0703H19.8247V18.7817H20.6875V20.0703Z" fill="#32297C"/>
<path d="M25.9269 13.9334C25.9269 13.6976 25.7313 13.502 25.4954 13.502H23.7697C23.5281 13.502 23.3383 13.6976 23.3383 13.9334V16.0906C23.3383 16.3264 23.5338 16.522 23.7697 16.522H25.4954C25.737 16.522 25.9269 16.3264 25.9269 16.0906V13.9334ZM25.064 15.6591H24.2011V14.3706H25.064V15.6591Z" fill="#32297C"/>
<path d="M25.4954 17.9131H23.7697C23.5281 17.9131 23.3383 18.1087 23.3383 18.3445V20.5017C23.3383 20.7375 23.5338 20.9331 23.7697 20.9331H25.4954C25.737 20.9331 25.9269 20.7375 25.9269 20.5017V18.3445C25.9269 18.1087 25.7313 17.9131 25.4954 17.9131ZM25.064 20.0703H24.2011V18.7817H25.064V20.0703Z" fill="#32297C"/>
</svg>
