<svg width="30" height="30" viewBox="0 0 30 30" fill="none" xmlns="http://www.w3.org/2000/svg">
<path d="M29.1125 28.7549H28.3706L26.6395 13.224H26.8983C27.1341 13.224 27.3297 13.0271 27.3297 12.7897C27.3297 12.5523 27.1341 12.3554 26.8983 12.3554L26.1104 12.3612V10.7977H26.6338C26.8696 10.7977 27.0651 10.6008 27.0651 10.3634C27.0651 10.126 26.8696 9.92908 26.6338 9.92908H26.1104V9.34421H26.1162C26.352 9.34421 26.5475 9.14732 26.5475 8.9099C26.5475 8.67248 26.352 8.47559 26.1162 8.47559H26.1104V8.3424C26.1104 8.10498 25.9149 7.9081 25.6791 7.9081C25.4433 7.9081 25.2478 8.10498 25.2478 8.3424V8.47559H25.242C25.0062 8.47559 24.8107 8.67248 24.8107 8.9099C24.8107 9.14732 25.0062 9.34421 25.242 9.34421H25.2478V9.92908H24.7244C24.4886 9.92908 24.2931 10.126 24.2931 10.3634C24.2931 10.6008 24.4886 10.7977 24.7244 10.7977H25.2478V12.367L22.7115 12.3786V10.7977H23.2349C23.4707 10.7977 23.6662 10.6008 23.6662 10.3634C23.6662 10.126 23.4707 9.92908 23.2349 9.92908H22.7115V9.34421H22.7173C22.9531 9.34421 23.1486 9.14732 23.1486 8.9099C23.1486 8.67248 22.9531 8.47559 22.7173 8.47559H22.7115V8.3424C22.7115 8.10498 22.516 7.9081 22.2802 7.9081C22.0444 7.9081 21.8489 8.10498 21.8489 8.3424V8.47559H21.8431C21.6073 8.47559 21.4118 8.67248 21.4118 8.9099C21.4118 9.14732 21.6073 9.34421 21.8431 9.34421H21.8489V9.92908H21.3255C21.0897 9.92908 20.8942 10.126 20.8942 10.3634C20.8942 10.6008 21.0897 10.7977 21.3255 10.7977H21.8489V12.3844L21.0552 12.3902C20.8194 12.3902 20.6239 12.587 20.6239 12.8245C20.6239 13.0619 20.8194 13.2588 21.0552 13.2588H21.3083L21.0437 15.6272C20.6124 15.465 19.9913 15.3782 19.2896 15.7083C18.6512 16.0094 18.3752 16.5711 18.1739 16.9822C18.1106 17.1096 18.0589 17.2081 18.0129 17.2833V6.4025C18.0129 6.16508 17.8173 5.96819 17.5815 5.96819H16.0287V1.16764C16.0287 0.930223 15.8332 0.733337 15.5974 0.733337H13.6765C13.4407 0.733337 13.2452 0.930223 13.2452 1.16764C13.2452 1.40507 13.4407 1.60195 13.6765 1.60195H15.1661V5.96819H4.30221V1.60195H11.9627C12.1985 1.60195 12.394 1.40507 12.394 1.16764C12.394 0.930223 12.2042 0.733337 11.9627 0.733337H3.87088C3.63508 0.733337 3.43954 0.930223 3.43954 1.16764V5.96819H1.88674C1.65095 5.96819 1.45541 6.16508 1.45541 6.4025V19.3217H1.11034C0.753772 19.3217 0.460465 19.617 0.460465 19.9761V21.0647C0.460465 21.4237 0.753772 21.7191 1.11034 21.7191H1.45541V28.7549H0.529478C0.293682 28.7549 0.0981445 28.9517 0.0981445 29.1892C0.0981445 29.4266 0.293682 29.6235 0.529478 29.6235H29.1125C29.3483 29.6235 29.5439 29.4266 29.5439 29.1892C29.5439 28.9517 29.3483 28.7549 29.1125 28.7549ZM20.4571 28.7549L20.8654 25.0719L26.49 26.9134L22.5045 28.7491H20.4571V28.7549ZM21.8374 16.351L21.9006 15.7951L25.5871 17.4744L21.5211 19.1711L21.8374 16.351ZM27.2204 26.2417L21.8891 24.4929L26.8351 22.7556L27.2204 26.2417ZM26.6971 21.5164L22.2342 19.8139L26.3175 18.1114L26.6971 21.5164ZM21.383 20.4219L25.9379 22.1592L20.9977 23.8964L21.383 20.4219ZM27.3584 27.4751L27.5022 28.7549H24.5806L27.3584 27.4751ZM26.168 16.7911L22.4642 15.1002L25.5181 13.2298H25.7769L26.168 16.7911ZM23.8445 13.2414L22.0674 14.3301L22.1882 13.2472L23.8445 13.2414ZM2.31808 6.83681H17.1617V19.3217H2.31808V6.83681ZM1.32313 20.1903H18.1624V20.8505H1.32313V20.1903ZM6.63716 25.5062H9.31143V28.7549H6.63716V25.5062ZM10.1741 28.7549V25.5062H12.8484V28.7549H10.1741ZM13.7053 28.7549V25.5062H13.757C13.9928 25.5062 14.1884 25.3094 14.1884 25.0719C14.1884 24.8345 13.9928 24.6376 13.757 24.6376H5.72274C5.48694 24.6376 5.2914 24.8345 5.2914 25.0719C5.2914 25.3094 5.48694 25.5062 5.72274 25.5062H5.7745V28.7549H2.31808V21.7191H17.1617V24.2033C17.1617 24.4407 17.3572 24.6376 17.593 24.6376C17.8288 24.6376 18.0244 24.4407 18.0244 24.2033V21.7191H18.3694C18.726 21.7191 19.0193 21.4237 19.0193 21.0647V19.9761C19.0193 19.617 18.726 19.3217 18.3694 19.3217H18.0244V18.3431C18.5362 18.2157 18.772 17.735 18.9561 17.3644C19.1343 17.0054 19.3011 16.6637 19.6634 16.49C20.2213 16.2236 20.6986 16.3916 20.9517 16.5248L19.5887 28.7549H18.0244V25.9405C18.0244 25.7031 17.8288 25.5062 17.593 25.5062C17.3572 25.5062 17.1617 25.7031 17.1617 25.9405V28.7549H13.7053Z" fill="#32297C"/>
<path d="M5.84337 5.42386C5.91814 5.47597 6.0044 5.50493 6.09067 5.50493C6.2287 5.50493 6.36097 5.44123 6.44149 5.31962L7.51695 3.77928C7.60897 3.64609 7.62047 3.47237 7.5457 3.3276C7.47094 3.18283 7.32141 3.09597 7.16038 3.09597H6.67729L6.92458 2.7601C7.06836 2.56901 7.02235 2.29684 6.83257 2.15207C6.64278 2.0073 6.37248 2.05363 6.2287 2.24472L5.48105 3.26969C5.38328 3.40288 5.37178 3.5766 5.44655 3.72137C5.52131 3.86614 5.67084 3.95879 5.83187 3.95879H6.33222L5.73985 4.82162C5.60183 5.0185 5.64784 5.28488 5.84337 5.42386Z" fill="#32297C"/>
<path d="M13.2911 2.44162H8.9433C8.7075 2.44162 8.51196 2.63851 8.51196 2.87593C8.51196 3.11335 8.7075 3.31023 8.9433 3.31023H13.2911C13.5269 3.31023 13.7225 3.11335 13.7225 2.87593C13.7225 2.63851 13.5269 2.44162 13.2911 2.44162Z" fill="#32297C"/>
<path d="M13.2911 4.26569H8.9433C8.7075 4.26569 8.51196 4.46257 8.51196 4.69999C8.51196 4.93742 8.7075 5.1343 8.9433 5.1343H13.2911C13.5269 5.1343 13.7225 4.93742 13.7225 4.69999C13.7225 4.46257 13.5269 4.26569 13.2911 4.26569Z" fill="#32297C"/>
<path d="M6.06198 13.832H4.26188C3.94557 13.832 3.68677 14.0926 3.68677 14.4111V17.7813C3.68677 18.0998 3.94557 18.3604 4.26188 18.3604H6.06198C6.37829 18.3604 6.63709 18.0998 6.63709 17.7813V14.4111C6.63709 14.0926 6.37829 13.832 6.06198 13.832ZM5.77442 17.4918H4.54944V14.7064H5.77442V17.4918Z" fill="#32297C"/>
<path d="M15.2179 13.832H13.4178C13.1015 13.832 12.8427 14.0926 12.8427 14.4111V17.7813C12.8427 18.0998 13.1015 18.3604 13.4178 18.3604H15.2179C15.5342 18.3604 15.793 18.0998 15.793 17.7813V14.4111C15.793 14.0926 15.5342 13.832 15.2179 13.832ZM14.9303 17.4918H13.7053V14.7064H14.9303V17.4918Z" fill="#32297C"/>
<path d="M6.06198 7.80383H4.26188C3.94557 7.80383 3.68677 8.06442 3.68677 8.38291V11.7531C3.68677 12.0716 3.94557 12.3322 4.26188 12.3322H6.06198C6.37829 12.3322 6.63709 12.0716 6.63709 11.7531V8.37712C6.63709 8.05863 6.37829 7.80383 6.06198 7.80383ZM5.77442 11.4578H4.54944V8.67245H5.77442V11.4578Z" fill="#32297C"/>
<path d="M10.64 7.80383H8.83988C8.52357 7.80383 8.26477 8.06442 8.26477 8.38291V11.7531C8.26477 12.0716 8.52357 12.3322 8.83988 12.3322H10.64C10.9563 12.3322 11.2151 12.0716 11.2151 11.7531V8.37712C11.2151 8.05863 10.9563 7.80383 10.64 7.80383ZM10.3524 11.4578H9.12744V8.67245H10.3524V11.4578Z" fill="#32297C"/>
<path d="M15.2179 7.80383H13.4178C13.1015 7.80383 12.8427 8.06442 12.8427 8.38291V11.7531C12.8427 12.0716 13.1015 12.3322 13.4178 12.3322H15.2179C15.5342 12.3322 15.793 12.0716 15.793 11.7531V8.37712C15.793 8.05863 15.5342 7.80383 15.2179 7.80383ZM14.9303 11.4578H13.7053V8.67245H14.9303V11.4578Z" fill="#32297C"/>
<path d="M10.64 13.832H8.83988C8.52357 13.832 8.26477 14.0926 8.26477 14.4111V15.465C8.26477 15.7024 8.46031 15.8993 8.6961 15.8993C8.9319 15.8993 9.12744 15.7024 9.12744 15.465V14.7006H10.3524V17.486H9.12744V17.2023C9.12744 16.9648 8.9319 16.7679 8.6961 16.7679C8.46031 16.7679 8.26477 16.9648 8.26477 17.2023V17.7755C8.26477 18.094 8.52357 18.3546 8.83988 18.3546H10.64C10.9563 18.3546 11.2151 18.094 11.2151 17.7755V14.4053C11.2151 14.0926 10.9563 13.832 10.64 13.832Z" fill="#32297C"/>
</svg>
