<svg width="30" height="34" viewBox="0 0 30 34" fill="none" xmlns="http://www.w3.org/2000/svg">
<path d="M20.3881 27.3339C20.7327 27.3339 21.0177 27.0487 21.0177 26.7038V24.555C21.0177 24.2101 20.7327 23.9249 20.3881 23.9249H18.2408C17.8962 23.9249 17.6112 24.2101 17.6112 24.555V26.7038C17.6112 27.0487 17.8962 27.3339 18.2408 27.3339H20.3881ZM18.6119 24.9198H20.0302V26.339H18.6119V24.9198Z" fill="#32297C"/>
<path d="M25.584 27.3339C25.9286 27.3339 26.2136 27.0487 26.2136 26.7038V24.555C26.2136 24.2101 25.9286 23.9249 25.584 23.9249H23.4367C23.0921 23.9249 22.8071 24.2101 22.8071 24.555V26.7038C22.8071 27.0487 23.0921 27.3339 23.4367 27.3339H25.584ZM23.8012 24.9198H25.2195V26.339H23.8012V24.9198Z" fill="#32297C"/>
<path d="M29.1164 32.9845H28.4537V22.4858C28.4537 22.1342 28.2283 21.8424 27.9102 21.7363V16.7688C27.9102 16.4969 27.6849 16.2714 27.4132 16.2714C27.1414 16.2714 26.9161 16.4969 26.9161 16.7688V17.7438H22.4095V13.3201C22.4095 13.0482 22.1841 12.8227 21.9124 12.8227C21.6407 12.8227 21.4153 13.0482 21.4153 13.3201V13.7844H16.9087V13.3201C16.9087 13.0482 16.6834 12.8227 16.4117 12.8227C16.1399 12.8227 15.9146 13.0482 15.9146 13.3201V20.2109C15.6097 20.317 15.3844 20.6088 15.3844 20.9537V25.1253C15.3844 25.3973 15.6097 25.6228 15.8815 25.6228C16.1532 25.6228 16.3785 25.3973 16.3785 25.1253V21.1593H22.8071V21.9751C22.8071 22.3664 23.1252 22.6913 23.5229 22.6913H27.4595V32.9845H24.0332V29.4495C24.0332 29.1046 23.7482 28.8195 23.4036 28.8195H20.4212C20.0766 28.8195 19.7916 29.1046 19.7916 29.4495V32.9845H16.3785V27.4466C16.3785 27.1747 16.1532 26.9492 15.8815 26.9492C15.6097 26.9492 15.3844 27.1747 15.3844 27.4466V32.9845H14.7217C14.4499 32.9845 14.2246 33.21 14.2246 33.4819C14.2246 33.7538 14.4499 33.9793 14.7217 33.9793H29.1098C29.3815 33.9793 29.6068 33.7538 29.6068 33.4819C29.6135 33.21 29.3881 32.9845 29.1164 32.9845ZM21.4153 14.7792V17.7438H16.9087V14.7792H21.4153ZM16.9087 18.7319H21.4153V20.1645H16.9087V18.7319ZM23.0192 20.1645H22.4161V18.7319H26.9227V21.6965H23.8078V20.9537C23.8012 20.516 23.45 20.1645 23.0192 20.1645ZM20.7857 29.8143H23.0391V32.9845H20.7857V29.8143Z" fill="#32297C"/>
<path d="M11.9513 31.0545C11.8718 30.7826 11.6199 30.5969 11.3349 30.5969H10.5662V9.04238H11.0235C11.2554 9.04238 11.4741 8.9429 11.6265 8.76383C11.779 8.58476 11.8386 8.35264 11.7989 8.12051L11.7392 7.76901H16.4646C16.7363 7.76901 16.9616 7.54351 16.9616 7.27159C16.9616 6.99968 16.7363 6.77418 16.4646 6.77418H11.5603L11.3416 5.51407H26.7901C27.1413 5.51407 27.4197 5.79925 27.4197 6.14413C27.4197 6.489 27.1347 6.77418 26.7901 6.77418H18.7842C18.5124 6.77418 18.2871 6.99968 18.2871 7.27159C18.2871 7.54351 18.5124 7.76901 18.7842 7.76901H25.0073V11.1647C24.3379 11.3769 23.8475 12.007 23.8475 12.7431C23.8475 13.6584 24.5898 14.4012 25.5043 14.4012C26.4189 14.4012 27.1612 13.6584 27.1612 12.7431C27.1612 12.4712 26.9359 12.2457 26.6641 12.2457C26.3924 12.2457 26.1671 12.4712 26.1671 12.7431C26.1671 13.1079 25.8688 13.4063 25.5043 13.4063C25.1398 13.4063 24.8416 13.1079 24.8416 12.7431C24.8416 12.3784 25.1398 12.0799 25.5043 12.0799C25.7761 12.0799 26.0014 11.8544 26.0014 11.5825V7.76237H26.7901C27.6848 7.76237 28.4138 7.03284 28.4138 6.13749C28.4138 5.24215 27.6848 4.51262 26.7901 4.51262H23.1649L8.51829 0.0425405C8.45202 0.022644 8.40563 0.022644 8.35261 0.022644C8.25983 0.0292762 8.1803 0.0558048 8.1074 0.10223C8.06763 0.128759 8.65084 -0.269171 1.59265 4.51925H0.876893C0.479248 4.51925 0.161133 4.83759 0.161133 5.22889V7.05273C0.161133 7.44403 0.479248 7.76901 0.876893 7.76901H1.85112V9.53979H0.949794C0.519013 9.53979 0.161133 9.8913 0.161133 10.329V12.0666C0.161133 12.4977 0.512385 12.8559 0.949794 12.8559H3.73993C4.17071 12.8559 4.52859 12.5044 4.52859 12.0666V10.329C4.52859 9.89793 4.17734 9.53979 3.73993 9.53979H2.83861V7.76901H5.03891L4.97926 8.12051C4.93949 8.35264 5.00577 8.58476 5.15157 8.76383C5.304 8.9429 5.52271 9.04238 5.75467 9.04238H6.17882V30.5969H5.40341C5.11843 30.5969 4.87322 30.7826 4.78706 31.0545L4.15083 33.1503C4.09119 33.3426 4.13095 33.5548 4.25024 33.7206C4.36954 33.8864 4.56173 33.9793 4.76718 33.9793H11.9712C12.1766 33.9793 12.3688 33.8798 12.4881 33.7206C12.6074 33.5548 12.6472 33.3426 12.5875 33.1503L11.9513 31.0545ZM3.53448 11.8544H1.15524V10.5346H3.53448V11.8544ZM9.57205 26.0539L7.79591 24.0974H9.57205V26.0539ZM9.57205 22.3067L7.80254 20.3502H9.57205V22.3067ZM9.57205 18.5595L7.80254 16.603H9.57205V18.5595ZM9.57205 14.8124L7.80254 12.8559H9.57205V14.8124ZM8.94908 15.6016H7.17956V13.6451L8.94908 15.6016ZM8.94908 19.3554H7.17956V17.3989L8.94908 19.3554ZM8.94908 23.1026H7.17956V21.1461L8.94908 23.1026ZM7.17293 24.8866L8.94245 26.8431H7.17293V24.8866ZM7.17293 11.8544V9.89793L8.94245 11.8544H7.17293ZM9.57205 27.8446V29.801L7.80254 27.8446H9.57205ZM9.57205 11.0652L7.74289 9.04238H9.57205V11.0652ZM11.1693 4.51925L11.0632 3.89582C10.9969 3.51779 10.6722 3.24587 10.2878 3.24587H8.86955V1.1899L19.765 4.51262L11.1693 4.51925ZM7.87544 1.45519V3.23924H6.48368C6.09929 3.23924 5.77455 3.51116 5.70827 3.88919L5.60223 4.51262H3.36217L7.87544 1.45519ZM2.34818 6.77418H1.15524V5.51407H5.42992L5.21122 6.77418H2.34818ZM6.11917 7.37108V7.36444L6.66262 4.23407H10.1155L10.7716 8.04092H5.99988L6.11917 7.37108ZM7.17293 28.6338L8.94245 30.5903H7.17293V28.6338ZM5.24435 32.9845L5.66851 31.5917H11.0765L11.5006 32.9845H5.24435Z" fill="#32297C"/>
</svg>
