<svg width="30" height="35" viewBox="0 0 30 35" fill="none" xmlns="http://www.w3.org/2000/svg">
<path d="M28.3199 19.2597H10.7192V18.3211C10.7192 17.4809 10.039 16.7983 9.20181 16.7983H4.33561C4.14594 16.7983 3.96934 16.8311 3.79929 16.8968V13.6281C3.79929 13.103 3.37415 12.6763 2.8509 12.6763H1.31386C0.790617 12.6763 0.365479 13.103 0.365479 13.6281V29.7418C0.365479 30.0109 0.587858 30.2341 0.856022 30.2341C1.12419 30.2341 1.34657 30.0109 1.34657 29.7418V13.6675H2.82474V33.1549H1.34657V32.039C1.34657 31.7699 1.12419 31.5468 0.856022 31.5468C0.587858 31.5468 0.365479 31.7634 0.365479 32.039V33.1877C0.365479 33.7128 0.790617 34.1394 1.31386 34.1394H2.85744C3.38069 34.1394 3.80583 33.7128 3.80583 33.1877V30.0371H9.74468V30.7263C9.74468 31.468 10.3464 32.0784 11.092 32.0784H26.24V33.1877C26.24 33.7128 26.6652 34.1394 27.1884 34.1394H28.732C29.2552 34.1394 29.6804 33.7128 29.6804 33.1877V30.7263V20.6118C29.6673 19.8635 29.0656 19.2597 28.3199 19.2597ZM9.73814 26.6044H3.80583V21.8523H9.74468V26.6044H9.73814ZM4.33561 17.7828H9.20181C9.49614 17.7828 9.73814 18.0257 9.73814 18.3211V20.8678H3.80583V18.3211C3.80583 18.0257 4.04129 17.7828 4.33561 17.7828ZM3.80583 29.0592V27.6414H9.74468V29.0592H3.80583ZM10.7192 30.7329C10.7192 29.5711 10.7192 21.872 10.7192 20.2442H28.3199C28.5227 20.2442 28.6862 20.4083 28.6862 20.6118V30.7329C28.6862 30.9364 28.5227 31.1005 28.3199 31.1005C27.6397 31.1005 11.8573 31.1005 11.079 31.1005C10.8827 31.0939 10.7192 30.9298 10.7192 30.7329ZM28.6862 33.1549H27.208V32.0784H28.3199C28.3592 32.0784 28.405 32.0784 28.4442 32.0719C28.4573 32.0719 28.4638 32.0719 28.4769 32.0719C28.5162 32.0653 28.5489 32.0653 28.5881 32.0522C28.5946 32.0522 28.5946 32.0522 28.6012 32.0522C28.6339 32.0456 28.6601 32.039 28.6928 32.0325L28.6862 33.1549Z" fill="#32297C"/>
<path d="M28.9152 12.5319C24.8469 12.5319 25.1151 12.5254 25.0104 12.5451C24.9319 12.5254 24.9581 12.5319 24.2452 12.5319L23.1398 11.9149H28.4377C29.1964 11.9149 29.8112 11.298 29.8112 10.5366C29.8112 9.7752 29.1964 9.15822 28.4377 9.15822H27.9014C27.607 8.08179 27.1296 7.07755 26.4755 6.16521C26.3186 5.94205 26.0111 5.8961 25.7888 6.05363C25.5664 6.21115 25.5206 6.51964 25.6776 6.74281C26.2074 7.4845 26.6129 8.29839 26.881 9.15822H10.6539C11.7592 5.58105 15.0295 3.17219 18.7707 3.17219C20.7525 3.17219 22.6885 3.86794 24.2125 5.15441C24.4218 5.33163 24.7292 5.29881 24.9058 5.09534C25.0824 4.89186 25.0497 4.57681 24.8469 4.39959C23.4734 3.25096 21.8055 2.51583 20.0396 2.27954V1.80696C20.0396 1.10465 19.4706 0.533615 18.7707 0.533615C18.0709 0.533615 17.5018 1.10465 17.5018 1.80696V2.2861C15.8013 2.51583 14.1792 3.21158 12.8319 4.29457C11.2883 5.54166 10.1568 7.26133 9.63352 9.16479H9.1953C8.43659 9.16479 7.82178 9.78177 7.82178 10.5431C7.82178 11.3045 8.43659 11.9215 9.1953 11.9215H12.0797C12.0143 12.02 11.9554 12.125 11.9162 12.2366C11.8115 12.5188 11.9162 12.8404 12.1582 12.9914L16.6058 15.8728C16.6712 15.9188 16.7497 15.945 16.8347 15.9516C23.3622 16.457 21.7205 16.3191 24.4022 16.5883V17.1987C24.4022 17.6122 24.7423 17.9535 25.1543 17.9535H26.2989C26.3578 18.3079 26.6652 18.5836 27.038 18.5836H28.9152C29.3272 18.5836 29.6673 18.2423 29.6673 17.8288V13.2867C29.6673 12.8732 29.3338 12.5319 28.9152 12.5319ZM18.4829 2.20078V1.80696C18.4829 1.64943 18.6137 1.51816 18.7707 1.51816C18.9277 1.51816 19.0585 1.64943 19.0585 1.80696V2.20078C19.052 2.20078 19.0454 2.20078 19.0389 2.20078C18.8427 2.19421 18.6791 2.19421 18.4829 2.20078ZM28.4442 10.1493C28.6601 10.1493 28.8367 10.3265 28.8367 10.5431C28.8367 10.7597 28.6601 10.937 28.4442 10.937H21.3804C20.1769 10.2675 20.7198 10.471 19.3463 10.1559H28.4442V10.1493ZM8.80287 10.5431C8.80287 10.3265 8.97946 10.1493 9.1953 10.1493H16.7889C16.6908 10.32 16.6319 10.6285 16.6712 10.9304H9.1953C8.97946 10.9304 8.80287 10.7597 8.80287 10.5431ZM17.286 11.9149C17.3645 11.9675 17.4495 12.0134 17.5345 12.0528L18.6726 12.5516C18.3979 12.5713 17.9401 12.5976 16.8609 12.6632L15.0426 11.9149H17.286ZM17.0375 14.9802L12.9954 12.3613C13.0215 12.3416 13.0477 12.3285 13.0739 12.3153C13.1851 12.2628 13.3093 12.2628 13.4205 12.3088L16.5927 13.6149C16.6581 13.6412 16.7366 13.6543 16.8085 13.6477C18.9604 13.5165 18.8557 13.5296 19.3463 13.4705C19.7453 13.4246 20.0527 13.0964 20.0788 12.7026C20.1246 12.0922 19.6145 11.8821 19.3136 11.7574C19.2678 11.7377 19.222 11.718 19.1697 11.6983L17.9204 11.147C17.9139 11.147 17.9139 11.1404 17.9074 11.1404C17.7765 11.0879 17.6719 10.9632 17.6392 10.8123C17.6392 10.7926 17.6327 10.7794 17.6327 10.7597L20.0723 11.3308L23.8724 13.4574C24.0097 13.5362 24.1013 13.5165 24.3956 13.5165V15.5971C21.5962 15.3149 23.6827 15.4921 17.0375 14.9802ZM25.3898 13.5165H26.2924V16.9689H25.3898C25.3898 16.2469 25.3898 14.14 25.3898 13.5165ZM28.6862 17.5991H27.2735V17.4678V13.523H28.6862V17.5991Z" fill="#32297C"/>
</svg>
