<svg width="31" height="31" viewBox="0 0 31 31" fill="none" xmlns="http://www.w3.org/2000/svg">
<path d="M9.14987 18.2664H5.22388V19.2479H9.14987V18.2664Z" fill="#32297C"/>
<path d="M30.203 23.9347L28.7308 20.9901C28.6449 20.8245 28.4793 20.7202 28.2891 20.7202H25.3446V19.2479C25.3446 18.978 25.1238 18.7571 24.8538 18.7571H15.0388C14.7689 18.7571 14.5481 18.978 14.5481 19.2479V28.0816C14.5481 28.3515 14.7689 28.5724 15.0388 28.5724H17.0693C17.3331 29.6152 18.4005 30.2532 19.4433 29.9833C20.1365 29.8054 20.6763 29.2656 20.8542 28.5724H24.4306C24.6943 29.6152 25.7617 30.2532 26.8046 29.9833C27.4978 29.8054 28.0376 29.2656 28.2155 28.5724H29.7613C30.0312 28.5724 30.2521 28.3515 30.2521 28.0816V24.1555C30.2521 24.0819 30.2337 24.0021 30.203 23.9347ZM18.9648 29.0631C18.425 29.0631 17.9833 28.6214 17.9833 28.0816C17.9833 27.5418 18.425 27.1001 18.9648 27.1001C19.5047 27.1001 19.9463 27.5418 19.9463 28.0816C19.9463 28.6214 19.5047 29.0631 18.9648 29.0631ZM24.3631 27.5908H20.8604C20.6395 26.7259 19.8605 26.1186 18.9648 26.1186C18.0692 26.1186 17.2963 26.7259 17.0693 27.5908H15.5296V19.7386H24.3631V27.5908ZM27.3076 21.7017H27.9885L28.97 23.6647H27.3076V21.7017ZM26.3261 29.0631C25.7863 29.0631 25.3446 28.6214 25.3446 28.0816C25.3446 27.5418 25.7863 27.1001 26.3261 27.1001C26.8659 27.1001 27.3076 27.5418 27.3076 28.0816C27.3076 28.6214 26.8659 29.0631 26.3261 29.0631ZM29.2706 27.5908H28.2216C28.0008 26.7259 27.2217 26.1186 26.3261 26.1186C25.9826 26.1186 25.639 26.2167 25.3446 26.3946V21.7017H26.3261V24.1555C26.3261 24.4254 26.5469 24.6463 26.8168 24.6463H29.2706V27.5908Z" fill="#32297C"/>
<path d="M12.585 7.4696H11.6035V8.45113H12.585V7.4696Z" fill="#32297C"/>
<path d="M14.5481 7.4696H13.5667V8.45113H14.5481V7.4696Z" fill="#32297C"/>
<path d="M16.511 7.4696H15.5295V8.45113H16.511V7.4696Z" fill="#32297C"/>
<path d="M18.4741 7.4696H17.4926V8.45113H18.4741V7.4696Z" fill="#32297C"/>
<path d="M27.8413 8.79467L26.32 7.2733C25.1912 6.14455 23.6576 5.50656 22.0627 5.50656H18.2594L15.9529 1.81357C15.8609 1.67248 15.7075 1.58046 15.5357 1.58046H14.0635C13.7936 1.58046 13.5727 1.80131 13.5727 2.07122C13.5727 2.11417 13.5789 2.15097 13.585 2.18778L14.4131 5.50656H10.4994L9.13144 0.948606C9.0701 0.740032 8.87994 0.598938 8.6591 0.598938H6.20535C5.93544 0.598938 5.7146 0.819781 5.7146 1.0897V5.99732H5.72073C5.72073 6.12615 5.76981 6.24884 5.86182 6.34699L8.92901 9.41425C10.1927 10.6902 11.9164 11.4018 13.7138 11.3957H13.8488L12.628 14.144C12.5176 14.3894 12.628 14.6838 12.8795 14.7942C12.8918 14.8004 12.9102 14.8065 12.9225 14.8126L14.3947 15.3034C14.6033 15.3709 14.8303 15.2973 14.953 15.1194L17.5539 11.4018H26.7739C27.6143 11.4018 28.2952 10.7209 28.3014 9.88048C28.2891 9.46947 28.1296 9.08299 27.8413 8.79467ZM15.2597 2.56199L17.1 5.50656H15.4253L14.6892 2.56199H15.2597ZM6.6961 1.58046H8.29104L9.46883 5.50656H6.6961V1.58046ZM14.3518 14.2483L13.7384 14.0458L15.3517 10.4142H17.0325L14.3518 14.2483ZM27.2646 10.0768C27.1849 10.2854 26.9825 10.4142 26.7616 10.4142H18.2287L18.3759 10.2056C18.5293 9.98477 18.4741 9.67804 18.2533 9.52468C18.1735 9.46947 18.0754 9.43879 17.9711 9.43879H15.0266C14.8303 9.43879 14.6585 9.55535 14.5788 9.73325L14.272 10.4203H13.7016C12.168 10.4265 10.6957 9.813 9.60993 8.72105L7.38928 6.48808H22.0627C23.1301 6.49422 24.1729 6.83775 25.0379 7.46961H21.4186V8.45113H26.1053L27.1481 9.494C27.3076 9.64123 27.3505 9.87434 27.2646 10.0768Z" fill="#32297C"/>
<path d="M12.8365 28.7011C12.5298 28.3699 12.1127 28.1552 11.6649 28.0938L13.5359 22.8488C13.6279 22.5912 13.4929 22.3151 13.2353 22.2231H13.2291L12.0329 21.8243L11.1005 16.7143C11.0576 16.4812 10.8551 16.3094 10.6159 16.3094H8.6529V14.8371C8.6529 14.5672 8.43206 14.3464 8.16215 14.3464H6.20528C5.93537 14.3464 5.71453 14.5672 5.71453 14.8371V16.3094H3.75153C3.51229 16.3094 3.30986 16.4812 3.26692 16.7143L2.34063 21.8182L1.14443 22.2169C0.886782 22.3028 0.745692 22.5789 0.831573 22.8365C0.831573 22.8365 0.831573 22.8427 0.837707 22.8427L2.70869 28.0938C2.26088 28.1552 1.84374 28.3699 1.53703 28.7011C1.35913 28.9281 1.09535 29.0569 0.807035 29.0631V30.0446C1.34073 30.0446 1.84374 29.8176 2.20567 29.425C2.38357 29.2042 2.65348 29.0692 2.93566 29.0631C3.03995 29.0631 3.14423 29.0815 3.23625 29.1183C3.24238 29.1183 3.24238 29.1244 3.24852 29.1244C3.40187 29.2042 3.54297 29.3023 3.65952 29.425C4.02145 29.8115 4.5306 30.0385 5.05816 30.0385C5.59185 30.0385 6.09486 29.8115 6.45679 29.4189C6.76351 29.014 7.34014 28.9404 7.74501 29.2471C7.80635 29.2962 7.8677 29.3514 7.91677 29.4189C8.27257 29.8115 8.78172 30.0385 9.31541 30.0385C9.8491 30.0323 10.3521 29.8115 10.714 29.425C10.8306 29.3023 10.9717 29.198 11.1251 29.1244C11.1312 29.1244 11.1312 29.1183 11.1373 29.1183C11.2355 29.0815 11.3398 29.0631 11.444 29.0631C11.7262 29.0692 11.9961 29.198 12.174 29.425C12.5298 29.8176 13.039 30.0446 13.5727 30.0446V29.0631C13.2844 29.0569 13.0144 28.9281 12.8365 28.7011ZM6.69603 15.3217H7.67753V16.3033H6.69603V15.3217ZM6.69603 28.1429C6.35251 28.2472 6.04579 28.4435 5.79428 28.7011C5.48756 29.106 4.9048 29.1796 4.49993 28.8729C4.43858 28.8238 4.37724 28.7686 4.32817 28.7011C4.17481 28.5539 4.00918 28.419 3.82515 28.3085L1.92349 22.9838L6.69603 21.4011V28.1429ZM7.03342 20.2539L3.40187 21.4624L4.16254 17.2848H10.211L10.9717 21.4624L7.34014 20.2539C7.24199 20.2232 7.13157 20.2232 7.03342 20.2539ZM10.5423 28.3147C10.3644 28.4251 10.1926 28.5539 10.0454 28.7011C9.73868 29.106 9.16205 29.1796 8.75718 28.8729C8.6897 28.8238 8.63449 28.7686 8.58542 28.7011C8.33391 28.4374 8.02106 28.2472 7.67753 28.1429V21.4011L12.4439 22.9899L10.5423 28.3147Z" fill="#32297C"/>
<path d="M20.4372 7.4696H19.4557V8.45113H20.4372V7.4696Z" fill="#32297C"/>
</svg>
