<svg width="30" height="31" viewBox="0 0 30 31" fill="none" xmlns="http://www.w3.org/2000/svg">
<path d="M22.4738 7.72737V5.82765C22.4738 5.56644 22.2601 5.35272 21.9989 5.35272C20.117 5.35272 18.4547 6.58754 17.9085 8.38634L16.9527 7.75112L16.7746 4.84811C16.7568 4.59877 16.549 4.40286 16.2997 4.40286H15.3498V3.36395C16.0919 3.10274 16.4778 2.28942 16.2166 1.54734C15.9554 0.805261 15.1421 0.41938 14.4 0.680592C13.6579 0.941803 13.272 1.75512 13.5332 2.4972C13.6757 2.90089 13.9963 3.22147 14.4 3.36395V4.40286H13.4501C13.2008 4.40286 12.993 4.59877 12.9752 4.84811L12.4765 12.8744L11.3664 13.6165C10.8202 11.8177 9.15793 10.5829 7.27602 10.577C7.01481 10.577 6.80109 10.7907 6.80109 11.0519V12.9516C5.75031 12.9516 4.90137 13.8005 4.90137 14.8513C4.90137 15.9021 5.75031 16.7511 6.80109 16.7511V18.6508C6.80109 18.912 7.01481 19.1257 7.27602 19.1257C9.15793 19.1257 10.8202 17.8909 11.3664 16.0921L12.239 16.6739L11.5801 27.1995H9.17574C8.91453 27.1995 8.70081 27.4132 8.70081 27.6745V29.5742C8.70081 29.8354 8.91453 30.0491 9.17574 30.0491H20.5741C20.8353 30.0491 21.049 29.8354 21.049 29.5742V27.6745C21.049 27.4132 20.8353 27.1995 20.5741 27.1995H18.1697L17.1783 11.3547L17.9085 10.8679C18.4547 12.6667 20.117 13.9015 21.9989 13.9015C22.2601 13.9015 22.4738 13.6878 22.4738 13.4265V11.5268C23.5246 11.5268 24.3735 10.6779 24.3735 9.6271C24.3735 8.57631 23.5246 7.72737 22.4738 7.72737ZM14.8749 1.55328C15.1361 1.55328 15.3498 1.767 15.3498 2.02821C15.3498 2.28942 15.1361 2.50314 14.8749 2.50314C14.6137 2.50314 14.4 2.28942 14.4 2.02821C14.4 1.767 14.6137 1.55328 14.8749 1.55328ZM5.85123 14.8513C5.85123 14.3289 6.27867 13.9015 6.80109 13.9015V15.8012C6.27867 15.8012 5.85123 15.3738 5.85123 14.8513ZM14.3584 8.33885L13.5926 10.2029L13.7944 6.96155L14.3584 8.33885ZM14.1566 5.35272H15.5873L14.8749 7.09215L14.1566 5.35272ZM14.8749 9.58554L16.2463 12.9101L14.8749 15.1957L13.5035 12.9101L14.8749 9.58554ZM14.3228 16.1158L13.0939 18.158L13.3254 14.4595L14.3228 16.1158ZM14.8749 17.042L16.6856 20.0578L14.8749 22.6936L13.0642 20.0578L14.8749 17.042ZM12.8861 21.4766L14.2991 23.5307L12.6071 25.9944L12.8861 21.4766ZM14.8749 24.3678L16.8221 27.1995H12.9277L14.8749 24.3678ZM15.4508 23.5307L16.8637 21.4766L17.1427 25.9885L15.4508 23.5307ZM15.427 16.1158L16.4184 14.4595L16.65 18.158L15.427 16.1158ZM15.3914 8.33885L15.9554 6.96749L16.1572 10.2089L15.3914 8.33885ZM7.75095 18.1402V11.5624C9.56756 11.8237 10.8321 13.5097 10.5709 15.3263C10.3571 16.7867 9.21136 17.9324 7.75095 18.1402ZM11.5385 15.0651C11.5445 14.9938 11.5504 14.9226 11.5504 14.8513C11.5504 14.7801 11.5445 14.7089 11.5385 14.6376L12.3993 14.0618L12.3043 15.5756L11.5385 15.0651ZM20.0991 29.0993H9.65067V28.1494H20.0991V29.0993ZM17.113 10.2564L17.0299 8.94438L17.7364 9.41338C17.7304 9.48462 17.7245 9.55586 17.7245 9.6271C17.7245 9.69834 17.7304 9.76958 17.7364 9.84081L17.113 10.2564ZM21.5239 12.916C19.7073 12.6548 18.4428 10.9688 18.704 9.15217C18.9118 7.69175 20.0635 6.54598 21.5239 6.33227V12.916ZM22.4738 10.577V8.67724C22.9962 8.67724 23.4237 9.10467 23.4237 9.6271C23.4237 10.1495 22.9962 10.577 22.4738 10.577Z" fill="#32297C"/>
<path d="M23.8986 0.603439V1.5533C26.5226 1.5533 28.6479 3.67861 28.6479 6.30261H29.5977C29.5918 3.15619 27.045 0.609376 23.8986 0.603439Z" fill="#32297C"/>
<path d="M23.8986 2.50316V3.45302C25.4718 3.45302 26.7481 4.7294 26.7481 6.3026H27.698C27.698 4.20697 25.9942 2.50316 23.8986 2.50316Z" fill="#32297C"/>
<path d="M23.8986 4.40289V5.35275C24.421 5.35275 24.8484 5.78019 24.8484 6.30262H25.7983C25.7983 5.25183 24.9493 4.40289 23.8986 4.40289Z" fill="#32297C"/>
<path d="M5.85114 6.77754V5.82768C2.70473 5.83362 0.157914 8.38044 0.151978 11.5269H1.10184C1.10184 8.90286 3.22715 6.78348 5.85114 6.77754Z" fill="#32297C"/>
<path d="M5.85108 7.72739C3.75545 7.72739 2.05164 9.4312 2.05164 11.5268H3.0015C3.0015 9.95363 4.27787 8.67725 5.85108 8.67725V7.72739Z" fill="#32297C"/>
<path d="M5.85114 10.577V9.62711C4.80035 9.62711 3.95142 10.476 3.95142 11.5268H4.90128C4.90128 11.0044 5.32871 10.577 5.85114 10.577Z" fill="#32297C"/>
</svg>
