<svg width="31" height="29" viewBox="0 0 31 29" fill="none" xmlns="http://www.w3.org/2000/svg">
<path d="M30.1066 13.5769L29.1519 11.2344C29.4107 10.9316 29.566 10.5374 29.566 10.1089C29.566 9.29761 29.0081 8.61772 28.2604 8.42347C28.2604 8.3092 28.2604 5.48682 28.2604 5.36684C28.2604 4.97833 28.0189 4.64125 27.6508 4.51555L15.5212 0.344828C15.0209 0.173428 14.4687 0.173428 13.9684 0.344828L10.9489 1.38465C10.7246 1.46464 10.6038 1.7046 10.6843 1.92742C10.7649 2.15024 11.0064 2.27022 11.2307 2.19023L14.2502 1.15041C14.5665 1.04185 14.9173 1.04185 15.2394 1.15041L27.369 5.32113C27.3805 5.32685 27.3977 5.33256 27.3977 5.36113C27.3977 5.38969 27.3805 5.39541 27.369 5.40112L23.1935 6.84659V6.7209C23.1935 6.20098 22.8197 5.76106 22.3078 5.66393C17.2926 4.77265 12.2084 4.77265 7.19327 5.66393C6.6814 5.75535 6.30757 6.20098 6.30757 6.7209V6.84659L2.12634 5.40683C2.11484 5.40112 2.09758 5.39541 2.09758 5.36684C2.09758 5.33827 2.11484 5.33256 2.12634 5.32685L9.29827 2.85869C9.52257 2.7787 9.64335 2.53874 9.56283 2.31592C9.48231 2.0931 9.24075 1.97312 9.01645 2.05311L1.84453 4.52127C1.47644 4.64696 1.23488 4.98405 1.23488 5.37255C1.23488 5.76106 1.47644 6.09243 1.84453 6.21812L6.30182 7.7493V11.9886C4.04154 12.2114 2.27012 14.1139 2.27012 16.4107C2.27012 17.9476 3.06381 19.3074 4.26009 20.1072C2.25287 20.5471 0.75177 22.324 0.75177 24.4493C0.75177 26.9061 2.75899 28.9 5.22632 28.9H27.3977C28.1397 28.9 28.7436 28.3001 28.7436 27.5631C28.7436 26.8375 28.1569 26.2433 27.4265 26.2262C26.9779 25.0778 26.9721 23.8209 27.415 22.6725C28.1454 22.6611 28.7436 22.0669 28.7436 21.3356C28.7436 20.5986 28.1397 19.9987 27.3977 19.9987H27.1332C27.1907 19.8501 27.2252 19.6901 27.2252 19.5187C27.2252 18.7817 26.6213 18.1818 25.8794 18.1818H25.8679C25.448 17.1077 25.425 15.9422 25.7874 14.851C26.0174 15.0966 26.3395 15.2395 26.6788 15.2395H28.9794C29.382 15.2395 29.7615 15.0395 29.9858 14.7081C30.2159 14.3825 30.2619 13.954 30.1066 13.5769ZM28.7033 10.1089C28.7033 10.5945 28.3122 10.9888 27.8291 10.9888C27.346 10.9888 26.9549 10.5945 26.9549 10.1089C26.9549 9.62327 27.346 9.22905 27.8291 9.22905C28.3122 9.22905 28.7033 9.62327 28.7033 10.1089ZM27.3977 6.30382V8.42347C26.6501 8.61772 26.0922 9.29761 26.0922 10.1089C26.0922 10.5374 26.2475 10.9316 26.5063 11.2344L26.2072 11.9714H23.1935V7.75501L27.3977 6.30382ZM7.34281 6.50379C12.2545 5.62965 17.2409 5.62965 22.1525 6.50379C22.256 6.52093 22.3308 6.61234 22.3308 6.71518V9.63469H19.6737C19.4379 9.63469 19.2423 9.82895 19.2423 10.0632C19.2423 10.2974 19.4379 10.4917 19.6737 10.4917H22.3308V11.9657H7.16452V10.4917H17.6607C17.8965 10.4917 18.0921 10.2974 18.0921 10.0632C18.0921 9.82895 17.8965 9.63469 17.6607 9.63469H7.16452V6.71518C7.16452 6.61234 7.23928 6.52664 7.34281 6.50379ZM27.8809 21.3413C27.8809 21.6041 27.6623 21.8212 27.3977 21.8212H5.22632C3.76547 21.8212 2.57495 23.0039 2.57495 24.4551C2.57495 25.9062 3.76547 27.0889 5.22632 27.0889H22.2618C22.4976 27.0889 22.6931 26.8946 22.6931 26.6604C22.6931 26.4261 22.4976 26.2319 22.2618 26.2319H5.22632C4.23708 26.2319 3.43765 25.432 3.43765 24.4551C3.43765 23.4781 4.24284 22.6782 5.22632 22.6782H18.8282V25.0778C18.8282 25.2206 18.8973 25.352 19.018 25.432C19.1331 25.512 19.2883 25.5292 19.4206 25.4777L20.5824 25.0264L21.7442 25.4777C21.7959 25.4949 21.8477 25.5063 21.8995 25.5063C21.9857 25.5063 22.072 25.4835 22.141 25.432C22.256 25.352 22.3308 25.2206 22.3308 25.0778V22.6782H26.4948C26.1209 23.838 26.1209 25.0721 26.5005 26.2319H24.2748C24.039 26.2319 23.8434 26.4261 23.8434 26.6604C23.8434 26.8946 24.039 27.0889 24.2748 27.0889H27.4035C27.6681 27.0889 27.8866 27.306 27.8866 27.5688C27.8866 27.8316 27.6681 28.0487 27.4035 28.0487H5.22632C3.23635 28.043 1.61447 26.4319 1.61447 24.4551C1.61447 22.4782 3.23635 20.8671 5.22632 20.8671H27.3977C27.6681 20.8671 27.8809 21.0785 27.8809 21.3413ZM19.6967 22.6782H21.4796V24.4551L20.7492 24.1694C20.6457 24.1294 20.5364 24.1294 20.4329 24.1694L19.7024 24.4551V22.6782H19.6967ZM12.312 19.0502H25.8794C26.1439 19.0502 26.3625 19.2674 26.3625 19.5302C26.3625 19.793 26.1439 20.0101 25.8794 20.0101H6.75042C4.76046 20.0101 3.13858 18.3989 3.13858 16.4221C3.13858 14.4453 4.76046 12.8342 6.75042 12.8342H25.8621C25.7529 13.1198 25.5573 13.5198 25.494 13.7883H6.75042C5.28958 13.7883 4.09905 14.9709 4.09905 16.4221C4.09905 17.8733 5.28958 19.056 6.75042 19.056H10.299C10.5348 19.056 10.7303 18.8617 10.7303 18.6275C10.7303 18.3932 10.5348 18.199 10.299 18.199H6.75042C5.76119 18.199 4.96175 17.3991 4.96175 16.4221C4.96175 15.4451 5.76694 14.6453 6.75042 14.6453H8.32629V17.0277C8.32629 17.1706 8.3953 17.302 8.51608 17.382C8.63111 17.4619 8.7864 17.4791 8.91868 17.4277L10.0804 16.9763L11.2422 17.4277C11.294 17.4448 11.3457 17.4562 11.3975 17.4562C11.4838 17.4562 11.57 17.4334 11.6391 17.382C11.7541 17.302 11.8289 17.1706 11.8289 17.0277V14.6453H24.9477C24.5681 15.8051 24.5681 17.0392 24.9477 18.199H12.312C12.0762 18.199 11.8806 18.3932 11.8806 18.6275C11.8806 18.8617 12.0762 19.0502 12.312 19.0502ZM9.18899 14.6396H10.9719V16.3936L10.2415 16.1079C10.138 16.0679 10.0287 16.0679 9.92516 16.1079L9.19474 16.3936L9.18899 14.6396ZM29.2727 14.2396C29.2382 14.2853 29.1461 14.3939 28.9794 14.3939H26.6788C26.512 14.3939 26.42 14.2853 26.3855 14.2396C26.3165 14.1368 26.305 14.0111 26.351 13.8968L27.231 11.7372C27.415 11.8058 27.6163 11.84 27.8291 11.84C28.0361 11.84 28.2374 11.8 28.4272 11.7372L29.3072 13.8968C29.3532 14.0168 29.3417 14.1368 29.2727 14.2396Z" fill="#32297C"/>
</svg>
